<svg height="48" viewBox="0 0 48 48" width="48" xmlns="http://www.w3.org/2000/svg" xmlns:xlink="http://www.w3.org/1999/xlink"><defs><path id="a" d="m31.000999 39h-30.000999c-.62337662 0-1-.476-1-1v-37c0-.58.37662338-1 1-1h21.00999l9.99001 10v28c-.031968 1-.999001 1-.999001 1z"/><filter id="b" height="117.9%" width="121.9%" x="-10.9%" y="-6.4%"><feOffset dx="0" dy="1" in="SourceAlpha" result="shadowOffsetOuter1"/><feGaussianBlur in="shadowOffsetOuter1" result="shadowBlurOuter1" stdDeviation="1"/><feComposite in="shadowBlurOuter1" in2="SourceAlpha" operator="out" result="shadowBlurOuter1"/><feColorMatrix in="shadowBlurOuter1" type="matrix" values="0 0 0 0 0   0 0 0 0 0   0 0 0 0 0  0 0 0 0.2 0"/></filter><linearGradient id="c" x1="50%" x2="50%" y1="2.867905%" y2="100%"><stop offset="0" stop-color="#0090ff"/><stop offset="1" stop-color="#0076ff"/></linearGradient><mask id="d" fill="#fff"><path d="m16.98752 8.91296c0 4.41824-3.58176 8-8 8s-8-3.58176-8-8 3.58176-8 8-8 8 3.58176 8 8" fill="#fff" fill-rule="evenodd"/></mask></defs><g fill="none" fill-rule="evenodd" transform="translate(9 5)"><g fill="#000" fill-rule="nonzero"><use filter="url(#b)" xlink:href="#a"/><use fill-opacity=".1" fill-rule="evenodd" xlink:href="#a"/></g><path d="m31.000999 39h-30.000999c-.62337662 0-1-.476-1-1v-37c0-.58.37662338-1 1-1h21.00999l9.99001 10v28c-.031968 1-.999001 1-.999001 1z" fill="url(#c)" fill-rule="nonzero"/><g transform="translate(7 9)"><path d="m16.98752 8.91296c0 4.41824-3.58176 8-8 8s-8-3.58176-8-8 3.58176-8 8-8 8 3.58176 8 8" mask="url(#d)"/><path d="m16.6953602 8.90881379c0 4.25923431-3.4527658 7.71200011-7.71200008 7.71200011-4.25923426 0-7.71200012-3.4527658-7.71200012-7.71200011 0-4.25923427 3.45276586-7.71233379 7.71200012-7.71233379 4.25923428 0 7.71200008 3.45309952 7.71200008 7.71233379" stroke="#fff"/><path d="m2.09664 12.05344c1.58656.4624 5.92864 1.46208 8.6704-.4736 1.77824-1.25568 1.54912-3.26656 1.54912-3.26656-.02944-1.5296-.99616-3.04896-.99616-3.04896 3.75904 3.27584 1.53728 6.9152 1.53728 6.9152-1.144 2.25088-3.62368 3.60448-5.6016 4.07872-2.29856-.52864-4.19552-2.10784-5.15904-4.2048zm1.01824-7.92096c.46592 2.44 1.5104 4.49824 2.20512 5.2464.89792.96704 2.22048 1.9936 3.91744 1.56928 1.6976-.42432 2.04288-2.27968 2.04288-2.27968.37504-1.57888-.15872-3.45376-.18752-3.49312-.0288-.03968-.28352-.08384-.28352-.08384.26624 2.4864-.38784 3.58656-.38784 3.58656-.95168 1.94944-2.34816 1.34656-2.34816 1.34656-1.55392-.79168-1.48064-3.02368-1.48064-3.02368-.04736-1.55168.56736-4.11712 1.74912-5.61056-2.104.16864-3.96448 1.20096-5.22688 2.74208zm8.7904-2.16672c-.9072.73728-2.45056 2.31168-2.45056 2.31168-2.2896 2.12128-1.84544 3.90752-1.84544 3.90752.3648 1.87488 1.50016.61184 1.50016.61184 1.1936-1.2336 1.10464-3.69056 1.10464-3.69056-.4832.07872-.78912.3456-.78912.3456-.0592 1.63776-1.02624 2.65408-1.02624 2.65408-.37504.41472-.64128.01984-.64128.01984-.19712-.29632.19712-.50336.19712-.50336.55232-.48352.71808-1.30848.71104-1.61792-.008-.3104.15744-.39488.15744-.39488.77952-.60224 1.55936-.95744 1.55936-.95744 1.04576-.5328 2.91072-.62176 2.91072-.62176.50592.01696.98944-.008 1.37632-.04192-.7488-.86976-1.69312-1.56672-2.76416-2.02272z" fill="#fff"/></g><text fill="#fff" font-family="SourceHanSansSC-Regular, Source Han Sans SC" font-size="8"><tspan x="8" y="36">DIM</tspan></text><path d="m22.929 10.028c-.552 0-.929-.476-.929-1.028v-9l10 10z" fill="#32adff" fill-rule="nonzero"/></g></svg>