<svg height="48" viewBox="0 0 48 48" width="48" xmlns="http://www.w3.org/2000/svg"><g fill-rule="evenodd" transform="translate(0 -1004.3622)"><g transform="matrix(1.0249151 0 0 1 -.597928 0)"><circle cx="23.998566" cy="1029.8801" opacity=".05" r="21"/><circle cx="23.998566" cy="1029.3672" opacity=".1" r="21"/><ellipse cx="23.998566" cy="1028.9055" opacity=".15" rx="20.759068" ry="21"/></g><circle cx="23.998566" cy="1028.3541" fill="#eaf6fc" r="21"/><circle cx="23.998566" cy="1028.3541" fill="#018acd" r="18"/><path d="m28.882812 13.978516c-2.439931 2.050968-6.885869 5.745779-7.548828 6.296875l.667969-6.275391h-4.988281l-2.023438 19h4.988282l.693359-6.503906 6.574219 6.474609 5.783203.029297-8.392578-8.390625c-.62863-.5969-.632899-1.005734.048828-1.615234l10.328125-8.994141s-5.099629-.019531-6.13086-.019531z" fill="#eef7fb" transform="translate(0 1004.3622)"/></g></svg>