<svg height="48" viewBox="0 0 48 48" width="48" xmlns="http://www.w3.org/2000/svg"><g transform="translate(0 -1004.3622)"><g fill-rule="evenodd"><path d="m1.0449219 1011.4014-.00391.709c5.72972 11.0003 11.0752681 21.8416 16.8028441 32.8374 2.742124-1.6082 5.700296-3.3448 8.430297-4.9556 1.636708 1.6036 3.719662 3.6213 5.332932 5.2483 1.621161-3.1593 3.793216-7.3498 5.389498-10.5799 3.387585-1.8026 7.385168-3.7718 10.038607-5.1151l-.0039-.4258c-15.884519-6.1728-32.089907-12.3387-45.984409-17.7229-.0005395-.0002-.00141.0002-.00195 0z" opacity=".05"/><path d="m1.0449219 1010.8876-.00391.709c5.72972 11.0003 11.2073681 21.827 16.9349441 32.8228 2.742124-1.6082 5.641585-3.3008 8.371586-4.9116 1.636708 1.6036 3.55452 3.5345 5.16779 5.1615 1.563815-3.2051 3.5753-7.063 5.171582-10.2931 3.410721-1.8115 7.636003-3.8677 10.348276-5.243l-.0039-.3984c-.0032 0-.0025 0-.0059-.01-14.890185-5.7762-31.072649-12.0664-45.978509-17.8418-.0005395-.0002-.00141.0002-.00195 0z" opacity=".1"/><path d="m1.0449219 6.0292969-.00391.7089843c5.72972 11.0003208 11.2807571 21.7682498 17.0083331 32.7640778 2.742124-1.6082 5.67094-3.227398 8.400941-4.838198 1.636708 1.6036 3.348553 3.451027 4.961823 5.078027 1.563815-3.205101 3.311509-6.810666 4.907791-10.040766 3.396851-1.8128 7.414134-3.711631 10.701584-5.363531.000129-.07826-.0027-.118431.0098-.01953v-.441406c-.0032-.0014-.0025-.0046-.0059-.0059-14.890185-5.776142-31.072649-12.066403-45.978509-17.8417581-.0005395-.000209-.00141.0002005-.00195 0z" opacity=".15" transform="translate(0 1004.3622)"/></g><g transform="matrix(.56513815 .14138461 -.14138461 .56513815 186.5249 450.70486)"><g fill-rule="evenodd"><path d="m-75.716384 1009.2783 84.0395724 10.5667-15.99813 13.7268-3.8514004 18.1707-10.066395-6.1244-11.758225 11.4571z" fill="#73c021"/><path d="m-73.543799 1010.2658 65.8684066 23.3239-3.8558136 18.1451-5.525356-11.0528z" fill="#4e890f"/><path d="m-21.62629 1045.6005 4.580238-4.8855 5.516127 11.0282z" fill="#8e9ca5"/></g><g fill="#fff"><g fill-rule="evenodd"><path d="m-44.463845 1044.5681 19.322733-5.1223s-3.02056-7.9758-12.9658-5.9684c-7.477635 1.5093-8.369464 8.8154-8.369464 8.8154z"/><path d="m-43.374494 1045.7621 18.542092-5.0128 1.81796 6.2771-10.342503 10.0549z"/><path d="m-21.908665 1045.9269 4.039383-4.3201s-1.02903-2.7441-3.60161-1.475c-2.16097 1.0291-.437773 5.7951-.437773 5.7951z"/></g><rect height="6.002688" ry=".411613" transform="matrix(.65980256 -.75143901 .75143901 .65980256 0 0)" width=".823226" x="-806.75269" y="647.586"/><path d="m-33.025332 1032.0968-1.31641 3.1465c-.0881.2103.01038.4509.2207.539.21033.088.45096-.01.53907-.2207l1.28515-3.0683z"/></g><circle cx="-40.385967" cy="1038.1791" fill="#73c021" r="1"/><circle cx="-33.249603" cy="1037.1307" fill="#73c021" r="1"/></g></g></svg>