<svg height="48" viewBox="0 0 48 48" width="48" xmlns="http://www.w3.org/2000/svg"><g transform="translate(0 -1004.3622)"><path d="m31.984375 1007.4974c-10.306633-.091-8.746094 8.4395-8.746094 8.4395s3.401255 1.9061 7.232422.061c2.615028-1.3381 2.891351-3.7316 6.695313-7.8828-1.995964-.4149-3.709265-.6042-5.181641-.6172zm-9.964844 3.8321-2.978515.035s2.047152 2.2496 2.914062 7.9805c.511303-2.8924.248699-7.4964.06445-8.0156zm6.990235 6.5644c-.830386.024-1.645794.1869-2.423828.5039-4.129873 1.6823-5.92411 1.5227-8.296876.6504s-10.6329538-2.2117-12.8398432 7.9981c-1.9563309 9.0506 1.7418433 14.9345 3.3671874 17.332 1.1492193 1.6951 4.9258008 7.3822 13.0058598 5.6562 3.862208-.8249 5.098337 2.0634 9.636718-.5918 4.538384-2.655 8.881428-8.806 9.427735-17.5078.478018-7.6141-6.064256-14.2097-11.876953-14.041z" fill-rule="evenodd" opacity=".05"/><path d="m31.984375 1007.02c-10.306633-.091-8.746094 8.4395-8.746094 8.4395s3.401255 1.9061 7.232422.061c2.615028-1.3381 2.891351-3.7316 6.695313-7.8828-1.995964-.4149-3.709265-.6042-5.181641-.6172zm-9.964844 3.8321-2.978515.035s2.047152 2.2496 2.914062 7.9805c.511303-2.8924.248699-7.4964.06445-8.0156zm6.990235 6.5644c-.830386.024-1.645794.1869-2.423828.5039-4.129873 1.6823-5.92411 1.5227-8.296876.6504s-10.6329538-2.2117-12.8398432 7.9981c-1.9563309 9.0506 1.7418433 14.9345 3.3671874 17.332 1.1492193 1.6951 4.9258008 7.3822 13.0058598 5.6562 3.862208-.8249 5.098337 2.0634 9.636718-.5918 4.538384-2.655 8.881428-8.806 9.427735-17.5078.478018-7.6141-6.064256-14.2097-11.876953-14.041z" fill-rule="evenodd" opacity=".1"/><path d="m31.984375 1006.5942c-10.306633-.091-8.746094 8.4395-8.746094 8.4395s3.401255 1.9061 7.232422.061c2.615028-1.3381 2.891351-3.7316 6.695313-7.8828-1.995964-.4149-3.709265-.6042-5.181641-.6172zm-9.964844 3.8321-2.978515.035s2.047152 2.2496 2.914062 7.9805c.511303-2.8924.248699-7.4964.06445-8.0156zm6.990235 6.5644c-.830386.024-1.645794.1869-2.423828.5039-4.129873 1.6823-5.92411 1.5227-8.296876.6504s-10.6329538-2.2117-12.8398432 7.9981c-1.9563309 9.0506 1.7418433 14.9345 3.3671874 17.332 1.1492193 1.6951 4.9258008 7.3822 13.0058598 5.6562 3.862208-.8249 5.098337 2.0634 9.636718-.5918 4.538384-2.655 8.881428-8.806 9.427735-17.5078.478018-7.6141-6.064256-14.2097-11.876953-14.041z" fill-rule="evenodd" opacity=".15"/><path d="m18.289164 1017.7447c2.372765.8723 4.166661 1.0318 8.296534-.6505 6.224275-2.5358 14.846714 4.8364 14.300407 13.5383-.546307 8.7018-4.888803 14.8525-9.427187 17.5075-4.538381 2.6552-5.774756-.2331-9.636964.5918-8.080059 1.726-11.8571826-3.9609-13.0064019-5.656-1.6253442-2.3975-5.3229123-8.2814-3.3665814-17.332 2.2068895-10.2098 10.4674263-8.8714 12.8401933-7.9991z" fill="#1b80f2" fill-rule="evenodd"/><path d="m19.0409 1010.0612 2.979141-.035c.184246.5192.447183 5.1233-.06412 8.0157-.86691-5.7309-2.91502-7.9797-2.91502-7.9797z" fill="#1b80f2" fill-rule="evenodd"/><path d="m23.238946 1014.6342s-2.040087-11.1423 13.927623-7.8231c-3.803962 4.1512-4.08068 6.545-6.695708 7.8831-3.831167 1.8456-7.231915-.06-7.231915-.06z" fill="#1b80f2" fill-rule="evenodd"/><path d="m21.994175 1020.3586h1v3.009495h-1z" fill="#fff"/><path d="m22.015621 1044.3677h1v2.993437h-1z" fill="#fff"/><g fill="#fff" transform="matrix(0 1 -1 0 1056.3647 1011.3549)"><path d="m21.994175 1020.3586h1v3.009495h-1z"/><path d="m22.015621 1044.3677h1v2.993437h-1z"/></g><g fill="#fff" transform="matrix(.8660254 .5 -.5 .8660254 519.94496 127.25846)"><path d="m21.994175 1020.3586h1v3.009495h-1z"/><path d="m22.015621 1044.3677h1v2.993437h-1z"/></g><g fill="#fff" transform="matrix(.5 .8660254 -.8660254 .5 906.60129 497.44006)"><path d="m21.994175 1020.3586h1v3.009495h-1z"/><path d="m22.015621 1044.3677h1v2.993437h-1z"/></g><g fill="#fff" transform="matrix(-.5 .8660254 -.8660254 -.5 929.10619 1531.2999)"><path d="m21.994175 1020.3586h1v3.009495h-1z"/><path d="m22.015621 1044.3677h1v2.993437h-1z"/></g><g fill="#fff" transform="matrix(-.8660254 .5 -.5 -.8660254 558.92459 1917.9562)"><path d="m21.994175 1020.3586h1v3.009495h-1z"/><path d="m22.015621 1044.3677h1v2.993437h-1z"/></g><circle cx="22.550629" cy="1033.8727" fill="#fff" r="1"/><rect fill="none" height="11.705077" ry=".508098" stroke="#fff" stroke-linecap="round" stroke-linejoin="round" stroke-width=".25" transform="matrix(.75367609 .65724603 -.65724603 .75367609 0 0)" width="1.016196" x="695.95569" y="753.31134"/><rect fill="none" height="9.000936" ry=".498504" stroke="#fff" stroke-linecap="round" stroke-linejoin="round" stroke-width=".25" transform="matrix(-.64983381 .76007632 -.76007632 -.64983381 0 0)" width=".997009" x="770.71936" y="-697.45557"/><g fill="#fff"><path d="m905.49335 498.94867h.434338v12.053809h-.434338z" transform="matrix(.50149245 .86516202 -.86516202 .50149245 0 0)"/><path d="m696.43219 758.72179c.36.009.54854.15333.54854.30264v5.66972c0 .14931-.39193.33533-.54124.33533s-.51593-.11594-.51593-.26525v-5.66972c0-.14931.21241-.38008.50863-.37272z" stroke="#fff" stroke-linecap="round" stroke-linejoin="round" stroke-width=".053043" transform="matrix(.75367609 .65724603 -.65724603 .75367609 0 0)"/><path d="m25.904715 1036.7842c-.201788.2232-.395907.264-.490495.1827l-3.591624-3.088c-.09458-.082.001-.431.08239-.5257.0813-.094.354458-.2636.449038-.1823l3.591624 3.0882c.09458.082.125076.3416-.04089.5251z" stroke="#fff" stroke-linecap="round" stroke-linejoin="round" stroke-width=".044314"/><g fill-rule="evenodd" transform="matrix(1.03338590097 .1311454632 -.1311454632 1.03338590097 134.83538388297 -37.46481460569)"><g><path d="m22.639009 1020.9019h-.314076l.000692.9769h.31469l-.0013-.9771z"/><path d="m22.639009 1045.8405h-.314076l.000692.9769h.31469l-.0013-.9771z"/></g><g transform="matrix(.99602505 .08907358 -.08907358 .99602505 92.17893 2.106927)"><path d="m22.639009 1020.9019h-.314076l.000692.9769h.31469l-.0013-.9771z"/><path d="m22.639009 1045.8405h-.314076l.000692.9769h.31469l-.0013-.9771z"/></g><g transform="matrix(.9845816 .17492594 -.17492594 .9845816 181.19551 12.007694)"><path d="m22.639009 1020.9019h-.314076l.000692.9769h.31469l-.0013-.9771z"/><path d="m22.639009 1045.8405h-.314076l.000692.9769h.31469l-.0013-.9771z"/></g><g transform="matrix(.96574222 .25950334 -.25950334 .96574222 269.06021 29.583476)"><path d="m22.639009 1020.9019h-.314076l.000692.9769h.31469l-.0013-.9771z"/><path d="m22.639009 1045.8405h-.314076l.000692.9769h.31469l-.0013-.9771z"/></g></g><g fill-rule="evenodd" transform="matrix(.82773098878 .63241359084 -.63241359084 .82773098878 657.69990101699 163.88381977881)"><g><path d="m22.639009 1020.9019h-.314076l.000692.9769h.31469l-.0013-.9771z"/><path d="m22.639009 1045.8405h-.314076l.000692.9769h.31469l-.0013-.9771z"/></g><g transform="matrix(.99602505 .08907358 -.08907358 .99602505 92.17893 2.106927)"><path d="m22.639009 1020.9019h-.314076l.000692.9769h.31469l-.0013-.9771z"/><path d="m22.639009 1045.8405h-.314076l.000692.9769h.31469l-.0013-.9771z"/></g><g transform="matrix(.9845816 .17492594 -.17492594 .9845816 181.19551 12.007694)"><path d="m22.639009 1020.9019h-.314076l.000692.9769h.31469l-.0013-.9771z"/><path d="m22.639009 1045.8405h-.314076l.000692.9769h.31469l-.0013-.9771z"/></g><g transform="matrix(.96574222 .25950334 -.25950334 .96574222 269.06021 29.583476)"><path d="m22.639009 1020.9019h-.314076l.000692.9769h.31469l-.0013-.9771z"/><path d="m22.639009 1045.8405h-.314076l.000692.9769h.31469l-.0013-.9771z"/></g></g><g fill-rule="evenodd" transform="matrix(.39265362337 .96483608997 -.96483608997 .39265362337 1011.15976466687 606.21910365158)"><g><path d="m22.639009 1020.9019h-.314076l.000692.9769h.31469l-.0013-.9771z"/><path d="m22.639009 1045.8405h-.314076l.000692.9769h.31469l-.0013-.9771z"/></g><g transform="matrix(.99602505 .08907358 -.08907358 .99602505 92.17893 2.106927)"><path d="m22.639009 1020.9019h-.314076l.000692.9769h.31469l-.0013-.9771z"/><path d="m22.639009 1045.8405h-.314076l.000692.9769h.31469l-.0013-.9771z"/></g><g transform="matrix(.9845816 .17492594 -.17492594 .9845816 181.19551 12.007694)"><path d="m22.639009 1020.9019h-.314076l.000692.9769h.31469l-.0013-.9771z"/><path d="m22.639009 1045.8405h-.314076l.000692.9769h.31469l-.0013-.9771z"/></g><g transform="matrix(.96574222 .25950334 -.25950334 .96574222 269.06021 29.583476)"><path d="m22.639009 1020.9019h-.314076l.000692.9769h.31469l-.0013-.9771z"/><path d="m22.639009 1045.8405h-.314076l.000692.9769h.31469l-.0013-.9771z"/></g></g><g fill-rule="evenodd" transform="matrix(-.1320996057 1.0332643584 -1.0332643584 -.1320996057 1093.70284621216 1147.20188029456)"><g><path d="m22.639009 1020.9019h-.314076l.000692.9769h.31469l-.0013-.9771z"/><path d="m22.639009 1045.8405h-.314076l.000692.9769h.31469l-.0013-.9771z"/></g><g transform="matrix(.99602505 .08907358 -.08907358 .99602505 92.17893 2.106927)"><path d="m22.639009 1020.9019h-.314076l.000692.9769h.31469l-.0013-.9771z"/><path d="m22.639009 1045.8405h-.314076l.000692.9769h.31469l-.0013-.9771z"/></g><g transform="matrix(.9845816 .17492594 -.17492594 .9845816 181.19551 12.007694)"><path d="m22.639009 1020.9019h-.314076l.000692.9769h.31469l-.0013-.9771z"/><path d="m22.639009 1045.8405h-.314076l.000692.9769h.31469l-.0013-.9771z"/></g><g transform="matrix(.96574222 .25950334 -.25950334 .96574222 269.06021 29.583476)"><path d="m22.639009 1020.9019h-.314076l.000692.9769h.31469l-.0013-.9771z"/><path d="m22.639009 1045.8405h-.314076l.000692.9769h.31469l-.0013-.9771z"/></g></g><g fill-rule="evenodd" transform="matrix(-.63273629115 .82748434111 -.82748434111 -.63273629115 892.2106628453 1669.41638218624)"><g><path d="m22.639009 1020.9019h-.314076l.000692.9769h.31469l-.0013-.9771z"/><path d="m22.639009 1045.8405h-.314076l.000692.9769h.31469l-.0013-.9771z"/></g><g transform="matrix(.99602505 .08907358 -.08907358 .99602505 92.17893 2.106927)"><path d="m22.639009 1020.9019h-.314076l.000692.9769h.31469l-.0013-.9771z"/><path d="m22.639009 1045.8405h-.314076l.000692.9769h.31469l-.0013-.9771z"/></g><g transform="matrix(.9845816 .17492594 -.17492594 .9845816 181.19551 12.007694)"><path d="m22.639009 1020.9019h-.314076l.000692.9769h.31469l-.0013-.9771z"/><path d="m22.639009 1045.8405h-.314076l.000692.9769h.31469l-.0013-.9771z"/></g><g transform="matrix(.96574222 .25950334 -.25950334 .96574222 269.06021 29.583476)"><path d="m22.639009 1020.9019h-.314076l.000692.9769h.31469l-.0013-.9771z"/><path d="m22.639009 1045.8405h-.314076l.000692.9769h.31469l-.0013-.9771z"/></g></g><g fill-rule="evenodd" transform="matrix(-.95893298365 .40685756215 -.40685756215 -.95893298365 464.67528051285 2016.11478938944)"><g><path d="m22.639009 1020.9019h-.314076l.000692.9769h.31469l-.0013-.9771z"/><path d="m22.639009 1045.8405h-.314076l.000692.9769h.31469l-.0013-.9771z"/></g><g transform="matrix(.99602505 .08907358 -.08907358 .99602505 92.17893 2.106927)"><path d="m22.639009 1020.9019h-.314076l.000692.9769h.31469l-.0013-.9771z"/><path d="m22.639009 1045.8405h-.314076l.000692.9769h.31469l-.0013-.9771z"/></g><g transform="matrix(.9845816 .17492594 -.17492594 .9845816 181.19551 12.007694)"><path d="m22.639009 1020.9019h-.314076l.000692.9769h.31469l-.0013-.9771z"/><path d="m22.639009 1045.8405h-.314076l.000692.9769h.31469l-.0013-.9771z"/></g><g transform="matrix(.96574222 .25950334 -.25950334 .96574222 269.06021 29.583476)"><path d="m22.639009 1020.9019h-.314076l.000692.9769h.31469l-.0013-.9771z"/><path d="m22.639009 1045.8405h-.314076l.000692.9769h.31469l-.0013-.9771z"/></g></g></g></g></svg>