<svg height="48" viewBox="0 0 47.999999 48" width="48" xmlns="http://www.w3.org/2000/svg"><g transform="translate(0 -1004.3622)"><rect height="38" opacity=".05" ry="1.000017" width="39" x="4.488913" y="1010.880416"/><rect height="38" opacity=".1" ry="1.000017" width="38" x="4.968291" y="1010.375316"/><rect height="38" opacity=".15" ry="1.000017" width="38" x="4.968291" y="1009.876516"/><rect fill="#bc140b" height="38" ry="1.000017" width="38" x="4.993442" y="1009.352319"/><path d="m22.870345 1019.7868c-.482617-.026-.975134-.022-1.475528.012-4.003142.2683-9.631328 2.2316-12.9146096 7.5873-.4402694.4885-.5007693 1.2107-.1479274 1.7657 2.667253 4.1915 6.554775 6.9206 10.838012 7.7016 4.194758.765 9.431389-.4824 13.665042-4.5984l-1.760147-2.3463c-2.76579 3.097-8.0095 4.6792-11.378724 4.0648-3.084969-.5625-5.958319-2.462-8.179066-5.4696 2.974325-4.1813 7.228457-5.5915 10.07216-5.7822 3.058773-.2051 5.73513 1.0904 8.061099 3.0577 4.651938 3.9346 6.819029 9.5742 6.819029 9.5742.760262 1.7989 3.45853.6586 2.698267-1.1403 0 0-2.230808-6.1062-7.626074-10.6696-2.360429-1.9964-5.293217-3.5734-8.671533-3.7562zm15.517381.032c-.587559.027-1.102307.4018-1.307003.9532-.309846.8011-1.445385 2.7896-2.052257 3.9659l1.967995 2.5147c.765438-1.4566 2.094228-3.6107 2.816235-5.4246.397732-.9887-.360338-2.0576-1.42497-2.0092z" fill="#fff" fill-rule="evenodd"/><text fill="#fff" font-family="sans-serif" font-size="4.427103" letter-spacing="0" word-spacing="0" x="16.167372" y="1030.2008"><tspan x="16.167372" y="1030.2008">BIBLE</tspan></text><path d="m30.00677 1047.3352c.816457 0 9.088182.02 11.992434.027 0 0 1.005399-.01 1.00078-.9966l-.0083-12.0017z" fill="#5e0912" fill-rule="evenodd"/><text fill="#fff" font-family="sans-serif" font-size="4.885616" letter-spacing="0" transform="matrix(.70710678 -.70710678 .70710678 .70710678 0 0)" word-spacing="0" x="-713.45038" y="766.95093"><tspan x="-713.45038" y="766.95093">HD</tspan></text></g></svg>