<svg height="48" viewBox="0 0 48 48" width="48" xmlns="http://www.w3.org/2000/svg" xmlns:xlink="http://www.w3.org/1999/xlink"><filter id="a" height="200%" width="200%" x="-50%" y="-50%"><feOffset dx="0" dy="1" in="SourceAlpha" result="shadowOffsetOuter1"/><feGaussianBlur in="shadowOffsetOuter1" result="shadowBlurOuter1" stdDeviation=".5"/><feColorMatrix in="shadowBlurOuter1" result="shadowMatrixOuter1" type="matrix" values="0 0 0 0 0   0 0 0 0 0   0 0 0 0 0  0 0 0 0.209417459 0"/><feMerge><feMergeNode in="shadowMatrixOuter1"/><feMergeNode in="SourceGraphic"/></feMerge></filter><g fill="none" fill-rule="evenodd"><path d="m45 24c0 11.5976-9.4024 21-21 21s-21-9.4024-21-21 9.4024-21 21-21 21 9.4024 21 21" fill="#bd2020" filter="url(#a)"/><g fill="#fff"><path d="m34.0827516 14.3877963-5.1449595-.016003 1.1655507-2.7165065-2.69917-.9721813-1.6376387 3.6886878-1.0521963.016003v2.6538283h6.6985825v2.6698312l-8.0108272.0160029v-5.3396624l-2.667164-.016003-.0106687 17.3432343h13.3518232l-.0106686-8.0068265-7.998825.0093351-.0106686 2.6658304 5.3329945-.0106686v2.6764991h-7.9868228v-6.6519071l10.6646555-.0333396z"/><path d="m14.9974591 20.1342013c1.2882403 0 2.3337686-1.0455283 2.3337686-2.3337686 0-1.2882402-1.0455283-2.3337685-2.3337686-2.3337685-1.2882402 0-2.3337685 1.0455283-2.3337685 2.3337685 0 1.2882403 1.0455283 2.3337686 2.3337685 2.3337686"/><path d="m26.2834304 37.93072 1.4962791-3.5873356-9.6831391-1.2869067 1.2388977-5.3316609-2.2964282-.5481022 1.9176909-4.7942274-7.5160683-1.3909261-.0493425 3.2045976 3.3926327.8681619-1.6963164 4.0060804 2.2897604 1.2655694-1.3202462 4.0940968z"/></g></g></svg>