<svg height="48" viewBox="0 0 48 48" width="48" xmlns="http://www.w3.org/2000/svg"><g fill-rule="evenodd" transform="matrix(1.1387315 0 0 .9779351 -2.245589 -981.162142)"><path d="m23.034876 1007.8981c3.395249 7.1497 4.369181 8.0054 8.592611 15.0098 8.801057 13.8613 1.289516 27.0402-8.566643 26.9922h-.02275c-9.856932.05-17.3681575-13.1301-8.566613-26.9922 4.19429-7.0276 4.207086-7.0643 8.563398-15.0098z" opacity=".05"/><path d="m23.034876 1007.3718c3.395249 7.1497 4.369181 8.0054 8.592611 15.0098 8.801057 13.8613 1.289516 27.0402-8.566643 26.9922h-.02275c-9.856932.05-17.3681575-13.1301-8.566613-26.9922 4.19429-7.0276 4.207086-7.0643 8.563398-15.0098z" opacity=".1"/><path d="m23.034876 1006.8395c3.395249 7.1497 4.369181 8.0054 8.592611 15.0098 8.801057 13.8613 1.289516 27.0402-8.566643 26.9922h-.02275c-9.856932.05-17.3681575-13.1301-8.566613-26.9922 4.19429-7.0276 4.207086-7.0643 8.563398-15.0098z" opacity=".15"/><path d="m23.055661 1006.3679c3.342573 7.1497 4.301396 8.0054 8.459301 15.0098 8.664511 13.8613 1.269509 27.0402-8.433735 26.9922h-.0224c-9.704005.049-17.0986964-13.1302-8.433705-26.9922 4.129217-7.0276 4.141815-7.0643 8.430539-15.0098z" fill="#579eba"/><path d="m23.055661 1006.3679c.02827.053.0392.075.06711.127l-.01918-.01c-4.941311 16.0788-8.25268 17.114-9.080439 26.1615-.322087 8.5388 6.77703 17.828 18.825993 10.0101-2.687768 4.3371-7.02946 5.7228-9.767923 5.7093h-.02237c-9.704008.049-17.0987284-13.1302-8.433737-26.9922 4.129217-7.0276 4.141814-7.0643 8.430539-15.0098z" fill="#468ca9"/><path d="m26.73647 1016.8495s11.579825 13.4593 4.862238 23.2671c-1.52221 2.1617-4.925516 1.9027-3.128456-.2907 1.845898-2.607 5.270021-9.9628-1.733782-22.9764z" fill="#c2ecf0"/></g></svg>