<svg height="48" viewBox="0 0 48 48" width="48" xmlns="http://www.w3.org/2000/svg" xmlns:xlink="http://www.w3.org/1999/xlink"><defs><rect id="a" height="38" rx="2" width="38" x="5" y="5"/><filter id="b" height="200%" width="200%" x="-50%" y="-50%"><feOffset dx="0" dy="1" in="SourceAlpha" result="shadowOffsetOuter1"/><feGaussianBlur in="shadowOffsetOuter1" result="shadowBlurOuter1" stdDeviation="1"/><feColorMatrix in="shadowBlurOuter1" type="matrix" values="0 0 0 0 0   0 0 0 0 0   0 0 0 0 0  0 0 0 0.2 0"/></filter></defs><g fill="none" fill-rule="evenodd"><use fill="#000" filter="url(#b)" xlink:href="#a"/><use fill="#df4c2e" fill-rule="evenodd" xlink:href="#a"/><path d="m19.0810811 13.0341662h15.8108108s.7027027 5.8602754-4.9189189 15.1677716c2.1081081 1.7236104 1.4054054 1.7236104 7.027027 5.1708312 0 0-1.4054054 1.3788883-1.7567568 3.1024987-.3513513 0-4.5675675-2.4130545-7.7297297-5.8602753 0 0-3.1621621 4.1366649-8.4324324 5.8602753-.3513514 0-.3513514-1.0341662-1.7567568-2.7577766 0 0 4.5675676-1.3788883 7.7297298-5.1708312-5.2702703-6.2049975-5.972973-15.5124937-5.972973-15.5124937zm4.2162162 2.7577767h8.0810811s0 5.1708312-3.8648649 9.9969403c-3.8648649-3.7919429-4.2162162-9.9969403-4.2162162-9.9969403zm-8.0810811 10.3416624 2.8108108 1.7236104s-1.4054054 4.8261091-4.5675675 8.2733299c-.7027027-.344722-1.7567568-1.3788883-2.4594595-2.0683324 2.1081081-2.9210724 4.2162162-7.9286079 4.2162162-7.9286079zm-4.2162162-5.5155533 1.4054054-2.4130545s3.5135135 2.0683324 4.9189189 3.4472208l-1.4054054 2.4130545zm4.2162162-3.1024987c1.552368 0 2.8108108-1.2346987 2.8108108-2.7577767 0-1.5230779-1.2584428-2.7577766-2.8108108-2.7577766-1.5523679 0-2.8108108 1.2346987-2.8108108 2.7577766 0 1.523078 1.2584429 2.7577767 2.8108108 2.7577767z" fill="#fff"/></g></svg>