<svg height="48" viewBox="0 0 48 48" width="48" xmlns="http://www.w3.org/2000/svg" xmlns:xlink="http://www.w3.org/1999/xlink"><filter id="a" height="200%" width="200%" x="-50%" y="-50%"><feOffset dx="0" dy="1" in="SourceAlpha" result="shadowOffsetOuter1"/><feGaussianBlur in="shadowOffsetOuter1" result="shadowBlurOuter1" stdDeviation=".5"/><feColorMatrix in="shadowBlurOuter1" result="shadowMatrixOuter1" type="matrix" values="0 0 0 0 0   0 0 0 0 0   0 0 0 0 0  0 0 0 0.21 0"/><feMerge><feMergeNode in="shadowMatrixOuter1"/><feMergeNode in="SourceGraphic"/></feMerge></filter><g fill="none" fill-rule="evenodd"><rect fill="#ee430d" filter="url(#a)" height="38" rx="1" width="38" x="5" y="5"/><path d="m43 7.95968835v15.55778825l-3.7130952-1.8518856s-5.5833662 11.2985175-19.3236953 15.4264182c-8.4840951 2.5488111-12.85820207 1.5523211-14.9632095.4169391v-12.6701747c.20060241-.2330157.41251433-.4692391.6362625-.7086293 7.0315428-7.5231123 14.7718669-5.1186203 14.7718669-5.1186203s5.8685113 1.7528563-1.1446629 7.5863807c-7.0131743 5.8335244-11.79941689 3.2625519-11.79941689 3.2625519s7.15837089.3673651 9.10103279-4.7465903c.0000003-2.0991322-2.5540621-1.8659814-2.5540621-1.8659814s-6.33821402.528306-8.31265561 6.0921378 7.06507211 3.9652105 7.06507211 3.9652105 13.1175587-2.7295809 19.4595622-15.1024955c-.0000009 0-3.9818295-2.3385995-3.9818295-2.3385995z" fill="#fff"/></g></svg>