<svg height="48" viewBox="0 0 48 48" width="48" xmlns="http://www.w3.org/2000/svg" xmlns:xlink="http://www.w3.org/1999/xlink"><filter id="a" height="200%" width="200%" x="-50%" y="-50%"><feOffset dx="0" dy="1" in="SourceAlpha" result="shadowOffsetOuter1"/><feGaussianBlur in="shadowOffsetOuter1" result="shadowBlurOuter1" stdDeviation=".5"/><feColorMatrix in="shadowBlurOuter1" result="shadowMatrixOuter1" type="matrix" values="0 0 0 0 0   0 0 0 0 0   0 0 0 0 0  0 0 0 0.21 0"/><feMerge><feMergeNode in="shadowMatrixOuter1"/><feMergeNode in="SourceGraphic"/></feMerge></filter><g fill="none" fill-rule="evenodd"><rect fill="#089eef" filter="url(#a)" height="42" rx="44" width="42" x="3" y="3"/><path d="m34.2652263 27.0179899c-.7666851 2.2544515-2.8766158 3.873902-5.3593917 3.873902-3.1303186 0-5.6679432-2.5743627-5.6679432-5.75s2.5376246-5.75 5.6679432-5.75c2.6315815 0 4.8442855 1.8193921 5.4825613 4.2858963l-7.9335637 3.0181577s1.0723136 3.1081082 4.5956296 2.1756757c1.6002175-.4234916 2.6000467-1.1675517 3.2147645-1.8536317zm-11.4572099-14.1530624c2.9037621.0122592 5.4861757 1.8222899 6.602517 4.5508156l.4161848 1.0172255.9203016-.5842545c.6407373-.4067729 1.3749664-.6245284 2.1416939-.6245284 2.2790056 0 4.1360667 1.9322527 4.1360667 4.3274429 0 .0834884-.00225.1666455-.0067312.249414l-.0245198.4528921.3360807.2991416c1.1541902 1.0273315 1.832138 2.5257177 1.832138 4.1428696 0 3.0091907-2.3354379 5.3040541-5.2045509 5.3040541h-19.4510021c-3.1255292 0-5.66794324-2.5040682-5.66794324-5.7702703 0-1.9732159.93451698-3.7785016 2.46546334-4.8731256.4149211-.2966679.5142164-.8783943.2217822-1.2993224-.2924342-.420928-.865859-.5216608-1.2807801-.2249929-2.01670043 1.4419373-3.2447173 3.8142015-3.2447173 6.3974409 0 4.2866651 3.3558486 7.7702703 7.5061951 7.7702703h19.4510025c3.8949133 0 7.0428024-3.2753458 7.0428024-7.3040541 0-2.1574709-.9085229-4.1654694-2.4580262-5.5446645 0 0 .3210584.5179502.3210584.4003472 0-3.4147077-2.6695126-6.1923077-5.9743185-6.1923077-1.1147386 0-2.1863271.3178085-3.1168521.9085535l1.3364863.432971c-1.4011224-3.4245784-4.660642-5.7008454-8.3300194-5.7008454-4.6232722 0-8.2776032 3.3018021-8.7783285 8-.0196818.1846698-.024968.3664718 0 .5260468v11.4739532h9v-2h-5v-11s0-3.5135136 3.8125704-4.7567568c.4343156-.1416262.7597399-.2671188.995446-.3783157zm3.3404405 11.8107482 5.9743185-2.0202703s-1.2255012-2.0202703-3.8296914-1.2432432c-2.6041901.777027-2.1446271 3.2635135-2.1446271 3.2635135z" fill="#fff"/></g></svg>