<svg height="48" viewBox="0 0 48 48" width="48" xmlns="http://www.w3.org/2000/svg" xmlns:xlink="http://www.w3.org/1999/xlink"><filter id="a" height="200%" width="200%" x="-50%" y="-50%"><feOffset dx="0" dy="1" in="SourceAlpha" result="shadowOffsetOuter1"/><feGaussianBlur in="shadowOffsetOuter1" result="shadowBlurOuter1" stdDeviation=".5"/><feColorMatrix in="shadowBlurOuter1" result="shadowMatrixOuter1" type="matrix" values="0 0 0 0 0   0 0 0 0 0   0 0 0 0 0  0 0 0 0.21 0"/><feMerge><feMergeNode in="shadowMatrixOuter1"/><feMergeNode in="SourceGraphic"/></feMerge></filter><g fill="none" fill-rule="evenodd" filter="url(#a)"><g transform="translate(3 3)"><circle cx="21" cy="21" fill="#252525" r="21"/><g fill="#ef0113"><ellipse cx="29.750705" cy="9.750705" rx=".750705" ry=".750705"/><path d="m13.6137478 14.466613c1.4498576.2320195 2.8861257 1.2965085 5.7698301-1.1065784 2.573845-2.1448707 2.0376274-.7507048 2.0376274-.7507048s-.6434613.7507048-1.6086532.8579483c-.9651919.1072436 2.4666015.6434613 3.539037-.7507048 1.0724354-1.3941661 2.6810886-1.0724354 2.6810886-1.0724354s1.6086532.6434612 2.6810886.2144871c.9651919.5362177 2.5738451 1.1796789 2.1448709-1.179679-.3217306.5362177-.4289742.8579483-1.5014096.1072435-.6434613 0-.7507048-.1072435-.6434613-.85794834-.3217306.42897414-.4289742.96519194-1.179679.42897414-.7507048-.53621768-.4289742-.214487-1.179679-.3217306-.7507048-.10724354-2.7883321-.64346125 0-1.17967898 2.1448709-.42897418 1.9303838-.42897418 2.0376274.42897418.1072435.8579484.4289741-.9651919.4289741-.9651919s.2144871.64346126 1.179679.32173063c.8579484.42897418.3217307.21448709.6434613.21448709s.2144871.64346127.2144871.85794836c0 .21448708.6434613-.64346127.5362177-1.39416608.2144871-.42897418.4289742-.64346127.3217306-1.39416608.5362178-.64346127.6434613-1.50140962-1.1796789-1.82314025-1.0724355-1.07243545-1.7158968-1.28692254-3.539037-.9651919-1.8231403.32173063-3.1100628.10724354-3.1100628.10724354s-.8579484-.10724354.3217306.32173063c1.179679.42897418 3.6462805-.21448708 3.6462805-.21448708s1.3941661-.10724354 2.1448709.85794835c-.5362177.10724354-1.2869225.42897418-3.2173063.42897418-1.9303838-.00000001-.2144871.21448709 1.179679.21448708s2.0376273-.42897417 2.0376273-.42897417.1072436.53621773-.8579483.64346127c-.3217307.42897417-.8579484.53621772-2.2521145.53621772-1.394166-.00000001-1.1796789-.10724355-1.1796789-.10724355s.4289741-1.9303838-1.6086532-1.39416607c-.2144871-.42897419-.3217306-.96519191-2.5738451-.10724355-2.359358.53621772-5.5766643-.42897418-5.5766643-.42897418s-2.4666015-.7507048-1.5014096.10724355 1.9303838.64346126 1.9303838.64346126.4289742.2144871-.6434613.42897418c-1.0724354.21448709-.9651919.42897418-.9651919.42897418s.1072436.64346127 1.7158967 0c1.6086532-.64346127 2.1448709-.32173063 2.1448709-.32173063s.1072436.42897418-1.9303838.64346126c-2.0376273.21448709-3.9680111.10724355-3.9680111.10724355s-4.18249825-.42897438-2.5738451.21448709c1.6086532.64346146 2.8955757.42897417 2.8955757.42897417s.3217307.32173044-.9651919.53621773c-1.0724355.32173083-.7507047.9651917.2144871.64346126.9651918-.32173043 1.7158966-.85794815 3.4317934-.9651919 1.394166-.10724375.9651919.42897418.9651919.42897418s.1072434.42897438-1.2869226.10724374c-1.3941661-.32173063-2.5738449.75070481-2.788332 1.71589671.5362177-.25842583 1.0724353-.75070481 2.4666015-.53621792.7507046.42897438-.4289742.53621773-.4289742.53621773s-3.1100627-.25842564-3.6462805 4.07525472c.5362178-.3217305 1.179679-1.1796788 3.6462805-1.3941661 1.608653-.1072434 2.1448709-.9651919 2.1448709-.9651919s.5362178-.5362179.8579483.1072435c.3217305.6434615-.8579483.6434613-.8579483.6434613s-.8579485.0000002-1.6086532 1.0724354c-.7507047 1.0724353-1.7388242 1.0626149-1.9303839 1.1796792.1094529.0028065.2239236.0150788.343052.0341428zm6.4132913-5.61080728s-1.0724353.85794836.2144873 1.28692258c1.0724354.1072435 1.7158966-.75070486 1.7158966-.75070486s1.0724353-.9651919 2.4666015-.85794835c-.8579482.42897417-1.2869224.53621772-2.0376273 1.28692253-.7507049.75070478-1.2869228 1.07243548-2.3593581 1.17967898-1.0724354.1072436-1.8231402-.3217306-1.0724353-1.60865316-.8579484.21448709-3.0028193-.64346126-.1072436-2.14487089-1.9303838 2.25211444 1.1796789 1.60865317 1.1796789 1.60865317zm.7507049-2.34744203s1.5014096-.54813366 2.8955757-.11915949c-1.7158967 1.9303838-2.8955757.11915949-2.8955757.11915949zm9.1157013-.27266686s.3217306-.27546681.6434613-.70444099c.3217306-.42897417 1.2869225.6461202 1.2869225.6461202s-.1072436.53355879-.4289742.64080236-1.5014096-.58248157-1.5014096-.58248157z"/><path d="m9.65566394 14.3830126s.21448709-2.573845 1.28692256-3.6462805c1.0724354-1.0724354.2144871-1.0724354.2144871-1.0724354s-.5362178-.10724354-1.28692257.32173063c-.75070481.42897417-1.71589671.10724357-1.71589671.10724357s-2.57384507-.21448707-2.8955757 3.0028192c.64346126-.6434613 1.82314025-1.6086531 2.78833215-1.3941661.64346127.1072435-.85794835.8579484-.85794835.8579484s-2.68108861 1.394166-2.46660152 4.2897418c.64346127-1.2869226 1.0724354-1.6086532 1.71589671-1.8231403.6434613-.214487.21448709.5362177.21448709.5362177l-1.07243545 1.5014097s-1.17967895 1.3941657.32173063 3.6462805c-.10724358-.9651916-.1072435-2.4666019.42897418-2.6810886.53621768-.2144868.21448709 1.394166.21448709 1.394166s-.64346143 2.3593577 1.39416608 3.4317935c-.00000004.0000003-.3217306-.5362181-.32173064-1.2869226-.00000003-.7507044.42897418.4289742.42897418.4289742s.10724338.3217303.75070481.6434613-.10724354.7507048-.10724354.7507048-.96519186.6434609-1.71589671-.3217306c-.75070485-.9651916-1.60865317-1.9303838-1.60865317-1.9303838s-.42897419-.4289746-.9651919-.2144871c0 .0000003-.9651919-.4289746-1.28692253.2144871 0 .0000003.85794836-.2144875 1.07243544.214487 0 .0000004-.21448708.4289742 1.71589671 1.3941665 0 .0000003-2.14487088-1.179679-2.57384506-.321731-.42897418.1072439-.64346127.1072439-1.07243544.7507052 0 .0000003.85794835-.4289749 1.28692253-.321731 0 .0000003 0 .5362173 1.39416607.5362177.10724355.0000003 1.07084895.1072432 1.50140963.6434612 0 .0000004-1.28692254-.1072439-1.71589671-.3217306-.42897418-.2144867-1.07243545-.1072439-.9651919.4289742 0 .0000004-.85794836.1072432-.9651919 1.179679 0 .0000003.53621772-.8579487.9651919-.6434613 0 .0000004.21448709.6434609 1.17967898.3217306.9651919-.3217302 1.82314026.8579484 1.82314026.8579484s.32173063.4289738.9651919.2144871c.42897418.0000004.53621772.4289742.53621772.4289742s.32173063.7507044.9651919.6434612c0 .0000004.32173063.5362185 0 .9651923 0 0 .53621772-.643462.32173063-1.0724358 0 .0000004.75070481-.5362177-.32173063-1.6086528-.32173063-.9651919 1.07243544-1.6086532 1.17967894-1.3941661.1072436.2144871 1.6086532 1.3941654 4.2897418.857948 0 .0000004-5.68390783-1.1796789-6.22012555-5.8983949-.32173063-2.6810887 1.17967899-4.6114725 1.17967899-4.6114725z"/><path d="m13.2861809 13.4374215c.0135189-.0559632-.1822426.0375206-.4664408.1401229-.9870236.3563391-3.20381539 1.4976825-3.28708325 4.5785931-.10724354 3.9680111 4.82595945 5.6839078 4.82595945 5.6839078s4.2897418 2.0376274 2.1448709 2.8955757c-.3217306.1072436-.6434612.2144871-.6434612.5362177 0 0-.7507048.4289742-.3217307 1.5014097.0000001 0 .2144875-.9651919.6434613-.9651919 0 0 .7507052.3217306 1.2869225-.1072436-.0000004 0 .3217311-.1072435.4289742.1072436.1072432.214487.7507044.6434612.7507044.6434612s.5362185.3217307.6434617.7507048c.1072431.4289742.321731.9651919.9651919.6434613-.0000004 0 .6434617.3217306.4289742 1.179679-.0000004 0 .7507052-.6434613 0-1.5014096-.0000004 0 .5362181-.6434613-1.3941661-2.1448709-.0000004 0 1.6086536.5362177 1.9303838.8579483.3217302.3217307 1.0724358.4289742 1.2869225-.1072435-.0000004 0 .8579488.3217306.7507048.9651919-.0000004 0 .3217311-1.179679-.4289741-1.2869225-.0000004 0 .2144874-.9651919-1.0724355-.9651919s-1.2869225-.4289742-1.2869225-.4289742h1.6086531s1.0724359.2144871 1.2869226-.6434613c-.0000004 0 .5362173 0 1.072435.4289742-.0000004 0-.3217298-.8579484-1.072435-.8579484-.0000004 0-.4289738-.7507048-1.6086532-.1072435s-2.1448709.4289742-2.1448709.4289742-.8579479 0-1.3941661-.7507048c-.5362181-.7507048-.3217302-.9651919.4289742-.9651919s2.0376274-.4289742 2.0376274-.4289742 1.2869229-.4289742 2.6810886-1.3941661c-.0000004 0 1.6086535-.9651919 3.2173063-1.0724354 1.6086528-.1072436 2.2521144 0 2.2521144 0s1.7158972 0 1.9303838 1.7158967c.2144867 1.7158967-1.394166 1.8231402-1.394166 1.8231402s-.7507044-.7507048-1.2869226-1.7158967c-.5362181-.9651919-.4289737-.9651919-1.179679-1.179679-.0000004 0-.3217302-.4289741-1.1796789 0-.0000004 0 .9651923 0 .9651919.4289742-.0000004 0-.3217303.2144871.1072435.5362177.4289738.3217307.9651919.8579484.9651919.8579484s-1.072435-1.2869225-1.9303838-.6434613c-.0000004 0-.4289738-.3217306-.9651919.3217307-.0000004 0 .7507044-.2144871.9651915.1072435 0 0-.2144863.4289742 1.0724358.7507048 1.2869222.3217306 1.179679.7507048 1.179679.7507048s-.4289737-.1072435-1.2869225-.5362177-1.072435-.1072435-1.179679.1072435c-.0000004 0-.6434609 0-.8579483.7507048-.0000004 0 .4289745-.4289741.8579483-.3217306-.0000004 0-.1072431.5362177 1.179679.5362177-.0000004 0 .6434617 0 .9651919.8579484.3217302.8579483 1.0724354.7507048 1.0724354.7507048s.4289746.1072435.4289742.5362177.5362177.5362177.5362177.5362177.1072432.4289742-.2144874.7507049c-.0000004 0 .8579491-.2144871.5362181-.8579484-.0000004 0 .5362181-.5362177-.1072436-1.2869225-.4289745-.5362178.4289742-.8579484.4289742-.8579484s.6434617-.3217306.6434613.5362177c-.0000004.8579484-.3217307 2.1448709-.3217307 2.1448709s.9651915-1.6086531 1.1796786-2.8955757c.4289742-2.4666015-.7507044-4.1824982-.7507044-4.1824982s-.6434616-1.3941661-3.8607676-1.0724354c-3.2173059.3217306-6.3273691 1.8231402-6.3273691 1.8231402s2.8955761-2.7883321 7.8287787-2.5738451c-.0000004 0-3.1100623-.9651919-5.3621772 0-.0000004 0 3.3245503-1.8231402 6.3273691-.4289741 3.0028189 1.394166 3.2173064 4.2897417 3.2173064 4.2897417s.5362181 2.5738451-1.3941661 5.3621773c-1.9303842 2.7883321-2.2521148 3.0028192-2.2521148 3.0028192s-2.2521141 2.1448709-3.1100628 2.5738451c-.8579488.4289741-4.396985 2.0376273-8.9012138 1.179679-.0000004 0 .9651923.6434612 3.3245499.8579483-.0000004 0-5.4694208.2144871-8.3649965-2.8955757 0 0-1.5014096-1.5014096-1.5014096-1.5014096s-.1072436-.8579484 1.0724354.6434613c0 0 .4289742-3.539037-3.00281921-3.8607676l.96519189.9651919s.10724355.7507048-.75070481 0c-.85794835-.7507049-.85794835-1.179679-.85794835-1.179679s0-.8579484-1.71589671-1.179679c-1.71589671-.3217307-1.28692253-.9651919-1.28692253-.9651919s-.64346129 1.2869225.64346126 2.4666015c.85794835.7507048 1.28692253.9651919 1.28692253.9651919s1.07243546.8579484.21448709.8579484c-.85794836 0-1.17967898-.9651919-1.17967898-.9651919s.64346127 4.0752546 4.93320302 4.0752546c0 0-2.78833213-1.7158967-1.0724354-1.6086531 0 0-1.93038382-2.0376274-.64346129-1.5014096.10724353 0 .96519189 1.2869225.96519189 1.2869225s2.2521144 3.0028192 4.3969853 3.753524c0 0-1.7158967-.4289741-3.0028192-1.5014096 0 0 2.359358 2.4666015 5.4694207 3.3245499 3.1100628.8579484 6.1128821.2144871 6.1128821.2144871s-3.0028193-.6434613-.1072436-.7507048c2.8955757-.1072436 4.8259595-.9651919 4.8259595-.9651919s3.1100628-1.2869226 4.3969854-3.539037c-.0000001 0-.8579484.1072436.4289741-.8579483.5362177-.7507049 1.5014097-1.9303838 2.5738451-5.1476902.4289742-1.179679.4289742-1.8231402 1.179679-1.7158967.7507048.1072436.3217306 1.0724355.3217306 1.0724355s-.2144871.6434612.2144871.7507048c0 0 0 .6434612.5362177.7507048 0 0-.2144871-.5362177 0-.7507048s.4289742-.2144871.4289742-1.2869226c0-1.0724354-.1072435-.8579483.3217306-2.2521144.4289742-1.3941661.6434613-2.4666015.2144871-3.1100628-.4289742-.6434612.2144871-1.0724354.2144871-1.0724354s-.8579483.4289742-.6434612 1.0724354c-.0000001 0-.5362178.1072436-.3217307 1.0724355 0 0 .1072436.7507048-.2144871 1.179679-.3217306.4289741-.1072435-1.2869226-.1072435-1.2869226s.1072435-.5362177-.2144871-.9651919-.3217306-.9651919-.3217306-.9651919-.3217307.3217307-.1072436.9651919c0 0-.4289742.3217307-.1072435 1.179679.3217306.8579484 0 .9651919 0 .9651919s-.3217307 0-.2144871-.7507048c.1072435-.7507048-.2144871-1.3941661-.5362177-1.179679-.3217307.2144871-.2144871-.9651919-.2144871-.9651919s-.4289742.6434613-.2144871 1.0724355c0 0-.3217306.3217306.2144871 1.0724354 0 0 .3217306.4289742.1072435.9651919s.7507048.6434613.7507048.6434613.7507048.2144871.6434613.8579483c0 0-.7507048-.3217306-1.2869225-.7507048-.5362178-.4289742-.7507048-.4289742-.9651919-1.9303838s-.3217307-3.4317934-2.6810886-3.6462805c-.0000001 0 .2144871-.6434613 1.0724354-.3217306.8579483.3217306 1.3941661.9651919 1.5014096 1.5014096.1072436.5362177.6434613-2.4666015-1.7158967-3.0028193-2.359358-.5362177-3.6462805.3217307-3.6462805.3217307s-2.0376273 1.5014096-2.2521144.6434612c-.2144871-.8579483 1.8231402-1.1796789 1.8231402-1.1796789l1.6086532-.1072436s-2.5738451-1.8231402-5.1476901-.3217306c-2.1448709 1.2869225-2.359358 2.1448709-2.359358 2.1448709s-.7507048 1.2869225-1.179679.6434612c-.4289742-.6434612 1.6086532-1.9303838 1.6086532-1.9303838s-2.4666016-.9651919-4.5042289 1.6086532c-.7507048.9651919-.8579484 1.2869225-.8579484 1.2869225s-.4289741.6434613-1.0724354 0c-.6434613-.6434612 1.6086532-1.394166 1.6086532-1.394166s-1.7158967-.4289742-3.3245499.9651919c-1.6086532 1.394166-2.7883322-.6434613-2.7883322-.6434613s-.5362177-1.0724355-.4289741-2.359358c.1072435-1.2869225-1.0724355 1.5014096-.2144871 3.2173063.8579483 1.7158968 1.7158967 1.9303838 1.7158967 1.9303838s2.6810886 1.6086532 7.1853174-.214487c0 0-2.4666015 1.7158967-5.2549336 1.394166-2.7883322-.3217306-3.6462805-1.6086531-3.6462805-1.6086531s-1.2869226-1.179679-.9651919-3.3245499c.3217306-2.1448709 1.5014096-2.8955757 1.5014096-2.8955757"/><path d="m30.5198307 29.4357134s-3.0028193 0-4.3969853 2.6810886c0 0 2.3593579-1.3941661 2.3593579-.6434613s-1.2869225.6434613-1.2869225.6434613-1.9303838-.1072436-3.7535241 2.0376273c0 0 1.9303838-1.2869225 2.2521145-.6434612.3217306.6434612-2.8955757.8579483-2.8955757.8579483s-1.5014096 0-2.8955757.5362177c-1.3941661.5362178-2.5738451.2144871-2.5738451.2144871s3.8607676.9651919 6.7563433-.1072435c2.8955757-1.0724355 3.2173063-1.6086532 4.3969853-2.6810886 1.179679-1.0724355 2.0376274-2.8955757 2.0376274-2.8955757z"/></g></g></g></svg>