<svg height="48" viewBox="0 0 48 48" width="48" xmlns="http://www.w3.org/2000/svg" xmlns:xlink="http://www.w3.org/1999/xlink"><filter id="a" height="200%" width="200%" x="-50%" y="-50%"><feOffset dx="0" dy="1" in="SourceAlpha" result="shadowOffsetOuter1"/><feGaussianBlur in="shadowOffsetOuter1" result="shadowBlurOuter1" stdDeviation=".5"/><feColorMatrix in="shadowBlurOuter1" result="shadowMatrixOuter1" type="matrix" values="0 0 0 0 0   0 0 0 0 0   0 0 0 0 0  0 0 0 0.21 0"/><feMerge><feMergeNode in="shadowMatrixOuter1"/><feMergeNode in="SourceGraphic"/></feMerge></filter><g fill="none" fill-rule="evenodd"><path d="m42 43h-36c-.552 0-1-.448-1-1v-36c0-.552.448-1 1-1h36c.552 0 1 .448 1 1v36c0 .552-.448 1-1 1" fill="#019cf0" filter="url(#a)"/><g fill="#fff"><path d="m23.031 10.0395982c-1.529-.22699999-2.885.544-3.566 1.748-1.94 2.419-3.79 3.464-5.009 3.9-.883.316-1.456 1.164-1.456 2.101 0 1.214.984 2.197 2.197 2.197h3.769c.019 0 .034.016.034.034v14.252c0 1.913 1.431 3.641 3.341 3.725 2.005.088 3.659-1.511 3.659-3.497v-20.834c0-1.761-1.227-3.368-2.969-3.626"/><path d="m29 34c0 2.209 1.791 4 4 4s4-1.791 4-4-1.791-4-4-4-4 1.791-4 4z"/></g></g></svg>