<svg height="48" viewBox="0 0 48 48" width="48" xmlns="http://www.w3.org/2000/svg"><g transform="translate(0 -1004.3622)"><circle cx="24.034672" cy="1029.8772" opacity=".05" r="21"/><circle cx="24.034672" cy="1029.3585" opacity=".1" r="21"/><circle cx="24.034672" cy="1028.8632" opacity=".15" r="21"/><circle cx="24.034672" cy="1028.3678" fill="#97a600" r="21"/><path d="m25.766489 1008.4559c-1.991793-.174-3.998427-.048-5.952975.3726l-12.9947207 13.074-2.3201359 2.255c-.1460356.6885-.2556197 1.3843-.3282952 2.0844l12.3398488-10.1107c-.600547 2.169-6.5967753 6.9814-6.23488 8.0397l-5.3528656 10.1381c.021898.074.044223.1476.066974.2211 3.0588787 9.4241 12.5567177 15.188 22.3285357 13.5505l2.071467-11.4433 13.879235-13.6012c-.06678-.2703-.139206-.5392-.21722-.8066-2.471177-7.6469-9.279361-13.072-17.284968-13.7736z" fill="#de0f62"/><path d="m20.176757 1008.7923c-7.524552 1.4947-13.5695387 7.0973-15.4988561 14.5223-.2203964.7334-.4890105 2.2295-.5592912 2.9822zm12.273562 1.4236c-8.496952 17.1142-7.157512 31.0968-7.703986 38.1507 1.078578-.044 2.151851-.1746 3.209301-.3915l16.093227-18.5501c.337395-6.5465-2.663619-14.8444-11.598542-19.2091zm-12.032064 2.7773-4.488658 3.7444-11.8088365 12.3155c.052886 1.7527.3360546 3.4909.8422235 5.1698 6.426799-12.7626 15.455271-21.2297 15.455271-21.2297z" fill="#fe0"/></g></svg>