<svg height="48" viewBox="0 0 48 48" width="48" xmlns="http://www.w3.org/2000/svg"><g transform="translate(0 -1004.3622)"><rect height="38" opacity=".05" ry="1.033707" width="39" x="4.458157" y="1010.8536"/><rect height="38" opacity=".1" ry="1.033707" width="38" x="4.998749" y="1010.3428"/><rect height="38" opacity=".15" ry="1.033707" width="38" x="4.998749" y="1009.868"/><rect fill="#0076ff" height="38" ry="1.033707" width="38" x="4.998749" y="1009.3482"/><path d="m12.007812 1017.3626v17.0325h3v-14.0325h5.003906v14.0325h3v-17.0149h-.0039v-.018h-8-1-2zm16.010972.01v8.9877h-2.936345v13.035h3 3.994141 4.025887v-13.035h-4.025887 1.025887-2.083683v-4.0131h4.960785v-3h-4.960785v-1.9785h-3zm-12.005113 3.9902v12.0169c-.01048.236-.205576 3.0254-4.013671 3.0254.02613 1.3328.02734 2.9824.02734 2.9824s4.107669.4777 5.486328-2.9414c1.631388 3.4387 5.496094 2.9336 5.496094 2.9336s-.02613-1.6321 0-2.9649c-3.886637 0-3.993096-3.0185-3.996094-3.1504v-11.9016zm12.068768 8.0014h5.020028v7.0291h-5.020028z" fill="#fff"/></g></svg>