<svg height="48" viewBox="0 0 48 48" width="48" xmlns="http://www.w3.org/2000/svg"><g transform="translate(0 -1004.3622)"><path d="m19.99528 1008.8506v5.0336l-10.3158578.03.0307 4.9344-5.1425034-.022-.040208 9.0148h5.1827107v5.0161l10.3141425.023-.02899 17.0054h19.532133v-41.0351z" opacity=".05"/><path d="m20.022493 1008.3358v5.0336l-10.022013.03.02983 4.9344-4.9960195-.022-.039063 9.0148h5.0350815v5.0161l10.020346.023-.02816 17.0054h18.975764v-41.0351z" opacity=".1"/><path d="m20.022493 1007.8423v5.0336l-10.022013.03.02983 4.9344-4.9960195-.022-.039063 9.0148h5.0350815v5.0161l10.020346.023-.02816 17.0054h18.975764v-41.0351z" opacity=".15"/><path d="m20.022493 1007.3253v5.0336l-10.022013.03.02983 4.9344-4.9960195-.022-.039063 9.0148h5.0350815v5.0161l10.020346.023-.02816 17.0054h18.975764v-41.0352z"/><path d="m20 1012.3547.03373 5.0578-10-.01-.03373 8.9665h14.999361v2.991h9.000639v-3.7794-2.8346-5.6692-.9448-3.7795z" fill="#f00"/><path d="m25.032673 1029.3922h8.967327v13.976484h-8.967327z" fill="#fff"/></g></svg>