<svg height="48" viewBox="0 0 48 48" width="48" xmlns="http://www.w3.org/2000/svg" xmlns:xlink="http://www.w3.org/1999/xlink"><defs><rect id="a" height="40" rx="2" width="36" x="6" y="4"/><filter id="b" height="200%" width="200%" x="-50%" y="-50%"><feOffset dx="0" dy="1" in="SourceAlpha" result="shadowOffsetOuter1"/><feGaussianBlur in="shadowOffsetOuter1" result="shadowBlurOuter1" stdDeviation=".5"/><feColorMatrix in="shadowBlurOuter1" type="matrix" values="0 0 0 0 0   0 0 0 0 0   0 0 0 0 0  0 0 0 0.2 0"/></filter></defs><g fill="none" fill-rule="evenodd"><use fill="#000" filter="url(#b)" xlink:href="#a"/><use fill="#2d31c4" fill-rule="evenodd" xlink:href="#a"/><path d="m6 4h8v40h-8z" fill="#090a8a"/><path d="m20.9606207 17.7494377v.9071249h5.1058169v3.2656493h.9589605v-3.2656493h5.1576526v-.9071249h-5.1576526v-1.2699747h-.9589605v1.2699747zm9.5118517-1.4643586c.5442749 0 .9589606-.1036714 1.2181391-.3110142.2850963-.2332607.4924392-.9071248.5961106-1.9956746l-.881207-.2850964c-.0647946.8423302-.1943839 1.3606872-.3758089 1.5421122-.1425481.1295893-.3887677.1943839-.7256998.1943839h-1.9438389c-.3628499 0-.5442749-.1555071-.5442749-.4535624v-1.231098c1.4902765-.7127409 2.7861691-1.5421122 3.9006367-2.4881138l-.6349873-.6479463c-.8552892.7775356-1.9438389 1.5032354-3.2656494 2.1511817v-2.5529084h-.8941659v2.9675941c-.7386588.3239731-1.5421122.6349873-2.4233192.9200837l.5183571.7775356c.6479463-.2332607 1.2829337-.4665214 1.9049621-.7256999v1.0107962c0 .7516178.3887678 1.1274266 1.1663033 1.1274266zm-7.7235199-2.9546351v3.4081975h.9071249v-4.2894045c.5961105-.6479463 1.0755908-1.3477283 1.4643586-2.0863871l-.7904945-.3628499c-.7516177 1.3736462-1.93088 2.5788263-3.5507457 3.6414582l.2980553.9589605c.6090695-.4017267 1.1663033-.8293712 1.6717014-1.2699747zm-1.8272085 12.6435921v.8164124h3.0194297v.8941659h.9589605v-.8941659h3.330444v.9071248h.8034534v.5313159h-5.8444756v1.7364961h-1.1792622v-2.1770995h-.8034535v2.9546351h1.9827157v1.3088515h-2.5140316v.7775356h.7386588c-.0518357 1.5161943-.3369321 2.5529084-.8552892 3.1231011l.6479463.5053982c.5701928-.6868231.8941659-1.8920032.9460016-3.6284993h1.0367141v.1425482c-.0259178 1.4773175-.2591785 2.617703-.7256998 3.4470743l.6738641.6090695c.5701928-1.0237552.8682481-2.3714835.8941659-4.0561438v-3.9524725h5.0151044c.0518357 1.6846604.1814249 3.0583066.3887678 4.1209385.0777535.4406035.1814249.8423302.2980552 1.218139-.3628499.6090696-.7904944 1.1144677-1.2829336 1.5291533v-.531316h-1.1403855v-1.2310979h1.1274265v-2.462196h-1.1274265v-1.1274265h1.1403855v-.7516177h-3.6932939v6.3239559h3.3952386l-.2203018.1425481.4406035.699782c.6479463-.3887677 1.2181391-.9200837 1.7105783-1.5939479.1036714.2591786.2073428.4794803.336932.6868231.3887678.6220285.7645767.9460016 1.1015087.9460016.4146857 0 .7386588-.8034534.9589606-2.4103602l-.6738642-.3758089c-.1295893 1.1663034-.2850964 1.749455-.4406035 1.762414-.1295892 0-.3239731-.2591786-.5572338-.7516177-.0907125-.181425-.168466-.4017267-.2462196-.6609053.6090695-1.1663033 1.0107962-2.6565798 1.2181391-4.4967473l-.7904945-.168466c-.1295893 1.2829336-.3758089 2.3974013-.7386588 3.3563618-.0259179-.1295893-.0518357-.2721374-.0777536-.4276446-.1555071-.8812069-.2591785-2.1511817-.3110142-3.7969653h2.4362781v-.7904945h-.6479463c-.1295893-.4146856-.2721374-.7775355-.4017267-1.1015087l-.7904945.1295893c.1555071.2980553.2980553.6220284.4276446.9719194h-1.0367141v-.7256998h-.6609052v-.7127409h3.0194297v-.8164124h-3.0194297v-.8164123h-.9589606v.8164123h-3.330444v-.8293712h-.9589605v.8293712zm5.6500917 4.561542v1.1274265h-1.049673v-1.1274265zm-1.049673 1.8142496h2.1900585v1.0755909h-2.1900585zm0 1.7753729h1.049673v1.2310979h-1.049673z" fill="#fff"/></g></svg>