<svg height="48" viewBox="0 0 48 48" width="48" xmlns="http://www.w3.org/2000/svg" xmlns:xlink="http://www.w3.org/1999/xlink"><filter id="a" height="200%" width="200%" x="-50%" y="-50%"><feOffset dx="0" dy="1" in="SourceAlpha" result="shadowOffsetOuter1"/><feGaussianBlur in="shadowOffsetOuter1" result="shadowBlurOuter1" stdDeviation=".5"/><feColorMatrix in="shadowBlurOuter1" result="shadowMatrixOuter1" type="matrix" values="0 0 0 0 0   0 0 0 0 0   0 0 0 0 0  0 0 0 0.21 0"/><feMerge><feMergeNode in="shadowMatrixOuter1"/><feMergeNode in="SourceGraphic"/></feMerge></filter><g fill="none" fill-rule="evenodd"><rect fill="#fd313d" filter="url(#a)" height="38" rx="1" width="38" x="5" y="5"/><g fill="#fff"><path d="m11 17.7826087 2.0652174-2.0652174 3.7173913 2.4782609-1.6521739 9.0869565 6.6086956-6.6086957s3.7173913-2.8913043 4.1304348 0c0 2.8913044-.4130435 5.3695653-.4130435 5.3695653s0 1.6521739 2.8913044-1.652174c2.8913043-3.3043478 10.3260869-12.3913043 10.3260869-12.3913043s-7.173913 13-10.7391304 16.5217391c0 0-3.9347826 5.4782609-4.9565217 1.2391305v-6.1956522s.8260869-2.8913044-2.4782609.8260869c-3.3043478 3.7173914-5.7826087 6.1956522-5.7826087 6.1956522s-2.4782609 1.6521739-2.4782609-1.6521739.826087-9.0869565.826087-9.0869565z"/><text font-family="Helvetica" font-size="7"><tspan x="30" y="38">HD</tspan></text></g></g></svg>