<svg height="48" viewBox="0 0 48 48" width="48" xmlns="http://www.w3.org/2000/svg"><g transform="translate(0 -1004.3622)"><rect height="38" opacity=".05" ry="1.033707" width="39" x="4.45969" y="1010.8522"/><rect height="38" opacity=".1" ry="1.033707" width="38" x="5.000283" y="1010.3414"/><rect height="38" opacity=".15" ry="1.033707" width="38" x="5.000283" y="1009.8666"/><rect fill="#05bf01" height="38" ry="1.033707" width="38" x="5.000283" y="1009.3467"/><path d="m24.007812 1015.3468c-5.982798-.0002-10.009765.6348-10.009765.6348-2.98011.4053-4.998047 2.2294-4.998047 4.998v.055h2.496094c.502948-1.6 1.993105-2.6485 4.033203-2.9199 0 0 3.409503-.5276 8.476562-.5274s8.466797.5274 8.466797.5274c2.026461.3009 3.521894 1.3301 4.029297 2.9199h2.498047v-.055c0-2.7686-2.03364-4.5484-4.996094-4.998 0 0-4.013294-.6346-9.996094-.6348zm-1.007812 6.6016v13.0312h2.0625v-13.0312zm4 .031 3 7.9707v.01l-.0078.022h.0078v5h2v-4.998h.01172l-.0098-.027 2.998047-7.9746h-2l-2 5.3164-2-5.3164h-2zm-10.669922.01c-1.282912 0-2.316406 1.0315-2.316406 2.3144v8.3535c0 1.2829 1.033494 2.3145 2.316406 2.3145h2.453125c.07687 0 .149695-.016.224609-.024l.0059 1.0684s.0054.9118.982422.957v.01h2.003906v-.996h-1.482422s-.519531.033-.519531-.5078c0-.4617.0046-.5362.0098-.8594.654432-.408 1.091797-1.1278 1.091797-1.959v-8.3535c0-1.2829-1.033494-2.3144-2.316406-2.3144h-2.453125zm-7.330078.0351v2.9688h2.296875v-2.7383c0-.08.01733-.152.02148-.2305h-2.318359zm27.683594 0c.0042.078.02148.1501.02148.2305v12.4355c0 .125-.02316.2376-.0332.3575h2.328125v-13.0235h-2.316406zm-20.046875 1.9395h1.759765c.334907 0 .605469.2686.605469.6035v7.7969c0 .3349-.270562.6054-.605469.6054h-1.759765c-.334906 0-.603516-.2705-.603516-.6054v-7.7969c0-.3349.26861-.6035.603516-.6035zm-7.636719 2.0195v9.0645h2.330078c-.01-.12-.0332-.2322-.0332-.3575v-8.707h-2.296875zm.0039 10.0527c.02556 2.7374 2.024164 4.43 4.994141 4.9454 0 0 4.011526.4484 9.992187.5234 5.980662.075 10.013672-.5234 10.013672-.5234 2.948984-.4953 4.966391-2.2078 4.992188-4.9454h-2.533203c-.545229 1.508-2.014881 2.4723-3.990235 2.7969 0 0-3.415224.4957-8.480468.4336-5.065248-.062-8.462891-.4336-8.462891-.4336-1.98855-.3377-3.450469-1.2939-3.992188-2.7969z" fill="#fff"/></g></svg>