<svg height="48" viewBox="0 0 48 48" width="48" xmlns="http://www.w3.org/2000/svg" xmlns:xlink="http://www.w3.org/1999/xlink"><filter id="a" height="200%" width="200%" x="-50%" y="-50%"><feOffset dx="0" dy="1" in="SourceAlpha" result="shadowOffsetOuter1"/><feGaussianBlur in="shadowOffsetOuter1" result="shadowBlurOuter1" stdDeviation=".5"/><feColorMatrix in="shadowBlurOuter1" result="shadowMatrixOuter1" type="matrix" values="0 0 0 0 0   0 0 0 0 0   0 0 0 0 0  0 0 0 0.21 0"/><feMerge><feMergeNode in="shadowMatrixOuter1"/><feMergeNode in="SourceGraphic"/></feMerge></filter><g fill="none" fill-rule="evenodd" filter="url(#a)"><g transform="translate(0 2)"><path d="m6.78947368 15.2763158 21.50000002-3.3947369 1.1315789 23.1973685-10.1842105 7.9210526-9.95952683-7.8627843c-.43656627-.3446576-.82911423-1.0619899-.87815683-1.617806z" fill="#ffb210"/><path d="m6.78947368 15.2763158 11.88157892 5.0921053-6.6500096 6.6500096c-.3895008.3895007-1.1006009.497176-1.5849711.2422442l-8.99056481-4.7318762c-.48585462-.2557129-.57953639-.7904797-.20182674-1.2025265z" fill="#fbf083"/><path d="m24.357908 10.1419997c-1.1084878-1.11190322-3.6788916-3.74200841-4.5616305-5.08926211-.8290694-1.74985866 1.4336741-2.67175293 2.2106677-2.99249589s2.0455996-.79025429 2.6967548-1.60067588c.8753488 5.1007128-2.0721211 4.59317177-2.6967549 4.59317177.1613791.22860181.3641755.50678081.5946899.81752491 1.5207521 2.05004424 4.2478796 5.5174248 4.2478796 5.5174248l-.0273066-.0100996c.0692645.1058699.130601.2179937.1832112.3361581.6543494 1.4696928-.2890234 3.3173046-2.107082 4.1267565-1.8180586.8094518-3.8223413.2742208-4.4766907-1.195472s.2890233-3.3173046 2.1070819-4.1267565c.6080523-.2707223 1.2369352-.3910314 1.8291796-.3762741z" fill="#0095d2"/><path d="m28.2894737 11.8815789 11.3157895 3.3947369-10.7500001 15.8421053z" fill="#ff9026"/><path d="m39.6052632 15.2763158 2.296844 3.6749504c.2938725.4701961.0777806.8513654-.4673047.8513654h-2.9611183z" fill="#ffb20d"/><path d="m18.6710526 20.3684211 20.9342106-5.0921053v19.3722215c0 .5501858-.4254235 1.1498247-.941561 1.3362077l-19.4268601 7.015255z" fill="#fff29d"/><rect fill="#ff782c" height="17.403256" rx="21" width="4.416627" x="24.894737" y="20.368421"/><rect fill="#ff782c" height="13.715049" rx="21" transform="matrix(-.74314483 -.66913061 .66913061 -.74314483 36.91379 66.34508)" width="3.960526" x="29.210377" y="19.230077"/><path d="m14.7177835 9.91566973c-.8434372-.84603602-2.7992318-2.84725674-3.470899-3.8723686-.6308306-1.33144994 1.0908682-2.03291007 1.6820749-2.27696018.5912067-.2440501 1.5564763-.60129658 2.0519338-1.21793826.6660441 3.88108133-1.5766562 3.49489844-2.0519338 3.49489844.1227917.17394083.2770975.38560445.4524936.62204652 1.157125 1.55985815 3.232169 4.19815335 3.232169 4.19815335l-.0207773-.0076847c.0527027.0805554.099373.1658692.1394036.2557793.4978879 1.1182746-.219915 2.5241039-1.6032576 3.1400077s-2.9083813.2086519-3.4062692-.9096227c-.4978879-1.1182745.219915-2.5241038 1.6032576-3.1400077.4626609-.20598986.9411716-.29753186 1.3918044-.28630317z" fill="#0095d2" transform="matrix(.66913061 .74314483 -.74314483 .66913061 10.981366 -7.577324)"/><rect fill="#ff782c" height="10.67155" rx="21" transform="matrix(.51503807 -.8571673 .8571673 .51503807 -11.754998 42.42999)" width="3.960526" x="29.639615" y="26.267664"/></g></g></svg>