<svg height="48" viewBox="0 0 48 48" width="48" xmlns="http://www.w3.org/2000/svg" xmlns:xlink="http://www.w3.org/1999/xlink"><filter id="a" height="200%" width="200%" x="-50%" y="-50%"><feOffset dx="0" dy="1" in="SourceAlpha" result="shadowOffsetOuter1"/><feGaussianBlur in="shadowOffsetOuter1" result="shadowBlurOuter1" stdDeviation=".5"/><feColorMatrix in="shadowBlurOuter1" result="shadowMatrixOuter1" type="matrix" values="0 0 0 0 0   0 0 0 0 0   0 0 0 0 0  0 0 0 0.21 0"/><feMerge><feMergeNode in="shadowMatrixOuter1"/><feMergeNode in="SourceGraphic"/></feMerge></filter><g fill="none" fill-rule="evenodd"><circle cx="24" cy="24" fill="#008bba" filter="url(#a)" r="21"/><path d="m24.7402253 23.6711695c.7526388-.4308534 1.2597747-1.2417875 1.2597747-2.1711695 0-1.3807119-1.1192881-2.5-2.5-2.5s-2.5 1.1192881-2.5 2.5c0 .8714348.4458673 1.6387318 1.1219197 2.0862087l-8.9451504 18.3271905 1.4380538.6872115 2.7382642-5.5665074 14.4684676 4.0774259.9390668 1.8118685 1.4161476-.7312893zm3.2839289 10.1135213-9.724155 2.8153077 13.0641101 3.6289191zm-.6309888-1.2174521-6.606258-2.5136104.0477742-.0971183 4.1760445-1.9860334zm-2.644578-5.1025416-3.4578533 1.564722 2.0787008-4.2257073zm-4.2150746 3.1040468 7.0793514 2.7079854-9.8151034 2.8534151zm8.8732071-8.5687439c0-3.4433568-2.7243352-6.32278-6.2894694-6.6981864l-.1058544.9121393c3.0782949.3241425 5.4319174 2.8117494 5.4319174 5.7860471zm-6.3775727-8.9375947c4.895077.3414114 8.7108063 4.23535 8.7108063 8.9375947h.9634065c0-5.1839257-4.2062392-9.4763783-9.6038606-9.8528401zm12.9708528 8.9375947c0-6.9213154-5.6852364-12.62319488-12.9093393-13l-.0526748.91632279c6.7139329.35019491 11.9986077 5.65034011 11.9986077 12.08367721z" fill="#fff"/></g></svg>