<svg height="48" viewBox="0 0 48 48" width="48" xmlns="http://www.w3.org/2000/svg" xmlns:xlink="http://www.w3.org/1999/xlink"><filter id="a" height="200%" width="200%" x="-50%" y="-50%"><feOffset dx="0" dy="1" in="SourceAlpha" result="shadowOffsetOuter1"/><feGaussianBlur in="shadowOffsetOuter1" result="shadowBlurOuter1" stdDeviation=".5"/><feColorMatrix in="shadowBlurOuter1" result="shadowMatrixOuter1" type="matrix" values="0 0 0 0 0   0 0 0 0 0   0 0 0 0 0  0 0 0 0.21 0"/><feMerge><feMergeNode in="shadowMatrixOuter1"/><feMergeNode in="SourceGraphic"/></feMerge></filter><g fill="none" fill-rule="evenodd"><rect fill="#ef4d3b" filter="url(#a)" height="38" rx="1" width="38" x="5" y="5"/><g fill="#fff"><path d="m24 29c2.7614237 0 5-2.2385763 5-5s-2.2385763-5-5-5-5 2.2385763-5 5 2.2385763 5 5 5zm0-2.0698707c-1.6182657 0-2.9301293-1.3118636-2.9301293-2.9301293s1.3118636-2.9301293 2.9301293-2.9301293 2.9301293 1.3118636 2.9301293 2.9301293-1.3118636 2.9301293-2.9301293 2.9301293z"/><path d="m13 14.992017c0-1.1001606.9019504-1.992017 2.0085302-1.992017h9.9914698l-7.0822983 3.0985055c-.5068326.2217393-1.1327591.8047271-1.392262 1.291295l-3.5254397 6.6101995z"/><path d="m24.0177002 34.9885254c6.0590194 0 10.9708252-4.9118058 10.9708252-10.9708252 0-6.0590195-4.9118058-10.9708252-10.9708252-10.9708252-6.0590195 0-10.9708252 4.9118057-10.9708252 10.9708252 0 6.0590194 4.9118057 10.9708252 10.9708252 10.9708252zm0-2c-4.95445 0-8.9708252-4.0163753-8.9708252-8.9708252 0-4.95445 4.0163752-8.9708252 8.9708252-8.9708252 4.9544499 0 8.9708252 4.0163752 8.9708252 8.9708252 0 4.9544499-4.0163753 8.9708252-8.9708252 8.9708252z"/></g></g></svg>