<svg height="48" viewBox="0 0 48 48" width="48" xmlns="http://www.w3.org/2000/svg"><g transform="translate(0 -1004.3622)"><circle cx="24.030998" cy="1029.337904" opacity=".05" r="21.5"/><circle cx="24.017315" cy="1029.374804" opacity=".1" r="21"/><circle cx="24.017315" cy="1028.864404" opacity=".15" r="21"/><circle cx="24" cy="1028.3622" fill="#f93" r="21"/><g fill-rule="evenodd"><path d="m13.424688 1039.4873 1.19127-10.6298s-5.4065301-1.4661-3.894534-7.0101c1.511995-5.544 8.109794-2.4742 8.109794-2.4742s2.061812-3.9403 5.314894-3.2073c3.253081.7331 4.352715 3.4364 4.490169 5.0858.137454 1.6495 1.282905-1.5578 1.282905-1.5578s8.155613-2.7491 8.430521 3.6655c.274909 6.4145-6.368709 5.9105-6.368709 5.9105l-1.328723 10.4007z" fill="#fff"/><path d="m23.517578 10.773438c-2.17119 0-4.201991 1.275687-5.21289 3.117187-.80978-.3589-1.652224-.707106-2.058594-.753906-.22341-.026-.457406-.04102-.697266-.04102-1.67902-.0001-3.690852.687209-5.070312 2.849609l-.02734.04297-.02344.04687c-.8350591 1.6663-1.059404 3.158581-.833984 4.425782.22541 1.2672.887617 2.258862 1.623047 2.976562.92701.9046 1.826017 1.345781 2.492187 1.613281l-1.10196 9.434277c-.09104.759842.09284 1.538116 1.413205 1.537486l16.384685-.0065c.992349-.02371 1.142102-.469359 1.2003-.997095l1.013927-8.940834c3.28966.081 6.23588-2.338522 6.61914-5.607422.39942-3.4064-2.13978-6.402484-5.59375-6.708984-1.64623-.1461-3.223396.339812-4.472656 1.257812-.72108-2.4473-2.984217-4.246093-5.654299-4.246085zm0 1.908203c2.21362 0 3.990264 1.779206 3.990234 4.003906-.0031.22043-.08342.423788-.156263.537109l1.710938.88086c.78668-1.4949 2.478883-2.489919 4.345703-2.324219 2.41058.2138 4.088756 2.240872 3.822266 4.513672-.25106 2.1413-2.14691 3.746147-4.38086 3.748047l.179688-1.582032s-.04635-.810337-.925781-.835937c-.87944-.026-1.085938.835937-1.085938.835937l-.736328 6.579326-12.802135-.0329c-1.350503-.0253-1.362426 2.00947-.01172 2l12.585352.0329-.355468 2.96169-15.07385.023421 1.267209-10.353499-.824219-.232422s-1.425145-.426488-2.453125-1.429688c-.51398-.5016-.910651-1.108784-1.050781-1.896484-.13769-.7741-.0246-1.78004.632812-3.11914 1.18065-1.819101 2.536813-2.016941 3.820313-1.869141 1.10951.1277 2.653796 1.176371 3.25 1.826172 0 0 .118247-.928352.732422-2.167969s2.170011-2.099609 3.519531-2.099609z" fill="#351000" transform="translate(0 1004.3622)"/></g></g></svg>