<svg height="48" viewBox="0 0 48 48" width="48" xmlns="http://www.w3.org/2000/svg"><g transform="translate(0 -1004.3622)"><circle cx="24.030998" cy="1029.3447" opacity=".05" r="21.5"/><circle cx="24.017315" cy="1029.3816" opacity=".1" r="21"/><circle cx="24.017315" cy="1028.8712" opacity=".15" r="21"/><circle cx="24.017315" cy="1028.3844" r="21"/><path d="m45.017315 1028.3844a21 21 0 0 1 -7.494222 16.0809l-13.505778-16.0809z" fill="#fff" opacity=".314"/><path d="m-3-1028.3622a21 21 0 0 1 -7.494222 16.0809l-13.505778-16.0809z" fill="#fff" opacity=".314" transform="scale(-1)"/><path d="m32.871094 8.1835938c-.318417.016171-.536525.207146-.640625.4472656l-.003907-.0019532-.046874.1269532c-.000142.0005891.00014.0013636 0 .0019531l-4.773438 13.1523435a4 4 0 0 0 -3.40625-1.910156 4 4 0 0 0 -4 4 4 4 0 0 0 4 4 4 4 0 0 0 3.835938-2.875l5.458984-15.041016c1.577507 1.054682 2.969846 2.351322 4.101562 3.853516.601548.7994 1.800645-.102844 1.199219-.902344-1.428563-1.8963-3.223887-3.5152872-5.294922-4.7421872-.128932-.079-.278706-.117075-.429687-.109375z" fill="#f5332e" transform="translate(0 1004.3622)"/><path d="m22.376953 1010.1777c-8.470069.7431-15.5487158 7.3568-16.5585936 16.1289-1.1541311 10.0254 6.0508616 19.1056 16.0761716 20.2598 10.025312 1.1542 19.105577-6.0528 20.259766-16.0781.440551-3.8267-.335497-7.5194-2.021485-10.6817-.470032-.8829-1.794398-.1777-1.324218.7051 1.548024 2.9035 2.26063 6.2874 1.855468 9.8067-1.061471 9.2199-9.377681 15.8192-18.597656 14.7578-9.219973-1.0615-15.8192324-9.3796-14.7578122-18.5996 1.0614314-9.22 9.3776462-15.8193 18.5976562-14.7578 1.487275.1712 2.905756.5324 4.234375 1.0546.930933.3659 1.479761-1.0305.548828-1.3964-1.448307-.5694-2.994157-.9623-4.611328-1.1485-1.253169-.1443-2.491162-.1569-3.701172-.051z" fill="#fff"/></g></svg>