<svg height="48" viewBox="0 0 48 48" width="48" xmlns="http://www.w3.org/2000/svg" xmlns:xlink="http://www.w3.org/1999/xlink"><filter id="a" height="200%" width="200%" x="-50%" y="-50%"><feOffset dx="0" dy="1" in="SourceAlpha" result="shadowOffsetOuter1"/><feGaussianBlur in="shadowOffsetOuter1" result="shadowBlurOuter1" stdDeviation=".5"/><feColorMatrix in="shadowBlurOuter1" result="shadowMatrixOuter1" type="matrix" values="0 0 0 0 0   0 0 0 0 0   0 0 0 0 0  0 0 0 0.21 0"/><feMerge><feMergeNode in="shadowMatrixOuter1"/><feMergeNode in="SourceGraphic"/></feMerge></filter><g fill="none" fill-rule="evenodd" transform="translate(5 5)"><path d="m1 38c-.552 0-1-.448-1-1v-36c0-.552.448-1 1-1h36c.552 0 1 .448 1 1v36c0 .552-.448 1-1 1z" fill="#1a8efc" filter="url(#a)"/><path d="m18.3477035 27.4759291c-1.2966008-1.4361807-3.3976386-1.4374739-4.695407 0l-1.3322351 1.475651c-1.2966008 1.4361807-2.2677819 1.0356811-2.1689952-.8984272l.1014104-1.9854753c.0986978-1.9323684-1.3860458-3.4189409-3.32015417-3.3201542l-1.98547531.1014104c-1.93236835.0986979-2.33590114-.8712268-.89842723-2.1689952l1.47565101-1.3322351c1.43618069-1.2966008 1.43747391-3.3976386 0-4.695407l-1.47565101-1.3322351c-1.43618069-1.2966008-1.03568114-2.2677819.89842723-2.1689952l1.98547531.1014104c1.93236835.0986978 3.41894087-1.3860458 3.32015417-3.32015417l-.1014104-1.98547531c-.0986979-1.93236835.8712268-2.33590114 2.1689952-.89842723l1.3322351 1.47565101c1.2966008 1.43618069 3.3976386 1.43747391 4.695407 0l1.3322351-1.47565101c1.2966008-1.43618069 2.2677819-1.03568114 2.1689952.89842723l-.1014104 1.98547531c-.0986978 1.93236835 1.3860458 3.41894087 3.3201542 3.32015417l1.9854753-.1014104c1.9323683-.0986979 2.3359011.8712268.8984272 2.1689952l-1.475651 1.3322351c-1.4361807 1.2966008-1.4374739 3.3976386 0 4.695407l1.475651 1.3322351c1.4361807 1.2966008 1.0356811 2.2677819-.8984272 2.1689952l-1.9854753-.1014104c-1.9323684-.0986978-3.4189409 1.3860458-3.3201542 3.3201542l.1014104 1.9854753c.0986979 1.9323683-.8712268 2.3359011-2.1689952.8984272zm-2.3477035-2.4759291c4.418278 0 8-3.581722 8-8s-3.581722-8-8-8-8 3.581722-8 8 3.581722 8 8 8z" fill="#ffd000"/><circle cx="16" cy="17" fill="#ffd000" r="6"/><path d="m12 32.9775785c-2.80325001-.2526144-5-2.6085572-5-5.4775785 0-3.0375661 2.46243388-5.5 5.5-5.5.6259995 0 1.2275723.104583 1.7881994.2972299.9703627-3.6265827 4.2792001-6.2972299 8.2118006-6.2972299 4.5353782 0 8.2411214 3.5520893 8.4870094 8.0260474 2.2562262.2428015 4.0129906 2.1532199 4.0129906 4.4739526 0 2.3162768-1.7500248 4.2238135-4 4.4725356v.0274644h-19z" fill="#fff"/></g></svg>