<svg height="48" viewBox="0 0 48 48" width="48" xmlns="http://www.w3.org/2000/svg" xmlns:xlink="http://www.w3.org/1999/xlink"><filter id="a" height="200%" width="200%" x="-50%" y="-50%"><feOffset dx="0" dy="1" in="SourceAlpha" result="shadowOffsetOuter1"/><feGaussianBlur in="shadowOffsetOuter1" result="shadowBlurOuter1" stdDeviation=".5"/><feColorMatrix in="shadowBlurOuter1" result="shadowMatrixOuter1" type="matrix" values="0 0 0 0 0   0 0 0 0 0   0 0 0 0 0  0 0 0 0.21 0"/><feMerge><feMergeNode in="shadowMatrixOuter1"/><feMergeNode in="SourceGraphic"/></feMerge></filter><g fill="none" fill-rule="evenodd"><path d="m42 43h-36c-.552 0-1-.448-1-1v-36c0-.552.448-1 1-1h36c.552 0 1 .448 1 1v36c0 .552-.448 1-1 1" fill="#1278ef" filter="url(#a)"/><g fill="#f8f9f9"><path d="m36.3062 23.183c-.609-.16-1.099-.604-1.243-1.216-1.069-4.565-5.59-7.994-11.011-7.994-5.439 0-9.974 3.451-11.024 8.038-.131.573-.593.991-1.164 1.134-2.167.542-3.775 2.487-3.78 4.821-.006 2.646 2.198 4.926 4.843 5.008.285.009.565-.006.838-.044.741-.102 1.291-.742 1.291-1.489v-7.626c.135-4.332 4.113-7.61 8.996-7.61 4.922 0 8.928 3.33 9.002 7.713v7.607c0 .713.525 1.313 1.23 1.42.292.044.592.062.899.053 2.645-.083 4.849-2.364 4.842-5.01-.005-2.312-1.583-4.242-3.719-4.805"/><path d="m22.052 29.9769h-2.035c-1.094 0-1.984-.907-1.984-2 0-1.094.89-2 1.984-2h2.035zm.991-10h-.991v4h-2.035c-2.2 0-3.984 1.8-3.984 4s1.784 4 3.984 4h4.035v-10.991c0-.557-.452-1.009-1.009-1.009z"/><path d="m31.0408 23.9769h-.989v6h-3v-4.99c0-.558-.452-1.01-1.009-1.01h-.991v5.963c0 1.125.912 2.037 2.037 2.037h3.997c.534 0 .966-.433.966-.966v-6.023c0-.558-.453-1.011-1.011-1.011"/></g></g></svg>