<svg height="48" viewBox="0 0 48 48" width="48" xmlns="http://www.w3.org/2000/svg"><g transform="translate(0 -1004.3622)"><path d="m5.0058594 1011.9597c.027417.027.058498.059.085937.086l2.3359375 10.4336 10.5195311 8.9531-4.857421 5.7265-.08984-.09-1.519532 1.5195-.07617-1.4863.810547-.8183-.113282-1.7383-1.414062-1.4101-1.7500005-.1094h-.00195l-.8007813.8008-.8066406.8086h-.00195l-.4042969.4062.6347656 3.0684c.5124338.5129 1.8428897 1.8429 3.1406257 3.1406a2.1205234 7.0903282 45 0 0 -.9863288 1.1777 2.1205235 7.0903282 45 0 0 -.042969.057 2.1205234 7.0903282 45 0 0 -.3300782.4375 2.1205235 7.0903282 45 0 0 -.00781.012 2.1205234 7.0903282 45 0 0 -1.1542969 1.9219 2.1205235 7.0903282 45 0 0 -.00391.01 2.1205234 7.0903282 45 0 0 -.2011719.5019 2.2921989 2.2921989 0 0 0 -2.2753906.5742 2.2921989 2.2921989 0 0 0 0 3.2422 2.2921989 2.2921989 0 0 0 3.2402344 0 2.2921989 2.2921989 0 0 0 .5859375-2.2441 2.1205234 7.0903282 45 0 0 .1757812-.062 2.1205235 7.0903282 45 0 0 .1191406-.049 2.1205234 7.0903282 45 0 0 .3066407-.1329 2.1205235 7.0903282 45 0 0 .177734-.088 2.1205234 7.0903282 45 0 0 .228516-.1172h.002a2.1205234 7.0903282 45 0 0 1.710938-1.1172 2.1205235 7.0903282 45 0 0 .05273-.041 2.1205234 7.0903282 45 0 0 .345703-.2696 2.1205235 7.0903282 45 0 0 .292969-.2343 2.1205234 7.0903282 45 0 0 .716797-.6231c1.247411 1.2472 2.850652 2.8506 3.166015 3.166l3.064453.6387.990235-.9902 1.044922-1.0196-.113282-1.748-1.425781-1.4238-1.714844-.1-.833984.8028-1.464844-.098 1.498047-1.5-.05469-.055 6.205078-5.2812 6.191406 5.2676-.05469.055 1.5 1.5-1.464844.098-.835938-.8027-1.714844.098-1.425781 1.4258-.113281 1.7461 1.044922 1.0195.990234.9922 3.064453-.6386c.31533-.3154 1.918788-1.919 3.166016-3.1661a7.0903282 2.1205234 45 0 0 .732422.6348 7.0903282 2.1205235 45 0 0 .232422.1875 7.0903282 2.1205234 45 0 0 .425781.332 7.0903282 2.1205235 45 0 0 .04687.033 7.0903282 2.1205234 45 0 0 .486328.3516 7.0903282 2.1205234 45 0 0 1.416016.8555 7.0903282 2.1205235 45 0 0 .207031.1035 7.0903282 2.1205234 45 0 0 .255859.1113 7.0903282 2.1205235 45 0 0 .15625.065 7.0903282 2.1205234 45 0 0 .171875.06 2.2921989 2.2921989 0 0 0 .583985 2.2442 2.2921989 2.2921989 0 0 0 3.242187 0 2.2921989 2.2921989 0 0 0 0-3.2422 2.2921989 2.2921989 0 0 0 -2.27539-.5743 7.0903282 2.1205234 45 0 0 -1.359375-2.4316 7.0903282 2.1205235 45 0 0 -.01563-.019 7.0903282 2.1205234 45 0 0 -.355469-.4727 7.0903282 2.1205235 45 0 0 -.0039 0 7.0903282 2.1205234 45 0 0 -.994141-1.1894c1.297562-1.2976 2.628245-2.6278 3.140625-3.1407l.636719-3.0683-.408203-.4082-.806641-.8086-.800781-.8008-1.751953.1113-1.41211 1.4121-.115234 1.7383.810547.8184-.07617 1.4863-1.519531-1.5195-.0918.092-4.84375-5.709 10.507812-8.9414 2.337891-10.4336c.02744-.027.05852-.059.08594-.086l-.07031.016.002-.012-.113281.037-10.44336 2.4062-8.371093 9.8652-8.38086-9.8789-10.4414059-2.4082-.1132812-.037.00195.012-.070312-.016z" opacity=".05"/><path d="m5.0058594 1011.4492c.027417.027.058498.059.085937.086l2.3359375 10.4336 10.5195311 8.9531-4.857421 5.7265-.08984-.09-1.519532 1.5195-.07617-1.4863.810547-.8183-.113282-1.7383-1.414062-1.4101-1.7500005-.1094h-.00195l-.8007813.8008-.8066406.8086h-.00195l-.4042969.4062.6347656 3.0684c.5124338.5129 1.8428897 1.8429 3.1406257 3.1406a2.1205234 7.0903282 45 0 0 -.9863288 1.1777 2.1205235 7.0903282 45 0 0 -.042969.057 2.1205234 7.0903282 45 0 0 -.3300782.4375 2.1205235 7.0903282 45 0 0 -.00781.012 2.1205234 7.0903282 45 0 0 -1.1542969 1.9219 2.1205235 7.0903282 45 0 0 -.00391.01 2.1205234 7.0903282 45 0 0 -.2011719.5019 2.2921989 2.2921989 0 0 0 -2.2753906.5742 2.2921989 2.2921989 0 0 0 0 3.2422 2.2921989 2.2921989 0 0 0 3.2402344 0 2.2921989 2.2921989 0 0 0 .5859375-2.2441 2.1205234 7.0903282 45 0 0 .1757812-.062 2.1205235 7.0903282 45 0 0 .1191406-.049 2.1205234 7.0903282 45 0 0 .3066407-.1329 2.1205235 7.0903282 45 0 0 .177734-.088 2.1205234 7.0903282 45 0 0 .228516-.1172h.002a2.1205234 7.0903282 45 0 0 1.710938-1.1172 2.1205235 7.0903282 45 0 0 .05273-.041 2.1205234 7.0903282 45 0 0 .345703-.2696 2.1205235 7.0903282 45 0 0 .292969-.2343 2.1205234 7.0903282 45 0 0 .716797-.6231c1.247411 1.2472 2.850652 2.8506 3.166015 3.166l3.064453.6387.990235-.9902 1.044922-1.0196-.113282-1.748-1.425781-1.4238-1.714844-.1-.833984.8028-1.464844-.098 1.498047-1.5-.05469-.055 6.205078-5.2812 6.191406 5.2676-.05469.055 1.5 1.5-1.464844.098-.835938-.8027-1.714844.098-1.425781 1.4258-.113281 1.7461 1.044922 1.0195.990234.9922 3.064453-.6386c.31533-.3154 1.918788-1.919 3.166016-3.1661a7.0903282 2.1205234 45 0 0 .732422.6348 7.0903282 2.1205235 45 0 0 .232422.1875 7.0903282 2.1205234 45 0 0 .425781.332 7.0903282 2.1205235 45 0 0 .04687.033 7.0903282 2.1205234 45 0 0 .486328.3516 7.0903282 2.1205234 45 0 0 1.416016.8555 7.0903282 2.1205235 45 0 0 .207031.1035 7.0903282 2.1205234 45 0 0 .255859.1113 7.0903282 2.1205235 45 0 0 .15625.065 7.0903282 2.1205234 45 0 0 .171875.06 2.2921989 2.2921989 0 0 0 .583985 2.2442 2.2921989 2.2921989 0 0 0 3.242187 0 2.2921989 2.2921989 0 0 0 0-3.2422 2.2921989 2.2921989 0 0 0 -2.27539-.5743 7.0903282 2.1205234 45 0 0 -1.359375-2.4316 7.0903282 2.1205235 45 0 0 -.01563-.019 7.0903282 2.1205234 45 0 0 -.355469-.4727 7.0903282 2.1205235 45 0 0 -.0039 0 7.0903282 2.1205234 45 0 0 -.994141-1.1894c1.297562-1.2976 2.628245-2.6278 3.140625-3.1407l.636719-3.0683-.408203-.4082-.806641-.8086-.800781-.8008-1.751953.1113-1.41211 1.4121-.115234 1.7383.810547.8184-.07617 1.4863-1.519531-1.5195-.0918.092-4.84375-5.709 10.507812-8.9414 2.337891-10.4336c.02744-.027.05852-.059.08594-.086l-.07031.016.002-.012-.113281.037-10.44336 2.4062-8.371093 9.8652-8.38086-9.8789-10.4414059-2.4082-.1132812-.037.00195.012-.070312-.016z" opacity=".1"/><path d="m5.0058594 1010.9387c.027417.027.058498.059.085937.086l2.3359375 10.4336 10.5195311 8.9531-4.857421 5.7265-.08984-.09-1.519532 1.5195-.07617-1.4863.810547-.8183-.113282-1.7383-1.414062-1.4101-1.7500005-.1094h-.00195l-.8007813.8008-.8066406.8086h-.00195l-.4042969.4062.6347656 3.0684c.5124338.5129 1.8428897 1.8429 3.1406257 3.1406a2.1205234 7.0903282 45 0 0 -.9863288 1.1777 2.1205235 7.0903282 45 0 0 -.042969.057 2.1205234 7.0903282 45 0 0 -.3300782.4375 2.1205235 7.0903282 45 0 0 -.00781.012 2.1205234 7.0903282 45 0 0 -1.1542969 1.9219 2.1205235 7.0903282 45 0 0 -.00391.01 2.1205234 7.0903282 45 0 0 -.2011719.5019 2.2921989 2.2921989 0 0 0 -2.2753906.5742 2.2921989 2.2921989 0 0 0 0 3.2422 2.2921989 2.2921989 0 0 0 3.2402344 0 2.2921989 2.2921989 0 0 0 .5859375-2.2441 2.1205234 7.0903282 45 0 0 .1757812-.062 2.1205235 7.0903282 45 0 0 .1191406-.049 2.1205234 7.0903282 45 0 0 .3066407-.1329 2.1205235 7.0903282 45 0 0 .177734-.088 2.1205234 7.0903282 45 0 0 .228516-.1172h.002a2.1205234 7.0903282 45 0 0 1.710938-1.1172 2.1205235 7.0903282 45 0 0 .05273-.041 2.1205234 7.0903282 45 0 0 .345703-.2696 2.1205235 7.0903282 45 0 0 .292969-.2343 2.1205234 7.0903282 45 0 0 .716797-.6231c1.247411 1.2472 2.850652 2.8506 3.166015 3.166l3.064453.6387.990235-.9902 1.044922-1.0196-.113282-1.748-1.425781-1.4238-1.714844-.1-.833984.8028-1.464844-.098 1.498047-1.5-.05469-.055 6.205078-5.2812 6.191406 5.2676-.05469.055 1.5 1.5-1.464844.098-.835938-.8027-1.714844.098-1.425781 1.4258-.113281 1.7461 1.044922 1.0195.990234.9922 3.064453-.6386c.31533-.3154 1.918788-1.919 3.166016-3.1661a7.0903282 2.1205234 45 0 0 .732422.6348 7.0903282 2.1205235 45 0 0 .232422.1875 7.0903282 2.1205234 45 0 0 .425781.332 7.0903282 2.1205235 45 0 0 .04687.033 7.0903282 2.1205234 45 0 0 .486328.3516 7.0903282 2.1205234 45 0 0 1.416016.8555 7.0903282 2.1205235 45 0 0 .207031.1035 7.0903282 2.1205234 45 0 0 .255859.1113 7.0903282 2.1205235 45 0 0 .15625.065 7.0903282 2.1205234 45 0 0 .171875.06 2.2921989 2.2921989 0 0 0 .583985 2.2442 2.2921989 2.2921989 0 0 0 3.242187 0 2.2921989 2.2921989 0 0 0 0-3.2422 2.2921989 2.2921989 0 0 0 -2.27539-.5743 7.0903282 2.1205234 45 0 0 -1.359375-2.4316 7.0903282 2.1205235 45 0 0 -.01563-.019 7.0903282 2.1205234 45 0 0 -.355469-.4727 7.0903282 2.1205235 45 0 0 -.0039 0 7.0903282 2.1205234 45 0 0 -.994141-1.1894c1.297562-1.2976 2.628245-2.6278 3.140625-3.1407l.636719-3.0683-.408203-.4082-.806641-.8086-.800781-.8008-1.751953.1113-1.41211 1.4121-.115234 1.7383.810547.8184-.07617 1.4863-1.519531-1.5195-.0918.092-4.84375-5.709 10.507812-8.9414 2.337891-10.4336c.02744-.027.05852-.059.08594-.086l-.07031.016.002-.012-.113281.037-10.44336 2.4062-8.371093 9.8652-8.38086-9.8789-10.4414059-2.4082-.1132812-.037.00195.012-.070312-.016z" opacity=".15"/><g transform="matrix(.81041467 -.81041467 .81041467 .81041467 -827.54265 215.14178)"><ellipse cx="22.981594" cy="1041.3158" fill="#dba05d" rx="1.850209" ry="6.186486"/><path d="m19.07228 1012.272 3.917921-7.8599 5.035111 7.9404-2.381612 29.6027-5.236188.012z" fill="#d6d7d9"/><g fill="#a05a2c" fill-rule="evenodd" transform="translate(.000082 1004.362155)"><path d="m24.828125 36.585938-3.613281 2.183593a1.850209 6.1864862 0 0 0 .138672 1.113281l3.458984-2.08789a1.850209 6.1864862 0 0 0 .01953-.841797 1.850209 6.1864862 0 0 0 -.0039-.367187z"/><path d="m24.744141 38.826172-3.216797 1.945312a1.850209 6.1864862 0 0 0 .302734 1.015625l2.736328-1.652343a1.850209 6.1864862 0 0 0 .177735-1.308594z"/><path d="m24.287109 41.333984-2.068359 1.25a1.850209 6.1864862 0 0 0 .763672.556641 1.850209 6.1864862 0 0 0 1.304687-1.806641z"/></g><circle cx="22.965353" cy="1048.3419" fill="#bb891d" r="2"/><path d="m23.030046.00535734-5.044406 8.06578056 2.422563 29.5343311 2.636719-.0059c-.080523-11.870657-.024951-25.575049-.014876-37.59421166z" fill="#a4a5aa" transform="translate(0 1004.3622)"/><path d="m20 1038.3622h6v3h-6z" fill="#d4aa00"/><path d="m23 34v3h3v-3z" fill="#f3d056" transform="translate(0 1004.3622)"/><path d="m26.878034 1012.8368-1.602562 25.0252-1.548716-.04.232165-29.7299s2.141956 3.4678 2.919113 4.7447z" fill="#efefef" opacity=".7328"/><path d="m16.145439 1037.3606-1.149798 1.0117v.9883.998h.0023v.502l2.286149 1.502c1.865194.0009 10.288417 0 11.426545 0l2.28397-1.4961v-1.2227l.01563-1.2734-1.147565-1.0078h-1.759084l-1.118542.998-.0201 1.0098-1.13528.9938-5.668054.018-1.125135-1.0142-.0045-1.0058-1.143101-1.002z" fill="#d4aa00"/><path d="m16.144531 32.998047-1.148437 1.011719v.988281.998047h.002v.501953l2.285109 1.501953c.930844.000449 3.226234.000112 5.703125 0v-1.988281l-2.824219.0078-1.125-1.013672-.005859-1.005847-1.142578-1.001953z" fill="#bb891d" transform="translate(0 1004.3622)"/><circle cx="23.384214" cy="1048.1864" fill="#d4aa00" r="1.23726"/></g><g transform="matrix(-.81041466 -.81041466 -.81041466 .81041466 875.49389 215.08993)"><ellipse cx="22.981594" cy="1041.3158" fill="#dba05d" rx="1.850209" ry="6.186486"/><path d="m19.07228 1012.272 3.917921-7.8599 5.035111 7.9404-2.381612 29.6027-5.236188.012z" fill="#d6d7d9"/><g fill="#a05a2c" fill-rule="evenodd" transform="translate(.000082 1004.362155)"><path d="m24.828125 36.585938-3.613281 2.183593a1.850209 6.1864862 0 0 0 .138672 1.113281l3.458984-2.08789a1.850209 6.1864862 0 0 0 .01953-.841797 1.850209 6.1864862 0 0 0 -.0039-.367187z"/><path d="m24.744141 38.826172-3.216797 1.945312a1.850209 6.1864862 0 0 0 .302734 1.015625l2.736328-1.652343a1.850209 6.1864862 0 0 0 .177735-1.308594z"/><path d="m24.287109 41.333984-2.068359 1.25a1.850209 6.1864862 0 0 0 .763672.556641 1.850209 6.1864862 0 0 0 1.304687-1.806641z"/></g><circle cx="22.965353" cy="1048.3419" fill="#bb891d" r="2"/><path d="m23.030046.00535734-5.044406 8.06578056 2.422563 29.5343311 2.636719-.0059c-.080523-11.870657-.024951-25.575049-.014876-37.59421166z" fill="#a4a5aa" transform="translate(0 1004.3622)"/><path d="m20 1038.3622h6v3h-6z" fill="#d4aa00"/><path d="m23 34v3h3v-3z" fill="#f3d056" transform="translate(0 1004.3622)"/><path d="m26.878034 1012.8368-1.602562 25.0252-1.548716-.04.232165-29.7299s2.141956 3.4678 2.919113 4.7447z" fill="#eee" opacity=".7328"/><path d="m16.145439 1037.3606-1.149798 1.0117v.9883.998h.0023v.502l2.286149 1.502c1.865194.0009 10.288417 0 11.426545 0l2.28397-1.4961v-1.2227l.01563-1.2734-1.147565-1.0078h-1.759084l-1.118542.998-.0201 1.0098-1.13528.9938-5.668054.018-1.125135-1.0142-.0045-1.0058-1.143101-1.002z" fill="#d4aa00"/><path d="m16.144531 32.998047-1.148437 1.011719v.988281.998047h.002v.501953l2.285109 1.501953c.930844.000449 3.226234.000112 5.703125 0v-1.988281l-2.824219.0078-1.125-1.013672-.005859-1.005847-1.142578-1.001953z" fill="#bb891d" transform="translate(0 1004.3622)"/><circle cx="23.384214" cy="1048.1864" fill="#d4aa00" r="1.23726"/></g></g></svg>