<svg height="48" viewBox="0 0 48 48" width="48" xmlns="http://www.w3.org/2000/svg" xmlns:xlink="http://www.w3.org/1999/xlink"><filter id="a" height="200%" width="200%" x="-50%" y="-50%"><feOffset dx="0" dy="1" in="SourceAlpha" result="shadowOffsetOuter1"/><feGaussianBlur in="shadowOffsetOuter1" result="shadowBlurOuter1" stdDeviation=".5"/><feColorMatrix in="shadowBlurOuter1" result="shadowMatrixOuter1" type="matrix" values="0 0 0 0 0   0 0 0 0 0   0 0 0 0 0  0 0 0 0.21 0"/><feMerge><feMergeNode in="shadowMatrixOuter1"/><feMergeNode in="SourceGraphic"/></feMerge></filter><g fill="none" fill-rule="evenodd"><path d="m32 30.5-7 3.5.0000001-10h-1.0000001v10.5l-8 4v-19.3235104l9.5851864-4.8838964c.0464418.0232209.0928835.0464418.1393253.0696627.0054598.0027298.1676437.0838218.4581543.2290771 2.9211713 1.4605857 18.817334 9.408667 18.817334 9.408667l-12 6v-6h-1zm-8.9988041-17.499402c-.1831542-.0915771-.3663083-.1831542-.5494625-.2747313-.8713949-.4356974-2.5803385.2098307-3.4517334-.2258667-.7349854-.3674927-.6324219-1.8162109-1.3674072-2.1837036l-1.6325928-.8162964v6.7943225zm-9.0011959 26.499402-7 3.5v-38l7 3.5z" fill="#12bff5" filter="url(#a)"/><path d="m16 9.5v7l7.2381872-3.3809064z" fill="#fe6787"/></g></svg>