<svg height="48" viewBox="0 0 48 48" width="48" xmlns="http://www.w3.org/2000/svg"><g transform="translate(0 -1004.3622)"><path d="m29.401995 1007.3316-25.9999997 5.5312v32.2487l25.9999997 5.7674z" fill-rule="evenodd" opacity=".05"/><path d="m30.454573 1021.8647h14v21h-14z" opacity=".05"/><path d="m31 1021.3752h13v21h-13z" opacity=".1"/><path d="m28.993502 1006.8173-24.9951917 5.5312v32.2487l24.9951917 5.7674z" fill-rule="evenodd" opacity=".1"/><path d="m28.993502 1006.3509-24.9951917 5.5312v32.2487l24.9951917 5.7674z" fill-rule="evenodd" opacity=".15"/><path d="m31 1020.8856h13v21h-13z" opacity=".15"/><path d="m28.993502 1005.8275-24.9951917 5.5312v32.2487l24.9951917 5.7674z" fill="#0071c3" fill-rule="evenodd"/><path d="m31 1020.3622h13v21h-13z" fill="#0071c3"/><g fill="#fff"><path d="m16 14a8 9.5 0 0 0 -8 9.5 8 9.5 0 0 0 8 9.5 8 9.5 0 0 0 8-9.5 8 9.5 0 0 0 -8-9.5zm0 2a6 7.5000043 0 0 1 6 7.5 6 7.5000043 0 0 1 -6 7.5 6 7.5000043 0 0 1 -6-7.5 6 7.5000043 0 0 1 6-7.5z" transform="translate(0 1004.3622)"/><path d="m31 1024.3622 4 4.0096 9-7.0096v3l-8.966347 6.9855-4-4.0432z" fill-rule="evenodd"/></g></g></svg>