<svg height="48" viewBox="0 0 48 48" width="48" xmlns="http://www.w3.org/2000/svg" xmlns:xlink="http://www.w3.org/1999/xlink"><filter id="a" height="200%" width="200%" x="-50%" y="-50%"><feOffset dx="0" dy="1" in="SourceAlpha" result="shadowOffsetOuter1"/><feGaussianBlur in="shadowOffsetOuter1" result="shadowBlurOuter1" stdDeviation=".5"/><feColorMatrix in="shadowBlurOuter1" result="shadowMatrixOuter1" type="matrix" values="0 0 0 0 0   0 0 0 0 0   0 0 0 0 0  0 0 0 0.21 0"/><feMerge><feMergeNode in="shadowMatrixOuter1"/><feMergeNode in="SourceGraphic"/></feMerge></filter><g fill="none" fill-rule="evenodd" transform="translate(2 3)"><path d="m40 40h-36c-.552 0-1-.448-1-1v-36c0-.552.448-1 1-1h36c.552 0 1 .448 1 1v36c0 .552-.448 1-1 1" fill="#ee9a00" filter="url(#a)"/><path d="m22.5651787 32.9685208c-1.0328995-.381198-2.7179773-.3773537-3.7404602 0l-6.2026879 2.2891406c-1.0328995.3811981-1.8346447-.2127164-1.7917246-1.3017642l.2603661-6.60649c.0433574-1.1001426-.4810165-2.7015588-1.15586575-3.5573891l-4.09383809-5.1917234c-.68172438-.8645492-.36463103-1.8105838.68437793-2.1062986l6.36360301-1.7938948c1.0596959-.2987275 2.4206928-1.2923015 3.0260959-2.1985874l3.6725568-5.49780212c.6115707-.91551881 1.6092904-.9062859 2.2146935 0l3.6725568 5.49780212c.6115707.9155188 1.9770869 1.9028726 3.0260958 2.1985874l6.3636031 1.7938948c1.0596958.2987274 1.3592272 1.2504683.6843779 2.1062986l-4.0938381 5.1917234c-.6817244.8645492-1.1987859 2.4683413-1.1558658 3.5573891l.2603662 6.60649c.0433573 1.1001426-.7692418 1.6791179-1.7917247 1.3017642z" fill="#e9e9e9" transform="matrix(.58778525 -.80901699 .80901699 .58778525 -8.334824 25.335814)"/><g fill="#ee9a00"><path d="m16 18h3v8h-3z"/><path d="m29.009029 26-2.1401147-7-2.8689143.8771151 1.8719538 6.1228849z"/><path d="m20 15h3v11h-3z"/></g></g></svg>