<svg height="48" viewBox="0 0 48 48" width="48" xmlns="http://www.w3.org/2000/svg"><g transform="translate(0 -1004.3622)"><rect height="38" opacity=".05" ry="1.000017" width="39" x="4.503124" y="1010.906736"/><rect height="38" opacity=".1" ry="1.000017" width="38" x="4.982502" y="1010.401636"/><rect height="38" opacity=".15" ry="1.000017" width="38" x="4.982502" y="1009.902836"/><rect fill="#436a88" height="38" ry="1.000017" width="38" x="5.007653" y="1009.3786"/><path d="m23.934479 1012.8082c-3.662797-.0003-6.632305 3.4915-6.632555 7.7992.0022.8675.127366 1.7285.370461 2.5476 2.831051.2134 5.432847 1.4783 6.330337 3.5493.832578-2.0669 3.413753-3.2723 6.190601-3.5394.245125-.822.371443-1.6864.37371-2.5575-.00025-4.3077-2.969757-7.7995-6.632554-7.7992zm-5.430181 13.3886c-3.259857-.0003-5.903082 2.6414-5.904631 5.9013-.000328 3.2612 2.643446 5.905 5.904631 5.9047.139928 0 .279752-.01.419206-.02-.0042.066-.0075.1321-.0098.1983-.000232 3.2612 2.247775 5.9049 5.020723 5.9046 2.772948.0003 5.020956-2.6434 5.020724-5.9046-.0011-.069-.0033-.1387-.0065-.208.182499.019.365761.029.549192.03 3.261224.0003 5.905015-2.6436 5.904631-5.9048-.0016-3.2598-2.644813-5.9015-5.904631-5.9012-2.430308 0-4.611195 1.4928-5.495173 3.7566-.88441-2.2649-3.066928-3.7561-5.498424-3.7566z" fill="#fff"/></g></svg>