<svg height="48" viewBox="0 0 48 48" width="48" xmlns="http://www.w3.org/2000/svg" xmlns:xlink="http://www.w3.org/1999/xlink"><defs><path id="a" d="m32 20.5v18.7c0 .9941125-.8058875 1.8-1.8 1.8h-28.4c-.99411255 0-1.8-.8058875-1.8-1.8v-18.7 17.7888889c0 .9941125.80588745 1.8 1.8 1.8h28.4c.9941125 0 1.8-.8058875 1.8-1.8zm-30.2-20.5h28.4c.9941125 0 1.8.80588745 1.8 1.8v36.4c0 .9941125-.8058875 1.8-1.8 1.8h-28.4c-.99411255 0-1.8-.8058875-1.8-1.8v-36.4c0-.99411255.80588745-1.8 1.8-1.8z"/><filter id="b" height="117.1%" width="121.9%" x="-10.9%" y="-6.1%"><feOffset dx="0" dy="1" in="SourceAlpha" result="shadowOffsetOuter1"/><feGaussianBlur in="shadowOffsetOuter1" result="shadowBlurOuter1" stdDeviation="1"/><feComposite in="shadowBlurOuter1" in2="SourceAlpha" operator="out" result="shadowBlurOuter1"/><feColorMatrix in="shadowBlurOuter1" type="matrix" values="0 0 0 0 0   0 0 0 0 0   0 0 0 0 0  0 0 0 0.2 0"/></filter><linearGradient id="c" x1="50%" x2="50%" y1="0%" y2="100%"><stop offset="0" stop-color="#d224f3"/><stop offset="1" stop-color="#aa008e"/></linearGradient></defs><g fill="none" fill-rule="evenodd"><g transform="translate(9 4)"><use fill="#000" filter="url(#b)" xlink:href="#a"/><use fill="#000" fill-opacity=".1" fill-rule="evenodd" xlink:href="#a"/><path d="m32 20.5v18.7c0 .9941125-.8058875 1.8-1.8 1.8h-28.4c-.99411255 0-1.8-.8058875-1.8-1.8v-18.7 17.7888889c0 .9941125.80588745 1.8 1.8 1.8h28.4c.9941125 0 1.8-.8058875 1.8-1.8z" fill="#fff"/><path d="m1.8 0h28.4c.9941125 0 1.8.80588745 1.8 1.8v36.4c0 .9941125-.8058875 1.8-1.8 1.8h-28.4c-.99411255 0-1.8-.8058875-1.8-1.8v-36.4c0-.99411255.80588745-1.8 1.8-1.8z" fill="url(#c)"/><path d="m3.9 0h-2.1c-.99411255 0-1.8.80588745-1.8 1.8v36.4c0 .9941125.80588745 1.8 1.8 1.8h2.1 2.1v-40z" fill="#333"/><path d="m7 0h1v40h-1z" fill="#921095"/></g><g transform="translate(18.057143 14.933333)"><path d="m.942857.066667h19v6h-19z" fill="#b12a88"/><path d="m1.94285714 1.06666667h16.99999996v4h-16.99999996z" fill="#fff"/></g></g></svg>