<svg enable-background="new 0 0 48 48" viewBox="0 0 48 48" xmlns="http://www.w3.org/2000/svg"><path d="m4 22.463 11.034-4.582 13.104 3.7-.69 14.689-10.345 5.966-13.103-5.276z" fill="#ffce00"/><path d="m4 22.463 13.103 4.478v15.295l-13.103-5.276z" fill="#dca900"/><path d="m28.138 21.773-11.035 5.168v15.295l11.035-5.966z" fill="#a67300"/><path d="m20.552 25.719 11.034-4.389 12.414 3.202v14.497l-10.345 5.966-13.103-4.587z" fill="#78e94f"/><path d="m20.552 25.911 13.103 3.788v15.296l-13.103-4.587z" fill="#29ac13"/><path d="m44 24.532-10.345 5.167v15.296l10.345-5.966z" fill="#007200"/><path d="m11.586 8.893 10.485-4.115 13.281 3.202v14.497l-10.485 5.276-13.281-4.683z" fill="#58a4ea"/><path d="m11.586 8.893 13.281 3.565v15.295l-13.281-4.683z" fill="#0080e6"/><path d="m35.352 7.98-10.485 4.478v15.295l10.485-5.276z" fill="#003ca2"/></svg>