<svg height="64" viewBox="0 0 64 64" width="64" xmlns="http://www.w3.org/2000/svg" xmlns:xlink="http://www.w3.org/1999/xlink"><defs><circle id="a" cx="32" cy="32" r="28"/><filter id="b" height="117.9%" width="117.9%" x="-8.9%" y="-7.1%"><feOffset dx="0" dy="1" in="SourceAlpha" result="shadowOffsetOuter1"/><feGaussianBlur in="shadowOffsetOuter1" result="shadowBlurOuter1" stdDeviation="1.5"/><feComposite in="shadowBlurOuter1" in2="SourceAlpha" operator="out" result="shadowBlurOuter1"/><feColorMatrix in="shadowBlurOuter1" type="matrix" values="0 0 0 0 0   0 0 0 0 0   0 0 0 0 0  0 0 0 0.2 0"/></filter><linearGradient id="c" x1="42.15262%" x2="42.152619%" y1="0%" y2="100%"><stop offset="0" stop-color="#30ffaf"/><stop offset="1" stop-color="#08c5ff"/></linearGradient><linearGradient id="d" x1="50%" x2="50%" y1="0%" y2="98.735327%"><stop offset="0" stop-color="#8bffd4"/><stop offset="1" stop-color="#00b2d4"/></linearGradient></defs><g fill="none" fill-rule="evenodd"><use fill="#000" filter="url(#b)" xlink:href="#a"/><use fill="#000" fill-opacity=".1" fill-rule="evenodd" xlink:href="#a"/><circle cx="32" cy="32" fill="url(#c)" r="28"/><path d="m32 4.75c-15.0497594 0-27.25 12.2002406-27.25 27.25s12.2002406 27.25 27.25 27.25 27.25-12.2002406 27.25-27.25-12.2002406-27.25-27.25-27.25zm0-.75c15.463973 0 28 12.536027 28 28s-12.536027 28-28 28-28-12.536027-28-28 12.536027-28 28-28z" fill="url(#d)" fill-rule="nonzero"/><g transform="matrix(.70710678 .70710678 -.70710678 .70710678 30.114839 -4.259509)"><path d="m30.4772762 3.22943173c6.5417863 0 11.844952 5.30316561 11.844952 11.84495187v22.1550481c0 1.3807119-1.1192882 2.5-2.5 2.5h-21.1899039v-24.6550481c0-6.54178626 5.3031656-11.84495187 11.8449519-11.84495187z" fill="#404040" fill-rule="evenodd"/><path d="m19.3823243 38.9794317h20.4399039c.9664983 0 1.75-.7835017 1.75-1.75v-22.1550481c0-6.1275727-4.9673792-11.09495187-11.094952-11.09495187-6.1275727 0-11.0949519 4.96737917-11.0949519 11.09495187z" stroke="#373737" stroke-width="1.5"/></g><path d="m15.1639045 9.4846976h22.0673077c1.3807119 0 2.5 1.1192881 2.5 2.5v18.8653846c0 1.3807119-1.1192881 2.5-2.5 2.5h-22.0673077c-6.59024398 0-11.9326923-5.3424483-11.9326923-11.9326923 0-6.590244 5.34244832-11.9326923 11.9326923-11.9326923z" fill="#fff" transform="matrix(.70710678 .70710678 -.70710678 .70710678 27.436083 2.083498)"/><g transform="matrix(.70710678 .70710678 -.70710678 .70710678 33.672639 -5.244169)"><path d="m26.340198 24.404342h14.209135v1.754808h-14.209135z" fill="#606060" fill-rule="evenodd"/><path d="m27.215198 25.279342h12.459135v1h-12.459135z" stroke="#373737" stroke-width="1.75"/></g><g transform="matrix(.70710678 .70710678 -.70710678 .70710678 35.214553 -1.521659)"><path d="m22.617689 28.126852h14.209135v1.754808h-14.209135z" fill="#606060" fill-rule="evenodd"/><path d="m23.492689 29.001852h12.459135v1h-12.459135z" stroke="#373737" stroke-width="1.75"/></g><g transform="matrix(.70710678 .70710678 -.70710678 .70710678 28.578228 7.643386)"><path d="m15.3409046 20.9257842c2.0352224 0 3.6850962 1.6498738 3.6850962 3.6850962v5.6153846h-7.3701923v-5.6153846c0-2.0352224 1.6498737-3.6850962 3.6850961-3.6850962z" fill="#404040" fill-rule="evenodd"/><path d="m12.5308085 29.351265h5.6201923v-4.7403846c0-1.5519733-1.2581229-2.8100962-2.8100962-2.8100962-1.5519732 0-2.8100961 1.2581229-2.8100961 2.8100962z" stroke="#373737" stroke-width="1.75"/></g><g transform="matrix(.70710678 .70710678 -.70710678 .70710678 32.424821 6.050075)"><path d="m19.1874975 24.7723771c1.9383071 0 3.5096154 1.5713084 3.5096154 3.5096154v5.7908654h-7.0192307v-5.7908654c0-1.938307 1.5713083-3.5096154 3.5096153-3.5096154z" fill="#404040" fill-rule="evenodd"/><path d="m16.5528822 33.1978579h5.2692307v-4.9158654c0-1.4550579-1.1795575-2.6346154-2.6346154-2.6346154s-2.6346153 1.1795575-2.6346153 2.6346154z" stroke="#373737" stroke-width="1.75"/></g><g transform="matrix(.70710678 .70710678 -.70710678 .70710678 36.14733 4.508162)"><path d="m22.9100068 28.4948864c1.938307 0 3.5096154 1.5713083 3.5096154 3.5096154v5.7908654h-7.0192308v-5.7908654c0-1.9383071 1.5713083-3.5096154 3.5096154-3.5096154z" fill="#404040" fill-rule="evenodd"/><path d="m20.2753914 36.9203672h5.2692308v-4.9158654c0-1.4550579-1.1795575-2.6346154-2.6346154-2.6346154s-2.6346154 1.1795575-2.6346154 2.6346154z" stroke="#373737" stroke-width="1.75"/></g><g transform="matrix(.70710678 .70710678 -.70710678 .70710678 39.993923 2.914851)"><path d="m26.7565997 32.3414793c2.0352224 0 3.6850961 1.6498737 3.6850961 3.6850961v3.1153847c0 1.3807118-1.1192881 2.5-2.5 2.5h-4.8701923v-5.6153847c0-2.0352224 1.6498738-3.6850961 3.6850962-3.6850961z" fill="#404040" fill-rule="evenodd"/><path d="m23.9465035 40.7669601h3.9951923c.8974628 0 1.625-.7275373 1.625-1.625v-3.1153847c0-1.5519732-1.2581229-2.8100961-2.8100961-2.8100961-1.5519733 0-2.8100962 1.2581229-2.8100962 2.8100961z" stroke="#373737" stroke-width="1.75"/></g><g transform="matrix(.70710678 .70710678 -.70710678 .70710678 23.980698 -1.52056)"><path d="m27.1749155 8.83972418v6.69764042c0 3.5962545-2.7497896 6.5115948-6.141827 6.5115948v-13.20923522" fill="#404040" fill-rule="evenodd"/><path d="m26.2999155 9.71472418h-4.391827v11.38159342c2.484323-.4455723 4.391827-2.7561424 4.391827-5.558953z" stroke="#373737" stroke-width="1.75"/></g></g></svg>