<svg height="48" viewBox="0 0 48 48" width="48" xmlns="http://www.w3.org/2000/svg" xmlns:xlink="http://www.w3.org/1999/xlink"><defs><circle id="a" cx="24" cy="24" r="22"/><filter id="b" height="109.1%" width="109.1%" x="-4.5%" y="-2.3%"><feOffset dx="0" dy="1" in="SourceAlpha" result="shadowOffsetOuter1"/><feGaussianBlur in="shadowOffsetOuter1" result="shadowBlurOuter1" stdDeviation=".5"/><feComposite in="shadowBlurOuter1" in2="SourceAlpha" operator="out" result="shadowBlurOuter1"/><feColorMatrix in="shadowBlurOuter1" type="matrix" values="0 0 0 0 0   0 0 0 0 0   0 0 0 0 0  0 0 0 0.2 0"/></filter><linearGradient id="c" x1="50%" x2="50%" y1="1.090163%" y2="100%"><stop offset="0" stop-color="#0e1b7b"/><stop offset="1" stop-color="#105ce3"/></linearGradient><linearGradient id="d" x1="50%" x2="50%" y1="0%" y2="100%"><stop offset="0" stop-color="#000384"/><stop offset="1" stop-color="#0025b3"/></linearGradient><linearGradient id="e" x1="50%" x2="50%" y1="3.008197%" y2="98.913837%"><stop offset="0" stop-color="#fff" stop-opacity=".425328"/><stop offset="1" stop-color="#fff" stop-opacity=".126359"/></linearGradient></defs><g fill="none" fill-rule="evenodd"><use fill="#000" filter="url(#b)" xlink:href="#a"/><use fill="none" xlink:href="#a"/><circle cx="24" cy="24" fill="url(#c)" r="22"/><path d="m24 45c11.5979797 0 21-9.4020203 21-21s-9.4020203-21-21-21-21 9.4020203-21 21 9.4020203 21 21 21zm0 1c-12.1502645 0-22-9.8497355-22-22s9.8497355-22 22-22 22 9.8497355 22 22-9.8497355 22-22 22z" fill="url(#d)" fill-rule="nonzero"/><path d="m15 36v-24h-3v-1h10v.5 25.5h-6.5-3.5v-1zm11-25h6c2.9216865 2.5945985 4.7657958 6.0989578 5.5323279 10.5130779l.000001-.0000001c.2920293 1.6816681.2948985 3.4008431.0084838 5.0834766-.7411285 4.3539941-2.5652378 7.8218093-5.472328 10.4034456h-6.0684847v-1c1.5370456 0 2.7830673-1.2460217 2.7830673-2.7830673v-18.4338654c0-1.5370456-1.2460217-2.7830673-2.7830673-2.7830673z" fill="#ff2500" fill-rule="evenodd"/><path d="m14.5 35.5v-23h-3v-2h11v27h-11v-2zm11-25h6.6899652l.1420411.1261393c3.0096642 2.6727269 4.907719 6.2795989 5.6929489 10.8013914.3017646 1.737723.3047296 3.5142038.0087677 5.2529259-.7596001 4.4625111-2.6379561 8.0334547-5.6332319 10.6934041l-.1420411.1261393h-6.7584499v-2h.5c1.2609032 0 2.2830673-1.022164 2.2830673-2.2830673v-18.4338654c0-1.2609033-1.0221641-2.2830673-2.2830673-2.2830673h-.5z" stroke="#0b0061" stroke-opacity=".602327"/><path d="m8.50620831 13c3.44361569-4.84167565 9.09987059-8 15.49379169-8s12.050176 3.15832435 15.4937917 8c-3.4436157 4.8416756-9.0998706 8-15.4937917 8s-12.050176-3.1583244-15.49379169-8z" fill="url(#e)"/></g></svg>