<svg height="64" viewBox="0 0 64 64" width="64" xmlns="http://www.w3.org/2000/svg" xmlns:xlink="http://www.w3.org/1999/xlink"><defs><path id="a" d="m53 23h1.4348594c.8297934 0 1.7750345.6115794 2.1159575 1.3765526l4.1210328 9.2468948c.3388177.760249-.0658287 1.3765526-.8960442 1.3765526h-3.7758055v22.4960938c0 .8305844-.6785431 1.5039062-1.502474 1.5039062h-44.99505203c-.82979346 0-1.50247397-.6679183-1.50247397-1.5039062v-22.4960938h-3.88647213c-.83368922 0-1.2377148-.6115794-.89772672-1.3765526l4.10973104-9.2468948c.33788844-.760249 1.29034423-1.3765526 2.11427511-1.3765526h1.5601927v-16.5c0-1 .5-1.5 1.5-1.5h27.5l13 13z"/><filter id="b" height="118.5%" width="117.3%" x="-8.7%" y="-7.4%"><feOffset dx="0" dy="1" in="SourceAlpha" result="shadowOffsetOuter1"/><feGaussianBlur in="shadowOffsetOuter1" result="shadowBlurOuter1" stdDeviation="1.5"/><feComposite in="shadowBlurOuter1" in2="SourceAlpha" operator="out" result="shadowBlurOuter1"/><feColorMatrix in="shadowBlurOuter1" type="matrix" values="0 0 0 0 0   0 0 0 0 0   0 0 0 0 0  0 0 0 0.2 0"/></filter><linearGradient id="c" x1="49.999546%" x2="49.999546%" y1=".694444%" y2="41.146179%"><stop offset="0" stop-color="#fff"/><stop offset="1" stop-color="#c7d9e9"/></linearGradient></defs><g fill="none" fill-rule="evenodd"><use fill="#000" filter="url(#b)" xlink:href="#a"/><use fill="none" xlink:href="#a"/><path d="m51.5 57h-39c-1 0-1.5-.5-1.5-1.5v-49c0-1 .5-1.5 1.5-1.5h27.5l13 13v37.5c0 1.5-1.5 1.5-1.5 1.5z" fill="#d70751"/><g fill="#fff" transform="translate(21.333333 41)"><path d="m2.85516517 3.30855428c-.00911792.00840279-.00911792 1.34194361-.02796162 1.6900337-.01864109.2814041-.04700796.88622628-.72294992.88622628-.69478568 0-.86377117-.70422541-.92009966-1.01048032-.06564904-.3396873-.06564904-.62162776-.06564904-.74552423 0-.3977917.02816425-1.5082116 1.08908515-1.5082116.3193299 0 .49763593.083134.63845717.14910484zm-2.72261156.97776307c0 2.33597591 1.40841505 2.33597591 1.61488533 2.33597591.58212867 0 .95778707-.28176168 1.1172494-.77037504l.0188437.73712144c.17850866-.00840279.35681469-.02485081.64777772-.02485081.10333645 0 .18762658 0 .2630014.00840279.0751722 0 .15014179.00804523.23463453.01644802-.15014178-.26495609-.26279878-.86137547-.26279878-2.15415382 0-1.25916717 0-3.38811262.12197754-4.03441239-.33776836.14105962-.62913663.23223884-1.26759381.28176167.25347824.24028407.25347824.3645381.25347824 1.45779485-.17810341-.04952283-.40362002-.10762723-.78859896-.10762723-1.68053437.00017878-1.95285631 1.29259955-1.95285631 2.25391461z"/><path d="m5.2244066 3.86331727c.00952317-.6875986.16918811-1.30064478.83560692-1.30064478.73247308 0 .78839634.71227062.76975525 1.30064478zm2.53478237.083134c0-.96936028-.21579082-1.92227254-1.60536216-1.92227254-1.91516891 0-1.91516891 1.8727497-1.91516891 2.27000506 0 1.68163091.854248 2.3443787 2.2908273 2.3443787.63805193 0 .94826391-.08241886 1.1172494-.12425404-.00932054-.29820969.03748479-.48879214.09421853-.74552422-.19755498.1079848-.45103322.24868686-1.01431819.24868686-1.46474355 0-1.48358725-1.17674832-1.48358725-1.58258525h2.49790544z"/><path d="m10.8136929 4.30258658c0 .77037504-.1594623 1.80606373-1.24854747 1.80606373-.15034441 0-.33797098-.02520838-.45994852-.0498804-.01884371-.29820969-.01884371-.81185264-.01884371-1.40827202 0-.7126282.08429013-1.08485396.15034441-1.26756997.19694712-.58801659.63825455-.59606182.72254468-.59606182.71362941 0 .85445061.86977827.85445061 1.51572048zm-2.69444731.90303186c0 .61322497 0 .96095749-.11265699 1.22591358.38497893.13265683.86356854.20703047 1.43657929.20703047.36613523 0 1.42705611 0 1.99966161-1.03533113.272322-.48056813.3661353-1.12686791.3661353-1.61566005 0-.29820969-.0376874-.9525547-.3098068-1.3669732-.2625961-.38903135-.6852625-.58801659-1.1356878-.58801659-.9014586 0-1.16425738.66274779-1.304876 1.00243509 0-.42246373.00911792-1.89706416.0840875-2.65099118-.6100903.24868686-.98595132.2898069-1.38936872.3230605.36613523.13229926.36613523.67955338.36613523 2.46076629v2.03776622z"/><path d="m13.6139081 6.58903966c-.1880318-.02485081-.3197351-.04147761-.5920571-.04147761-.2998783 0-.5069564.01680558-.7225446.04147761.0938133-.15750764.131298-.23223884.1594623-.77037504.0376874-.737479.0470079-2.70927437-.0186411-3.12351409-.0470079-.31501527-.1312981-.3645381-.2627988-.44731453.7697553-.06632842.9857487-.11585125 1.3423608-.2649561-.074767.36418054-.0846954.54689655-.0846954 1.10165954-.0184384 2.85855801-.0279616 3.16481292.1789139 3.50450022"/><path d="m16.620391 4.24430339c-.0186411.52204574-.0281642.88658385-.1880318 1.17639075-.1971498.37294089-.5255976.48056813-.7697553.48056813-.5638928 0-.6854651-.41406093-.6854651-.81989786 0-.77859905.7888016-.83706102 1.145211-.83706102zm-2.5821956 1.01924068c0 .52204574.1785087 1.04373391.7045115 1.26756997.2346345.09117922.4692691.09117922.5446439.09117922.8639738 0 1.1547342-.56352335 1.3332428-.91143466-.0095231.36453811 0 .58801659.0281643.87818106.1689855-.00840279.337971-.02485081.6198161-.02485081.1594623 0 .3098067.01644802.469269.02485081-.1033364-.14070206-.1594623-.22383605-.1880318-.54689655-.0186411-.31465771-.0186411-.6294942-.0186411-1.06858473l.0095232-1.69003369c0-.62985176-.1880318-1.25112195-1.5964469-1.25112195-.9292176 0-1.4736588.24868685-1.7459808.37294089.1128596.18235845.2066729.33932973.2909631.6960014.3665404-.28176168.8453327-.43086652 1.3332428-.43086652.7796837 0 .7796837.45571732.7796837 1.10165954-.1785087-.00804523-.3288531-.02449324-.582534-.02449324-1.1928268.00017878-1.9814258.40547936-1.9814258 1.51589926z"/><path d="m22.028332 5.76896301c.0095231.28176167.0095231.57997136.1408212.82025543-.2068755-.01644801-.328853-.04147761-.7134267-.04147761-.2255167 0-.3474942.01680559-.5260028.04147761.0372821-.10762724.0565311-.14910484.0751722-.29016446.0281642-.19022489.0470079-.82830066.0470079-1.05213671v-.89462907c0-.38938892 0-.95291227-.0285695-1.15153994-.0186411-.14070206-.0652438-.52168818-.6102929-.52168818-.5351207 0-.7134268.34773252-.7792784.6294942-.074767.2898069-.074767.60482217-.074767 1.83073575.0091179 1.0605395.0091179 1.15958516.1029312 1.44974963-.1594623-.01644802-.356612-.03289603-.6382545-.03289603-.2255166 0-.3756584.00804522-.5630824.03289603.0656491-.13265683.1033365-.19898524.1219776-.6627478.0190463-.45571732.0565311-2.69264757-.0285695-3.22255975-.0466027-.32341807-.1408213-.39779171-.2437525-.48056814.7606374-.0332536 1.0043898-.14105962 1.2394296-.24832929v.87782349c.1124544-.25708965.3470889-.82865822 1.2862349-.82865822 1.1737805 0 1.1828984.75392701 1.1924216 1.25076438z"/><path d="m13.6931327.81042238-.7776574.68581077-.7772522-.68581077.7772522-.68581078z"/></g><path d="m39.9952812 25.572036-.4479318.2227536c-.3661755.7115644.036374.4517426-.2258724 1.0174612-.5723.5082105-1.7342217 1.5897611-2.1062859 1.6888392-.2719467-.0059208.1839534-.3207931.2435394-.4437751-.7652609.5251863-.6142175.7884721-1.7848008 1.1082251-2.9196998 1.2814397-6.9285709-1.4092718-6.8759145-5.0800295-.0304889.2327998-.0876473.1745998-.1513893.2681359-.148964-1.8883824.8723079-3.7850796 2.5947506-4.5607327 1.6846819-.8335078 3.6596715-.4919289 4.8655902.6336173-.6623713-.8681499-1.9819178-1.7886109-3.5446584-1.7033897-1.5315597.0249461-2.9647361.9980614-3.442808 2.0550148-.784314.4936609-.8757714 1.903972-1.2173503 2.1624077-.4604027 3.3811441.8650332 4.8413404 3.1074654 6.559973.3519718.2376499.0990789.2740247.1461925.4548607-.7448211-.348507-1.4265928-.8750787-1.9878072-1.5197822.2979293.4354609.6190691.8587963 1.0344369 1.1913683-.7029042-.2373039-1.6413796-1.7020043-1.9147124-1.7615896 1.2107695 2.1679499 4.9116652 3.802054 6.8506267 2.9910648-.8972505.0332567-2.0366529.0183618-3.0440686-.3540505-.4243746-.2179035-.9991-.6686075-.8962104-.7527893 2.6453298.9876678 5.3772662.7475932 7.6657727-1.0867467.5826936-.4538214 1.218737-1.2253184 1.4026897-1.2357113-.2767968.4164072.0474596.2002364-.1652463.5677972.5792295-.935704-.252547-.3810717.5993212-1.6157437l.3145583.4330363c-.1177859-.7773859.9648033-1.7203654.8546389-2.9488012.2483895-.375529.2767968.4046289.013511 1.268622.3654827-.9585685.0966534-1.1127293.1901888-1.9039721.1008109.2660572.2348792.5483968.3031247.8293504-.2383419-.9266965.2435401-1.5599685.3634047-2.0986651-.1184793-.0519681-.3675608.4094791-.4250687-.6845431.0086601-.4752998.1326822-.2490822.1801433-.3661748-.0928434-.0536944-.3377689-.4181392-.4863854-1.116886.1070457-.1645536.2882276.4257615.4351136.4496646-.0945748-.5553249-.2570497-.9790076-.2639785-1.405461-.4295715-.8972505-.1520827.1198647-.4998971-.3852285-.4572854-1.4252075.378993-.3308393.4358077-.9779683.6921653 1.0029108 1.0867474 2.5583759 1.2686227 3.2023861-.1385717-.7853534-.3620187-1.5464568-.6353514-2.2826178.2109753.089032-.3391535-1.615397.2740261-.486732-.6544038-2.4059472-2.7984505-4.6542689-4.7713628-5.7087982.240768.2206756.5452787.4978183.436501.5414679-.9817798-.5837322-.8092579-.6298072-.9499077-.876464-.7985183-.3252965-.8518681.0266725-1.3801718.0006927-1.5069646-.7995577-1.7972724-.7146825-3.184025-1.2149255l.0630465.2951572c-.99806-.3325714-1.162961.1254074-2.2413928.0006934-.0654791-.0509266.3457356-.1856862.6845424-.2345326-.96515.1274855-.9201143-.1905355-1.8644778.0349902.2324531-.1631683.4791099-.2716.7271534-.4101718-.7867401.0478092-1.8790288.4579788-1.5419548.0845286-1.2835177.5729933-3.5633647 1.3770537-4.8427249 2.5767362l-.0401834-.2688286c-.5861584.7035969-2.5562972 2.1014365-2.7132293 3.0135826l-.1569329.0363741c-.3045107.5165247-.5023217 1.101643-.7441291 1.632718-.3987395.6800398-.5847709.2618998-.527957.3686002-.7846606 1.5908005-1.1750852 2.927322-1.5114688 4.0241149.2397294.3585532.0059209 2.1589437.0963075 3.5997402-.3935419 7.1170299 4.9948084 14.0265492 10.8847886 15.6215072.8632997.3093608 2.1468188.2982753 3.2387615.3287606-1.2880218-.3686002-1.4543074-.195039-2.7097652-.6325787-.905218-.4268001-1.103375-.9135329-1.7449605-1.4702431l.2539316.4486245c-1.2575358-.4451605-.7313109-.5508215-1.7546601-.8747319l.2712533-.3537039c-.4077477-.0311808-1.0798185-.6866218-1.2634259-1.0507178l-.4462006.0176698c-.5355785-.6602933-.8213807-1.1373251-.8002489-1.5069646l-.1441146.2570503c-.1631675-.2802608-1.9715255-2.4797361-1.0333975-1.9677148-.1742532-.1586648-.4060143-.2587824-.6571745-.7157218l.1908815-.2179035c-.4507032-.5809608-.8307349-1.3254359-.801635-1.5734794.2407673.3249505.4077456.3859218.5733394.4416971-1.1400966-2.8282431-1.2041867-.1555461-2.0671404-2.8788223l.182222-.0145525c-.1396111-.211668-.225179-.4399644-.3374221-.6647967l.0796784-.7915895c-.8203428-.9478289-.229335-4.0341618-.1105104-5.7264659.0814111-.6880072.6848891-1.4207033 1.1432146-2.5698074l-.2792215-.0478092c.5341931-.9311999 3.0492654-3.7410826 4.2146504-3.5969688.5643325-.708793-.1122417-.0027821-.2227529-.1808353 1.2398674-1.2828257 1.6296007-.9062574 2.4662259-1.1373251.9017539-.5352325-.7742685.2092426-.346775-.2040465 1.5599678-.3980469 1.1051078-.9055647 3.1396834-1.1075325.2147854.1219427-.4978191.1884568-.6765757.346775 1.2991067-.6360427 4.1117608-.4908896 5.9395186.3526644 2.1191048.9911326 4.5014941 3.9194933 4.5957222 6.6746401l.107047.0287555c-.0540439 1.0954068.167671 2.3622968-.2172115 3.5256038l.2601685-.5511674c.0311801.8369732-.2442328 1.2436809-.493315 1.9628668z" fill="#fff"/><path d="m41.2386667 18.0373333c-.736 0-1.2386667-.6346666-1.2386667-1.3706666v-11.6666667l13 13.0373333z" fill="#ff5491"/><rect fill="#c0d1df" height="35" rx="1.333333" width="48" x="8" y="24"/><path d="m8 25.5048079c0-.8310824.67854309-1.5048079 1.50247397-1.5048079h44.99505203c.8297935 0 1.502474.6791629 1.502474 1.5048079v30.9903842c0 .8310824-.6785431 1.5048079-1.502474 1.5048079h-44.99505203c-.82979346 0-1.50247397-.6791629-1.50247397-1.5048079z" fill="#dee8f2"/><g fill="#10acff" transform="translate(20 42)"><path d="m8.48956061 3.01681309c-.09681819 0-2.72984849.00015073-2.72984849.00015073s.00060606-.39024547.00060606-.44978466c0-.15314385.14621212-.30327304.30484849-.30387597.14712121-.0004522 2.125 0 2.27742424 0 .13727273 0 .29666667.15314384.29590909.30146425-.00060606.11757106-.00242424.18947029-.00242424.30146426 0 0 0 .15058139-.14651515.15058139m.75257575 2.10813954c.15636364 0 .15727273-.13912576.15727273-.15314384-.00030303-.05230405-.00106061-.39476745-.00106061-.44752369 0-.15073213-.15378787-.15299311-.15378787-.15299311s-2.99166667-.00241171-3.18424243-.00241171c-.30530303 0-.30060606-.29392765-.30060606-.29392765-.00393939-.01914298.00015152-.30658915 0-.30658915h3.03151515c.84166667 0 .75636364-.60292851.75636364-.60292851v-.59750215s.08212121-1.06055125-1.05818182-1.06055125h-2.55393939c-1.16060606 0-1.0819697 1.04638243-1.0819697 1.04638243 0 .5667528.00030303.76933678.00030303 1.51485788 0 1.05633075 1.06212121 1.05150732 1.06212121 1.05150732z"/><path d="m3.63615152 4.22419251s.00242424.14696382-.15151516.14696382c-.16515151 0-.97166666.00195952-1.46727272.0004522s-1.10348485-.10973299-1.10378788-1.04381999c-.00030303-.93393626.67515151-1.06341515 1.09666666-1.06341515.42136364 0 1.62515152.00165805 1.62515152.00165805s.00075758 1.82431094.00075758 1.95816107m.75833333-4.07353575c-.065.00030147-.53924243.00030147-.60409091 0 0 0-.15166667 0-.15166667.15555556 0 .01236003-.00075757 1.20103359-.00075757 1.20103359-.63772728-.00015073-1.29848485.00030146-1.96227273 0-1.42590909-.0004522-1.6769697 1.22801464-1.67575758 1.81104651.00151516.58273041.25636364 1.80411283 1.69818182 1.80275624 1.4419697-.00135658 1.48242424.00180879 2.09272727.00180879.7559091 0 .75681819-.74928941.75681819-.74928941v-4.07217915c0-.15073213-.15318182-.15073213-.15318182-.15073213"/><path d="m20.456697 1.05512489h-.6060606c-.0836364 0-.1515152-.06752799-.1515152-.15073212v-.60292851c0-.08320414.0678788-.15073213.1515152-.15073213h.6060606c.0836363 0 .1515151.06752799.1515151.15073213v.60292851c0 .08320413-.0678788.15073212-.1515151.15073212"/><path d="m20.456697 5.12489233h-.6060606c-.0836364 0-.1515152-.06752799-.1515152-.15073212v-3.31610681c0-.08320413.0678788-.15073213.1515152-.15073213h.6060606c.0836363 0 .1515151.067528.1515151.15073213v3.31610681c0 .08320413-.0678788.15073212-.1515151.15073212"/><path d="m23.3355 1.50831611c-1.1130303-.00150732-2.4242424-.00030147-2.4242424-.00030147v3.46382429c0 .06828166.0439394.16912145.1813636.15163652.1481818-.00045219.3810606-.00135659.5292424-.00180878.2087879.02969423.2027273-.15223945.2027273-.15223945l-.0045454-2.70609389s1.1086363-.00105512 1.5142424-.00105512c.025303 0 .6119697.01130491.6119697.75230405l-.004394 1.95981912c-.0001515.08335486.0677273.15103359.1516667.15103359l.6057576-.0004522c.0836363 0 .1513636-.06752799.1513636-.15073212v-2.02810078c0-.83550818-.4021212-1.43632644-1.5151515-1.43783376"/><path d="m15.7599394 2.405941s-.0024242-.14696383.1515151-.14696383c.1651516 0 .9716667-.00195951 1.4672728-.00045219.495606.00150732 1.1034848.10973299 1.1037879 1.04381998.000303.93393626-.6751516 1.06341516-1.0966667 1.06341516-.4215152 0-1.6251515-.00165805-1.6251515-.00165805s-.0007576-1.82431094-.0007576-1.95816107m-.7572727 4.07353574c.065-.00030146.5386363-.00030146.6034848 0 0 0 .1515152 0 .1515152-.15555555 0-.01236004.0004545-1.20103359.0004545-1.20103359.6378788.00015073 1.2984849-.00030147 1.9624243 0 1.4257575.00045219 1.6768181-1.22801465 1.675606-1.81104651-.0015151-.58273041-.2563636-1.80411284-1.6981818-1.80275625-1.4419697.00135659-1.4812121-.00180878-2.0916667-.00180878-.7559091 0-.755606.7492894-.755606.7492894v4.07217916c0 .15073212.1519697.15073212.1519697.15073212"/><path d="m13.4895606 3.01681309c-.0968182 0-2.7298485.00015073-2.7298485.00015073s.0006061-.39024547.0006061-.44978466c0-.15314385.1462121-.30327304.3048485-.30387597.1471212-.0004522 2.125 0 2.2774242 0 .1372727 0 .2966667.15314384.2959091.30146425-.0006061.11757106-.0022727.18947029-.0022727.30146426 0 0 0 .15058139-.1466667.15058139m.7525758 2.10813954c.1563636 0 .1572727-.13912576.1572727-.15314384-.000303-.05230405-.0010606-.39476745-.0010606-.44752369 0-.15073213-.1537879-.15299311-.1537879-.15299311s-2.9916667-.00241171-3.1842424-.00241171c-.305303 0-.3006061-.29392765-.3006061-.29392765-.0039394-.01914298.0001515-.30658915 0-.30658915h3.0315152c.8416666 0 .7563636-.60292851.7563636-.60292851v-.59750215s.0821212-1.06055125-1.0581818-1.06055125h-2.5539394c-1.16060606 0-1.0819697 1.04638243-1.0819697 1.04638243 0 .5667528.00030303.76933678.00030303 1.51485788 0 1.05633075 1.06212117 1.05150732 1.06212117 1.05150732z"/></g><path d="m60.6718497 33.6234474c.3388177.760249-.0658287 1.3765526-.8960442 1.3765526h-55.66227763c-.83368922 0-1.2377148-.6115794-.89772672-1.3765526l4.10973104-9.2468948c.33788844-.760249 1.29034423-1.3765526 2.11427511-1.3765526h44.9950521c.8297934 0 1.7750345.6115794 2.1159575 1.3765526z" fill="url(#c)"/><path d="m54.8850301 23.9926014c.2732362.000081.5873315.2079108.6967428.4534111l4.0291838 9.0408013c.1115642.2503311-.0227542.4536806-.2972888.454189l-54.78520647.1014452c-.27575227.0005106-.40586621-.2092873-.29546954-.4576798l4.06547112-9.14731c.11256895-.2532801.4339384-.458536.6985621-.4584576z" fill="#f0f8fa"/></g></svg>