<svg height="64" viewBox="0 0 64 64" width="64" xmlns="http://www.w3.org/2000/svg" xmlns:xlink="http://www.w3.org/1999/xlink"><defs><rect id="a" height="56" rx="3" width="50" x="7" y="4"/><filter id="b" height="117.9%" y="-7.1%"><feOffset dx="0" dy="1" in="SourceAlpha" result="shadowOffsetOuter1"/><feGaussianBlur in="shadowOffsetOuter1" result="shadowBlurOuter1" stdDeviation="1.5"/><feComposite in="shadowBlurOuter1" in2="SourceAlpha" operator="out" result="shadowBlurOuter1"/><feColorMatrix in="shadowBlurOuter1" type="matrix" values="0 0 0 0 0   0 0 0 0 0   0 0 0 0 0  0 0 0 0.2 0"/></filter><radialGradient id="c" cx="50%" cy="17.573928%" gradientTransform="matrix(0 .892857 -1 0 .675739 -.27069)" r="96.088855%"><stop offset="0" stop-color="#04a38c"/><stop offset="1" stop-color="#075661"/></radialGradient><linearGradient id="d" x1="6.146108%" x2="0%" y1="65.618354%" y2="65.618354%"><stop offset="0" stop-color="#04a38c" stop-opacity="0"/><stop offset="1" stop-color="#075661"/></linearGradient></defs><g fill="none" fill-rule="evenodd"><use fill="#000" filter="url(#b)" xlink:href="#a"/><use fill="#000" fill-opacity=".1" fill-rule="evenodd" xlink:href="#a"/><rect fill="url(#c)" height="56" rx="3" width="50" x="7" y="4"/><path d="m57 8c0-1.65685425-1.3431458-3-3-3h-44c-1.65685425 0-3 1.34314575-3 3v-1c0-1.65685425 1.34314575-3 3-3h44c1.6568542 0 3 1.34314575 3 3z" fill="#00ab9d" fill-opacity=".6"/><rect fill="url(#d)" height="56" rx="3" width="50" x="7" y="4"/><path d="m10 53h35.5076687 9.4660651c1.1045695 0 2-.8954305 2-2v-2 8c0 1.1045695-.8954305 2-2 2h-44.9737338c-1.65685425 0-3-1.3431458-3-3 0-1.6568542 1.34314575-3 3-3z" fill="#034849"/><path d="m10 54h36.9387755 9.0612245v-2 4c0 1.1045695-.8954305 2-2 2h-44c-1.1045695 0-2-.8954305-2-2 0-1.1045695.8954305-2 2-2z" fill="#d5fcf9"/><path d="m57 56v1c0 1.6568542-1.3431458 3-3 3h-44c-1.65685425 0-3-1.3431458-3-3v-1c0 1.6568542 1.34314575 3 3 3h44c1.6568542 0 3-1.3431458 3-3z" fill="#002f2b"/><g fill="#fff" transform="translate(7 10)"><path d="m20.334761 24.6256092.491897-4.9583218c.5008187-.8395278 1.3295007-1.5397892 2.493642-2.1075835 1.5495822-.7557879 2.4839054-.9893281 4.5582628-1.1717241.4286644-.0376919.7148389-.0671451.9593945-.1013703l.5080817 5.1214638c-.3539407.0642871-.6734995.1008138-1.3621377.1580514-2.2957771.1908186-3.3733071.4459702-5.1113831 1.247304-1.0837418.4996553-1.9310079 1.1047727-2.5377572 1.8121805zm-.1827217 1.8418347c.3937536-1.2542109 1.4086118-2.2553601 3.0647454-3.0189147 1.6436508-.7577994 2.6367119-.9924424 4.8362804-1.1752644.6688585-.0555936 1.0087242-.0931791 1.3634639-.1546522l.583471 5.8813874h-10zm.8101493-8.166305.4267003-4.3011389h7.2222222l.1565545 1.5780693c-.2392337.0349345-.5199223.0642178-.962235.1031099-2.1749952.1912449-3.197956.4475007-4.8450411 1.2508443-.8043967.3923337-1.4710555.849244-1.9982009 1.3691154zm3.9810273-16.27842525c-.5683718-.02774766-1.020139-.46962681-1.020139-1.01066546 0-.55893878.4821549-1.01204819 1.0769231-1.01204819s1.0769231.45310941 1.0769231 1.01204819c0 .54103865-.4517672.9829178-1.020139 1.01066546l4.9432159 1.97728635h-10zm-6.2057327 26.97728635h12.5250336c.1572133 0 .2942975.1221042.3061862.2727273l.4305261 5.4545454c.0118887.1506231-.1151389.2727273-.2837239.2727273h-13.4310104c-.168585 0-.2956126-.1221042-.2837239-.2727273l.4305261-5.4545454c.0118887-.1506231.1489729-.2727273.3061862-.2727273zm1.5125168-24h9.5c.1380712 0 .25.11192881.25.25v1.5c0 .13807119-.1119288.25-.25.25h-9.5c-.1380712 0-.25-.11192881-.25-.25v-1.5c0-.13807119.1119288-.25.25-.25zm1.75 3.25v1.5c0 .13807119-.1119288.25-.25.25h-.5c-.1380712 0-.25-.11192881-.25-.25v-1.5c0-.13807119.1119288-.25.25-.25h.5c.1380712 0 .25.11192881.25.25zm7 0v1.5c0 .13807119-.1119288.25-.25.25h-.5c-.1380712 0-.25-.11192881-.25-.25v-1.5c0-.13807119.1119288-.25.25-.25h.5c.1380712 0 .25.11192881.25.25zm-2.3846154 0v1.5c0 .13807119-.1119288.25-.25.25h-2.7307692c-.1380712 0-.25-.11192881-.25-.25v-1.5c0-.13807119.1119288-.25.25-.25h2.7307692c.1380712 0 .25.11192881.25.25zm-6.3653846 2.75h9.5c.1380712 0 .25.1119288.25.25v1.5c0 .1380712-.1119288.25-.25.25h-9.5c-.1380712 0-.25-.1119288-.25-.25v-1.5c0-.1380712.1119288-.25.25-.25zm4 7c-.1380712 0-.25.1119288-.25.25v2.5c0 .1380712.1119288.25.25.25h1.5c.1380712 0 .25-.1119288.25-.25v-2.5c0-.1380712-.1119288-.25-.25-.25z"/><path d="m0 13v-8l19 3.04311074v1.91377852zm31-4.95688926 19-3.04311074v8l-19-3.04311074z" opacity=".3"/><path d="m31.0056144 35.7076657c.0013636.0010389.0027345.001972.0041027.0027939-.000463-.0002781-.0009667-.0005635-.0015108-.0008558zm-.5800196-.0664805c-.4698429-.0180582-1.1909182-.0089897-2.1619501.0273132-1.94602.0727537-5.2181612.0619305-9.1656195.3531171-.2535316-.1181801-.3926844-.2218988-.4174583-.3111559-.0371609-.1338857-.0476816-.3661238.1883589-.5142589.7654317-.3562646 11.0791583-.0625882 11.556669-.0442353.2430447.0093413.6513825.0198306.7712528.0442353.1867178.0380144.2562529.6729354.2006176.8254148-.1277431.3501048-2.7468101.0742526-7.8594002.5193514 7.8594002.4439341 7.8278672.4531396 6.8971117 1.039978-1.6759775 1.0566984-12.1105777 2.2470955-12.1105777 2.2470955 6.1741019 0 13.7826954.7105478 14.7779947 1.2249599.9952993.5144122-5.401271 1.7300798-7.8410458 1.7300798 1.1190543-.1587089 3.7030428-.4248975 5.2495994-1.0774587.1561821-.0659002.7905311-.3220596.4944671-.4409987-.381266-.1531676-1.1404939-.3507228-2.2866468-.4902666-2.3089955-.2811195-6.1436836-.5272433-11.5022075-.7380873-1.0081072.0439376-1.3761236.0294571-1.1040492-.0434414-.8658893-.5010511 3.6328422-1.5160389 10.2678913-2.4118825.5491494-.3646991-1.2073155-.667266-5.2693945-.9077007-.0574253-.1879065.3936776-.3455317 1.3533087-.4728756 1.0194456-.1352813 8.0976143-.4402083 8.3799291-.5277589-.1024953-.0140492-.2425138-.0246471-.4188507-.0314245z" fill-rule="nonzero" opacity=".2"/></g></g></svg>