<svg height="48" viewBox="0 0 48 48" width="48" xmlns="http://www.w3.org/2000/svg" xmlns:xlink="http://www.w3.org/1999/xlink"><linearGradient id="a" x1="50%" x2="50%" y1="0%" y2="100%"><stop offset="0" stop-color="#0287fa"/><stop offset="1" stop-color="#0170d3"/></linearGradient><g fill="none" fill-rule="evenodd" transform="translate(2 2)"><rect fill="url(#a)" height="44" rx="7.333333" width="44"/><path d="m22.1222222 18.7935085c3.8463482-4.0549316 7.1511413-6.0823974 9.9143791-6.0823974 5.1221703 0 9.2745098 4.1587772 9.2745098 9.2888889s-4.1523395 9.2888889-9.2745098 9.2888889c-2.7632378 0-6.0680309-2.0274658-9.9143791-6.0823974-3.8463482 4.0549316-7.1511412 6.0823974-9.9143791 6.0823974-5.12217029 0-9.27450977-4.1587772-9.27450977-9.2888889s4.15233948-9.2888889 9.27450977-9.2888889c2.7632379 0 6.0680309 2.0274658 9.9143791 6.0823974zm-10.0222222 8.5842693c1.9350421 0 4.3387458-1.7518519 7.2111111-5.2555556-2.8723653-3.5037037-5.276069-5.2555555-7.2111111-5.2555555-2.90256319 0-5.25555556 2.3529923-5.25555556 5.2555555s2.35299237 5.2555556 5.25555556 5.2555556zm20.2888889 0c2.9025632 0 5.2555555-2.3529924 5.2555555-5.2555556s-2.3529923-5.2555555-5.2555555-5.2555555c-1.9350421 0-4.3387458 1.7518518-7.2111111 5.2555555 2.8723653 3.5037037 5.276069 5.2555556 7.2111111 5.2555556z" fill="#fff"/></g></svg>