<svg viewBox="0 0 48 48" xmlns="http://www.w3.org/2000/svg"><g fill-opacity=".9412" transform="matrix(.28222225 0 0 .28222225 -23.674518 -11.39621)"><path d="m-13.87544 27.499989a12.499974 12.499974 0 1 1 -24.999948 0 12.499974 12.499974 0 1 1 24.999948 0z" fill="#34495f"/><g fill="#1abc9f" transform="translate(1.000002 .097887)"><path d="m167.352 84.041c-3.359.016-6.567.305-9.39.809-8.316 1.483-9.825 4.588-9.825 10.314v7.562h19.651v2.521h-19.651-7.375c-5.711 0-10.712 3.466-12.276 10.06-1.804 7.558-1.884 12.274 0 20.166 1.397 5.874 4.733 10.06 10.444 10.06h6.756v-9.065c0-6.549 5.612-12.326 12.276-12.326h19.628c5.464 0 9.825-4.542 9.825-10.083v-18.894c0-5.377-4.492-9.417-9.825-10.314-3.375-.568-6.878-.825-10.238-.81zm-10.626 6.082c2.03 0 3.687 1.701 3.687 3.793 0 2.084-1.658 3.77-3.687 3.77-2.037 0-3.687-1.685-3.687-3.77-.001-2.092 1.65-3.793 3.687-3.793z"/><path d="m190.004 105.096v8.746c0 6.781-5.747 12.488-12.301 12.488h-19.668c-5.387 0-9.845 4.612-9.845 10.009v18.755c0 5.338 4.64 8.477 9.845 10.008 6.233 1.833 12.21 2.165 19.668 0 4.957-1.436 9.845-4.325 9.845-10.008v-7.506h-19.668v-2.502h19.668 9.846c5.722 0 7.855-3.993 9.845-9.986 2.056-6.17 1.969-12.103 0-20.017-1.414-5.698-4.115-9.986-9.845-9.986h-7.39zm-11.062 47.495c2.041 0 3.695 1.673 3.695 3.742 0 2.076-1.654 3.765-3.695 3.765-2.034 0-3.695-1.689-3.695-3.765 0-2.069 1.661-3.742 3.695-3.742z"/></g></g></svg>