<svg viewBox="0 0 48 48" xmlns="http://www.w3.org/2000/svg" xmlns:xlink="http://www.w3.org/1999/xlink"><linearGradient id="a" gradientUnits="userSpaceOnUse" x1="24" x2="24.002199" y1="5" y2="43.135399"><stop offset="0" stop-color="#f6f9fb"/><stop offset="1" stop-color="#d1dfec"/></linearGradient><linearGradient id="b" gradientTransform="matrix(.7031 0 0 -.6996 -397.9468 -711.4778)" gradientUnits="userSpaceOnUse" x1="577.94489" x2="621.06403" y1="-1049.7991" y2="-1049.7991"><stop offset="0" stop-color="#f3cb20" stop-opacity=".3"/><stop offset=".2202" stop-color="#f3cb20"/><stop offset=".56110001" stop-color="#f3cb20"/><stop offset="1" stop-color="#f3cb20" stop-opacity=".2"/></linearGradient><path d="m43.494742 43.450518c0 .58106-.45979 1.05264-1.02632 1.05264h-36.9473636c-.5665271 0-1.0263161-.47158-1.0263161-1.05264v-37.8947281c0-.5810535.459789-1.0526319 1.0263161-1.0526319h36.9473636c.56653 0 1.02632.4715784 1.02632 1.0526319z" opacity=".05"/><path d="m42.998127 42.982406c0 .56653-.448 1.02632-1.000011 1.02632h-35.9999888c-.5520005 0-1.0000001-.45979-1.0000001-1.02632v-36.9473652c0-.5665265.4479996-1.0263159 1.0000001-1.0263159h35.9999888c.552011 0 1.000011.4597894 1.000011 1.0263159z" opacity=".1"/><path d="m43.003122 42.539575c0 .559265-.448 1.01316-1.000007 1.01316h-35.9999921c-.5520001 0-1.0000001-.453895-1.0000001-1.01316v-36.4736821c0-.559263.448-1.0131579 1.0000001-1.0131579h35.9999921c.552007 0 1.000007.4538949 1.000007 1.0131579z" opacity=".14"/><path d="m43.002 42.003c0 .552-.448 1-1 1h-36c-.552 0-1-.448-1-1v-36c0-.552.448-1 1-1h36c.552 0 1 .448 1 1z" fill="url(#a)"/><path d="m8 8h32v32h-32z" fill="#362b18" fill-rule="evenodd"/><path d="m13.972 12.185-2.435 13.81-3.5486542.02861v1l4.4946542-.02861 2.016-11.419 2.892 17.876.553 3.09.553-3.069 1.243-8.478h4.278l.63-1.935 1.998 7.131 1.473-3.196 11.876952.0042v-1l-12.578952-.0042-.489 1.062-2.209-7.903-1.525 4.841h-4.417l-.86 5.77-2.84-17.476-.544-2.908z" fill="url(#b)"/><g fill="#f0c512"><path d="m30.367 33.328c0 1.163 1.329 1.807 2.077 2.525.784-.751 2.061-1.47 2.061-2.525 0-.99-1.696-1.326-2.07-.174-.431-1.125-2.068-.918-2.068.174z"/><text font-family="Arial-BoldMT" font-size="5.034953" transform="scale(1.0334892 .96759595)" x="22.630037" y="37.005322">49</text><path d="m30.251 18.995h3.31c.228 0 .426.129.426.298v.307c0 .169-.197.395-.426.395h-3.31c-.229 0-.265-.226-.265-.395v-.307c.001-.169.036-.298.265-.298z"/><path d="m30.251 16.995h3.31c.228 0 .426.18.426.35v.307c0 .168-.197.343-.426.343h-3.31c-.229 0-.265-.175-.265-.343v-.307c.001-.17.036-.35.265-.35z"/><path d="m30.251 14.995h3.31c.228 0 .426.18.426.35v.307c0 .168-.197.343-.426.343h-3.31c-.229 0-.265-.175-.265-.343v-.307c.001-.17.036-.35.265-.35z" opacity=".8"/><path d="m30.329 12.995h3.31c.228 0 .348.157.348.326v.308c0 .169-.119.366-.348.366h-3.31c-.229 0-.343-.197-.343-.366v-.308c.001-.169.114-.326.343-.326z" opacity=".608"/><path d="m30.329 10.995h3.31c.228 0 .348.161.348.331v.308c0 .168-.119.362-.348.362h-3.31c-.229 0-.343-.193-.343-.362v-.308c.001-.17.114-.331.343-.331z" opacity=".5"/></g></svg>