<svg height="64" viewBox="0 0 64 64.000003" width="64" xmlns="http://www.w3.org/2000/svg"><g transform="translate(0 -1058.5196)"><path d="m4.000001 1064.5197h56v51.999947h-56z" fill="#2c3e50"/><path d="m4 1063.5196c-.554038 0-1 .446-1 1v51 1c0 .554.445962 1 1 1h1 55c.554038 0 1-.446 1-1v-52c0-.554-.445962-1-1-1h-55zm1 4h54v48h-54z" fill="#34495e"/><circle cx="57.999981" cy="1065.5197" fill="#ecf0f1" r="1"/><path d="m5.000001 1067.5197h54v1.018868h-54z" fill="#03c9a9"/><path d="m3 1116.5196c0 .554.445962 1 1 1h56c.554038 0 1-.446 1-1z" fill="#2c3e4f"/><path d="m5 1108.5197h39v1h-39z" fill="#dadfe1"/><circle cx="43.499992" cy="1109.0192" fill="#dadfe1" r="2.5"/><circle cx="43.499992" cy="1109.0192" fill="#6c7a89" r="1.5"/><path d="m25 1097.5196v-20l14 10.7693z" fill="#dadfe1" fill-rule="evenodd"/></g></svg>