<svg height="48" viewBox="0 0 48 48" width="48" xmlns="http://www.w3.org/2000/svg"><g fill="none" fill-rule="evenodd"><g transform="translate(2 2)"><g><path d="m0 0h2.93333333v2.93333333h-2.93333333z" fill="#cd3b3f" fill-rule="evenodd"/><path d="m.25.25v2.43333333h2.43333333v-2.43333333z" stroke="#d4ffff" stroke-width=".5"/></g><g><path d="m0 17.6h2.93333333v2.9333333h-2.93333333z" fill="#9fe1e4" fill-rule="evenodd"/><path d="m.25 17.85v2.4333333h2.43333333v-2.4333333z" stroke="#d4ffff" stroke-width=".5"/></g><g><path d="m0 2.93333333h2.93333333v2.93333334h-2.93333333z" fill="#9fe1e4" fill-rule="evenodd"/><path d="m.25 3.18333333v2.43333334h2.43333333v-2.43333334z" stroke="#d4ffff" stroke-width=".5"/></g><g><path d="m0 20.5333333h2.93333333v2.9333334h-2.93333333z" fill="#cd3b3f" fill-rule="evenodd"/><path d="m.25 20.7833333v2.4333334h2.43333333v-2.4333334z" stroke="#d4ffff" stroke-width=".5"/></g><g><path d="m0 5.86666667h2.93333333v2.93333333h-2.93333333z" fill="#a0d0f7" fill-rule="evenodd"/><path d="m.25 6.11666667v2.43333333h2.43333333v-2.43333333z" stroke="#d4ffff" stroke-width=".5"/></g><g><path d="m0 23.4666667h2.93333333v2.9333333h-2.93333333z" fill="#9fe1e4" fill-rule="evenodd"/><path d="m.25 23.7166667v2.4333333h2.43333333v-2.4333333z" stroke="#d4ffff" stroke-width=".5"/></g><g><path d="m0 8.8h2.93333333v2.9333333h-2.93333333z" fill="#9fe1e4" fill-rule="evenodd"/><path d="m.25 9.05v2.4333333h2.43333333v-2.4333333z" stroke="#d4ffff" stroke-width=".5"/></g><g><path d="m0 26.4h2.93333333v2.9333333h-2.93333333z" fill="#9fe1e4" fill-rule="evenodd"/><path d="m.25 26.65v2.4333333h2.43333333v-2.4333333z" stroke="#d4ffff" stroke-width=".5"/></g><g><path d="m0 11.7333333h2.93333333v2.9333334h-2.93333333z" fill="#9fe1e4" fill-rule="evenodd"/><path d="m.25 11.9833333v2.4333334h2.43333333v-2.4333334z" stroke="#d4ffff" stroke-width=".5"/></g><g><path d="m0 29.333333h2.933333v2.933333h-2.933333z" fill="#9fe1e4" fill-rule="evenodd"/><path d="m.25 29.583333h2.433333v2.433333h-2.433333z" stroke="#d4ffff" stroke-width=".5"/></g><g><path d="m0 35.2h2.93333333v2.9333333h-2.93333333z" fill="#a0d0f7" fill-rule="evenodd"/><path d="m.25 35.45v2.4333333h2.43333333v-2.4333333z" stroke="#d4ffff" stroke-width=".5"/></g><g><path d="m0 14.6666667h2.93333333v2.9333333h-2.93333333z" fill="#9fe1e4" fill-rule="evenodd"/><path d="m.25 14.9166667v2.4333333h2.43333333v-2.4333333z" stroke="#d4ffff" stroke-width=".5"/></g><g><path d="m0 32.2666667h2.93333333v2.9333333h-2.93333333z" fill="#9fe1e4" fill-rule="evenodd"/><path d="m.25 32.5166667v2.4333333h2.43333333v-2.4333333z" stroke="#d4ffff" stroke-width=".5"/></g><g><path d="m0 38.1333333h2.93333333v2.9333334h-2.93333333z" fill="#9fe1e4" fill-rule="evenodd"/><path d="m.25 38.3833333v2.4333334h2.43333333v-2.4333334z" stroke="#d4ffff" stroke-width=".5"/></g><g><path d="m0 41.0666667h2.93333333v2.9333333h-2.93333333z" fill="#cd3b3f" fill-rule="evenodd"/><path d="m.25 41.3166667v2.4333333h2.43333333v-2.4333333z" stroke="#d4ffff" stroke-width=".5"/></g></g><g transform="translate(25.466667 2)"><path d="m0 0h2.93333333v2.93333333h-2.93333333z" fill="#9fe1e4" fill-rule="evenodd"/><path d="m.25.25v2.43333333h2.43333333v-2.43333333z" stroke="#d4ffff" stroke-width=".5"/></g><g transform="translate(25.466667 2)"><path d="m0 17.6h2.93333333v2.9333333h-2.93333333z" fill="#f6aea9" fill-rule="evenodd"/><path d="m.25 17.85v2.4333333h2.43333333v-2.4333333z" stroke="#d4ffff" stroke-width=".5"/></g><g transform="translate(25.466667 2)"><path d="m0 2.93333333h2.93333333v2.93333334h-2.93333333z" fill="#9fe1e4" fill-rule="evenodd"/><path d="m.25 3.18333333v2.43333334h2.43333333v-2.43333334z" stroke="#d4ffff" stroke-width=".5"/></g><g transform="translate(25.466667 2)"><path d="m0 20.5333333h2.93333333v2.9333334h-2.93333333z" fill="#9fe1e4" fill-rule="evenodd"/><path d="m.25 20.7833333v2.4333334h2.43333333v-2.4333334z" stroke="#d4ffff" stroke-width=".5"/></g><g transform="translate(25.466667 2)"><path d="m0 5.86666667h2.93333333v2.93333333h-2.93333333z" fill="#a0d0f7" fill-rule="evenodd"/><path d="m.25 6.11666667v2.43333333h2.43333333v-2.43333333z" stroke="#d4ffff" stroke-width=".5"/></g><g transform="translate(25.466667 2)"><path d="m0 23.4666667h2.93333333v2.9333333h-2.93333333z" fill="#f6aea9" fill-rule="evenodd"/><path d="m.25 23.7166667v2.4333333h2.43333333v-2.4333333z" stroke="#d4ffff" stroke-width=".5"/></g><g transform="translate(25.466667 2)"><path d="m0 8.8h2.93333333v2.9333333h-2.93333333z" fill="#9fe1e4" fill-rule="evenodd"/><path d="m.25 9.05v2.4333333h2.43333333v-2.4333333z" stroke="#d4ffff" stroke-width=".5"/></g><g transform="translate(25.466667 2)"><path d="m0 26.4h2.93333333v2.9333333h-2.93333333z" fill="#9fe1e4" fill-rule="evenodd"/><path d="m.25 26.65v2.4333333h2.43333333v-2.4333333z" stroke="#d4ffff" stroke-width=".5"/></g><g transform="translate(25.466667 2)"><path d="m0 11.7333333h2.93333333v2.9333334h-2.93333333z" fill="#9fe1e4" fill-rule="evenodd"/><path d="m.25 11.9833333v2.4333334h2.43333333v-2.4333334z" stroke="#d4ffff" stroke-width=".5"/></g><g transform="translate(25.466667 2)"><path d="m0 29.333333h2.933333v2.933333h-2.933333z" fill="#9fe1e4" fill-rule="evenodd"/><path d="m.25 29.583333h2.433333v2.433333h-2.433333z" stroke="#d4ffff" stroke-width=".5"/></g><g transform="translate(25.466667 2)"><path d="m0 35.2h2.93333333v2.9333333h-2.93333333z" fill="#a0d0f7" fill-rule="evenodd"/><path d="m.25 35.45v2.4333333h2.43333333v-2.4333333z" stroke="#d4ffff" stroke-width=".5"/></g><g transform="translate(25.466667 2)"><path d="m0 14.6666667h2.93333333v2.9333333h-2.93333333z" fill="#9fe1e4" fill-rule="evenodd"/><path d="m.25 14.9166667v2.4333333h2.43333333v-2.4333333z" stroke="#d4ffff" stroke-width=".5"/></g><g transform="translate(25.466667 2)"><path d="m0 32.2666667h2.93333333v2.9333333h-2.93333333z" fill="#9fe1e4" fill-rule="evenodd"/><path d="m.25 32.5166667v2.4333333h2.43333333v-2.4333333z" stroke="#d4ffff" stroke-width=".5"/></g><g transform="translate(25.466667 2)"><path d="m0 38.1333333h2.93333333v2.9333334h-2.93333333z" fill="#9fe1e4" fill-rule="evenodd"/><path d="m.25 38.3833333v2.4333334h2.43333333v-2.4333334z" stroke="#d4ffff" stroke-width=".5"/></g><g transform="translate(25.466667 2)"><path d="m0 41.0666667h2.93333333v2.9333333h-2.93333333z" fill="#9fe1e4" fill-rule="evenodd"/><path d="m.25 41.3166667v2.4333333h2.43333333v-2.4333333z" stroke="#d4ffff" stroke-width=".5"/></g><g transform="translate(13.733333 2)"><path d="m0 0h2.93333333v2.93333333h-2.93333333z" fill="#9fe1e4" fill-rule="evenodd"/><path d="m.25.25v2.43333333h2.43333333v-2.43333333z" stroke="#d4ffff" stroke-width=".5"/></g><g transform="translate(13.733333 2)"><path d="m0 17.6h2.93333333v2.9333333h-2.93333333z" fill="#9fe1e4" fill-rule="evenodd"/><path d="m.25 17.85v2.4333333h2.43333333v-2.4333333z" stroke="#d4ffff" stroke-width=".5"/></g><g transform="translate(13.733333 2)"><path d="m0 2.93333333h2.93333333v2.93333334h-2.93333333z" fill="#9fe1e4" fill-rule="evenodd"/><path d="m.25 3.18333333v2.43333334h2.43333333v-2.43333334z" stroke="#d4ffff" stroke-width=".5"/></g><g transform="translate(13.733333 2)"><path d="m0 20.5333333h2.93333333v2.9333334h-2.93333333z" fill="#9fe1e4" fill-rule="evenodd"/><path d="m.25 20.7833333v2.4333334h2.43333333v-2.4333334z" stroke="#d4ffff" stroke-width=".5"/></g><g transform="translate(13.733333 2)"><path d="m0 5.86666667h2.93333333v2.93333333h-2.93333333z" fill="#9fe1e4" fill-rule="evenodd"/><path d="m.25 6.11666667v2.43333333h2.43333333v-2.43333333z" stroke="#d4ffff" stroke-width=".5"/></g><g transform="translate(13.733333 2)"><path d="m0 23.4666667h2.93333333v2.9333333h-2.93333333z" fill="#9fe1e4" fill-rule="evenodd"/><path d="m.25 23.7166667v2.4333333h2.43333333v-2.4333333z" stroke="#d4ffff" stroke-width=".5"/></g><g transform="translate(13.733333 2)"><path d="m0 8.8h2.93333333v2.9333333h-2.93333333z" fill="#9fe1e4" fill-rule="evenodd"/><path d="m.25 9.05v2.4333333h2.43333333v-2.4333333z" stroke="#d4ffff" stroke-width=".5"/></g><g transform="translate(13.733333 2)"><path d="m0 26.4h2.93333333v2.9333333h-2.93333333z" fill="#9fe1e4" fill-rule="evenodd"/><path d="m.25 26.65v2.4333333h2.43333333v-2.4333333z" stroke="#d4ffff" stroke-width=".5"/></g><g transform="translate(13.733333 2)"><path d="m0 11.7333333h2.93333333v2.9333334h-2.93333333z" fill="#f6aea9" fill-rule="evenodd"/><path d="m.25 11.9833333v2.4333334h2.43333333v-2.4333334z" stroke="#d4ffff" stroke-width=".5"/></g><g transform="translate(13.733333 2)"><path d="m0 29.333333h2.933333v2.933333h-2.933333z" fill="#f6aea9" fill-rule="evenodd"/><path d="m.25 29.583333h2.433333v2.433333h-2.433333z" stroke="#d4ffff" stroke-width=".5"/></g><g transform="translate(13.733333 2)"><path d="m0 35.2h2.93333333v2.9333333h-2.93333333z" fill="#9fe1e4" fill-rule="evenodd"/><path d="m.25 35.45v2.4333333h2.43333333v-2.4333333z" stroke="#d4ffff" stroke-width=".5"/></g><g transform="translate(13.733333 2)"><path d="m0 14.6666667h2.93333333v2.9333333h-2.93333333z" fill="#9fe1e4" fill-rule="evenodd"/><path d="m.25 14.9166667v2.4333333h2.43333333v-2.4333333z" stroke="#d4ffff" stroke-width=".5"/></g><g transform="translate(13.733333 2)"><path d="m0 32.2666667h2.93333333v2.9333333h-2.93333333z" fill="#9fe1e4" fill-rule="evenodd"/><path d="m.25 32.5166667v2.4333333h2.43333333v-2.4333333z" stroke="#d4ffff" stroke-width=".5"/></g><g transform="translate(13.733333 2)"><path d="m0 38.1333333h2.93333333v2.9333334h-2.93333333z" fill="#9fe1e4" fill-rule="evenodd"/><path d="m.25 38.3833333v2.4333334h2.43333333v-2.4333334z" stroke="#d4ffff" stroke-width=".5"/></g><g transform="translate(13.733333 2)"><path d="m0 41.0666667h2.93333333v2.9333333h-2.93333333z" fill="#9fe1e4" fill-rule="evenodd"/><path d="m.25 41.3166667v2.4333333h2.43333333v-2.4333333z" stroke="#d4ffff" stroke-width=".5"/></g><g transform="translate(37.2 2)"><path d="m0 0h2.93333333v2.93333333h-2.93333333z" fill="#9fe1e4" fill-rule="evenodd"/><path d="m.25.25v2.43333333h2.43333333v-2.43333333z" stroke="#d4ffff" stroke-width=".5"/></g><g transform="translate(37.2 2)"><path d="m0 17.6h2.93333333v2.9333333h-2.93333333z" fill="#f6aea9" fill-rule="evenodd"/><path d="m.25 17.85v2.4333333h2.43333333v-2.4333333z" stroke="#d4ffff" stroke-width=".5"/></g><g transform="translate(37.2 2)"><path d="m0 2.93333333h2.93333333v2.93333334h-2.93333333z" fill="#9fe1e4" fill-rule="evenodd"/><path d="m.25 3.18333333v2.43333334h2.43333333v-2.43333334z" stroke="#d4ffff" stroke-width=".5"/></g><g transform="translate(37.2 2)"><path d="m0 20.5333333h2.93333333v2.9333334h-2.93333333z" fill="#9fe1e4" fill-rule="evenodd"/><path d="m.25 20.7833333v2.4333334h2.43333333v-2.4333334z" stroke="#d4ffff" stroke-width=".5"/></g><g transform="translate(37.2 2)"><path d="m0 5.86666667h2.93333333v2.93333333h-2.93333333z" fill="#f6aea9" fill-rule="evenodd"/><path d="m.25 6.11666667v2.43333333h2.43333333v-2.43333333z" stroke="#d4ffff" stroke-width=".5"/></g><g transform="translate(37.2 2)"><path d="m0 23.4666667h2.93333333v2.9333333h-2.93333333z" fill="#f6aea9" fill-rule="evenodd"/><path d="m.25 23.7166667v2.4333333h2.43333333v-2.4333333z" stroke="#d4ffff" stroke-width=".5"/></g><g transform="translate(37.2 2)"><path d="m0 8.8h2.93333333v2.9333333h-2.93333333z" fill="#9fe1e4" fill-rule="evenodd"/><path d="m.25 9.05v2.4333333h2.43333333v-2.4333333z" stroke="#d4ffff" stroke-width=".5"/></g><g transform="translate(37.2 2)"><path d="m0 26.4h2.93333333v2.9333333h-2.93333333z" fill="#9fe1e4" fill-rule="evenodd"/><path d="m.25 26.65v2.4333333h2.43333333v-2.4333333z" stroke="#d4ffff" stroke-width=".5"/></g><g transform="translate(37.2 2)"><path d="m0 11.7333333h2.93333333v2.9333334h-2.93333333z" fill="#9fe1e4" fill-rule="evenodd"/><path d="m.25 11.9833333v2.4333334h2.43333333v-2.4333334z" stroke="#d4ffff" stroke-width=".5"/></g><g transform="translate(37.2 2)"><path d="m0 29.333333h2.933333v2.933333h-2.933333z" fill="#9fe1e4" fill-rule="evenodd"/><path d="m.25 29.583333h2.433333v2.433333h-2.433333z" stroke="#d4ffff" stroke-width=".5"/></g><g transform="translate(37.2 2)"><path d="m0 35.2h2.93333333v2.9333333h-2.93333333z" fill="#f6aea9" fill-rule="evenodd"/><path d="m.25 35.45v2.4333333h2.43333333v-2.4333333z" stroke="#d4ffff" stroke-width=".5"/></g><g transform="translate(37.2 2)"><path d="m0 14.6666667h2.93333333v2.9333333h-2.93333333z" fill="#9fe1e4" fill-rule="evenodd"/><path d="m.25 14.9166667v2.4333333h2.43333333v-2.4333333z" stroke="#d4ffff" stroke-width=".5"/></g><g transform="translate(37.2 2)"><path d="m0 32.2666667h2.93333333v2.9333333h-2.93333333z" fill="#9fe1e4" fill-rule="evenodd"/><path d="m.25 32.5166667v2.4333333h2.43333333v-2.4333333z" stroke="#d4ffff" stroke-width=".5"/></g><g transform="translate(37.2 2)"><path d="m0 38.1333333h2.93333333v2.9333334h-2.93333333z" fill="#9fe1e4" fill-rule="evenodd"/><path d="m.25 38.3833333v2.4333334h2.43333333v-2.4333334z" stroke="#d4ffff" stroke-width=".5"/></g><g transform="translate(37.2 2)"><path d="m0 41.0666667h2.93333333v2.9333333h-2.93333333z" fill="#9fe1e4" fill-rule="evenodd"/><path d="m.25 41.3166667v2.4333333h2.43333333v-2.4333333z" stroke="#d4ffff" stroke-width=".5"/></g><g transform="translate(7.866667 2)"><path d="m0 0h2.93333333v2.93333333h-2.93333333z" fill="#9fe1e4" fill-rule="evenodd"/><path d="m.25.25v2.43333333h2.43333333v-2.43333333z" stroke="#d4ffff" stroke-width=".5"/></g><g transform="translate(7.866667 2)"><path d="m0 17.6h2.93333333v2.9333333h-2.93333333z" fill="#f6aea9" fill-rule="evenodd"/><path d="m.25 17.85v2.4333333h2.43333333v-2.4333333z" stroke="#d4ffff" stroke-width=".5"/></g><g transform="translate(7.866667 2)"><path d="m0 2.93333333h2.93333333v2.93333334h-2.93333333z" fill="#9fe1e4" fill-rule="evenodd"/><path d="m.25 3.18333333v2.43333334h2.43333333v-2.43333334z" stroke="#d4ffff" stroke-width=".5"/></g><g transform="translate(7.866667 2)"><path d="m0 20.5333333h2.93333333v2.9333334h-2.93333333z" fill="#9fe1e4" fill-rule="evenodd"/><path d="m.25 20.7833333v2.4333334h2.43333333v-2.4333334z" stroke="#d4ffff" stroke-width=".5"/></g><g transform="translate(7.866667 2)"><path d="m0 5.86666667h2.93333333v2.93333333h-2.93333333z" fill="#f6aea9" fill-rule="evenodd"/><path d="m.25 6.11666667v2.43333333h2.43333333v-2.43333333z" stroke="#d4ffff" stroke-width=".5"/></g><g transform="translate(7.866667 2)"><path d="m0 23.4666667h2.93333333v2.9333333h-2.93333333z" fill="#f6aea9" fill-rule="evenodd"/><path d="m.25 23.7166667v2.4333333h2.43333333v-2.4333333z" stroke="#d4ffff" stroke-width=".5"/></g><g transform="translate(7.866667 2)"><path d="m0 8.8h2.93333333v2.9333333h-2.93333333z" fill="#9fe1e4" fill-rule="evenodd"/><path d="m.25 9.05v2.4333333h2.43333333v-2.4333333z" stroke="#d4ffff" stroke-width=".5"/></g><g transform="translate(7.866667 2)"><path d="m0 26.4h2.93333333v2.9333333h-2.93333333z" fill="#9fe1e4" fill-rule="evenodd"/><path d="m.25 26.65v2.4333333h2.43333333v-2.4333333z" stroke="#d4ffff" stroke-width=".5"/></g><g transform="translate(7.866667 2)"><path d="m0 11.7333333h2.93333333v2.9333334h-2.93333333z" fill="#9fe1e4" fill-rule="evenodd"/><path d="m.25 11.9833333v2.4333334h2.43333333v-2.4333334z" stroke="#d4ffff" stroke-width=".5"/></g><g transform="translate(7.866667 2)"><path d="m0 29.3333333h2.93333333v2.9333334h-2.93333333z" fill="#9fe1e4" fill-rule="evenodd"/><path d="m.25 29.5833333v2.4333334h2.43333333v-2.4333334z" stroke="#d4ffff" stroke-width=".5"/></g><g transform="translate(7.866667 2)"><path d="m0 35.2h2.93333333v2.9333333h-2.93333333z" fill="#f6aea9" fill-rule="evenodd"/><path d="m.25 35.45v2.4333333h2.43333333v-2.4333333z" stroke="#d4ffff" stroke-width=".5"/></g><g transform="translate(7.866667 2)"><path d="m0 14.6666667h2.93333333v2.9333333h-2.93333333z" fill="#9fe1e4" fill-rule="evenodd"/><path d="m.25 14.9166667v2.4333333h2.43333333v-2.4333333z" stroke="#d4ffff" stroke-width=".5"/></g><g transform="translate(7.866667 2)"><path d="m0 32.2666667h2.93333333v2.9333333h-2.93333333z" fill="#9fe1e4" fill-rule="evenodd"/><path d="m.25 32.5166667v2.4333333h2.43333333v-2.4333333z" stroke="#d4ffff" stroke-width=".5"/></g><g transform="translate(7.866667 2)"><path d="m0 38.1333333h2.93333333v2.9333334h-2.93333333z" fill="#9fe1e4" fill-rule="evenodd"/><path d="m.25 38.3833333v2.4333334h2.43333333v-2.4333334z" stroke="#d4ffff" stroke-width=".5"/></g><g transform="translate(7.866667 2)"><path d="m0 41.0666667h2.93333333v2.9333333h-2.93333333z" fill="#9fe1e4" fill-rule="evenodd"/><path d="m.25 41.3166667v2.4333333h2.43333333v-2.4333333z" stroke="#d4ffff" stroke-width=".5"/></g><g transform="translate(31.333333 2)"><path d="m0 0h2.93333333v2.93333333h-2.93333333z" fill="#9fe1e4" fill-rule="evenodd"/><path d="m.25.25v2.43333333h2.43333333v-2.43333333z" stroke="#d4ffff" stroke-width=".5"/></g><g transform="translate(31.333333 2)"><path d="m0 17.6h2.93333333v2.9333333h-2.93333333z" fill="#9fe1e4" fill-rule="evenodd"/><path d="m.25 17.85v2.4333333h2.43333333v-2.4333333z" stroke="#d4ffff" stroke-width=".5"/></g><g transform="translate(31.333333 2)"><path d="m0 2.93333333h2.93333333v2.93333334h-2.93333333z" fill="#9fe1e4" fill-rule="evenodd"/><path d="m.25 3.18333333v2.43333334h2.43333333v-2.43333334z" stroke="#d4ffff" stroke-width=".5"/></g><g transform="translate(31.333333 2)"><path d="m0 20.5333333h2.93333333v2.9333334h-2.93333333z" fill="#9fe1e4" fill-rule="evenodd"/><path d="m.25 20.7833333v2.4333334h2.43333333v-2.4333334z" stroke="#d4ffff" stroke-width=".5"/></g><g transform="translate(31.333333 2)"><path d="m0 5.86666667h2.93333333v2.93333333h-2.93333333z" fill="#9fe1e4" fill-rule="evenodd"/><path d="m.25 6.11666667v2.43333333h2.43333333v-2.43333333z" stroke="#d4ffff" stroke-width=".5"/></g><g transform="translate(31.333333 2)"><path d="m0 23.4666667h2.93333333v2.9333333h-2.93333333z" fill="#9fe1e4" fill-rule="evenodd"/><path d="m.25 23.7166667v2.4333333h2.43333333v-2.4333333z" stroke="#d4ffff" stroke-width=".5"/></g><g transform="translate(31.333333 2)"><path d="m0 8.8h2.93333333v2.9333333h-2.93333333z" fill="#9fe1e4" fill-rule="evenodd"/><path d="m.25 9.05v2.4333333h2.43333333v-2.4333333z" stroke="#d4ffff" stroke-width=".5"/></g><g transform="translate(31.333333 2)"><path d="m0 26.4h2.93333333v2.9333333h-2.93333333z" fill="#9fe1e4" fill-rule="evenodd"/><path d="m.25 26.65v2.4333333h2.43333333v-2.4333333z" stroke="#d4ffff" stroke-width=".5"/></g><g transform="translate(31.333333 2)"><path d="m0 11.7333333h2.93333333v2.9333334h-2.93333333z" fill="#f6aea9" fill-rule="evenodd"/><path d="m.25 11.9833333v2.4333334h2.43333333v-2.4333334z" stroke="#d4ffff" stroke-width=".5"/></g><g transform="translate(31.333333 2)"><path d="m0 29.333333h2.933333v2.933333h-2.933333z" fill="#f6aea9" fill-rule="evenodd"/><path d="m.25 29.583333h2.433333v2.433333h-2.433333z" stroke="#d4ffff" stroke-width=".5"/></g><g transform="translate(31.333333 2)"><path d="m0 35.2h2.93333333v2.9333333h-2.93333333z" fill="#9fe1e4" fill-rule="evenodd"/><path d="m.25 35.45v2.4333333h2.43333333v-2.4333333z" stroke="#d4ffff" stroke-width=".5"/></g><g transform="translate(31.333333 2)"><path d="m0 14.6666667h2.93333333v2.9333333h-2.93333333z" fill="#9fe1e4" fill-rule="evenodd"/><path d="m.25 14.9166667v2.4333333h2.43333333v-2.4333333z" stroke="#d4ffff" stroke-width=".5"/></g><g transform="translate(31.333333 2)"><path d="m0 32.2666667h2.93333333v2.9333333h-2.93333333z" fill="#9fe1e4" fill-rule="evenodd"/><path d="m.25 32.5166667v2.4333333h2.43333333v-2.4333333z" stroke="#d4ffff" stroke-width=".5"/></g><g transform="translate(31.333333 2)"><path d="m0 38.1333333h2.93333333v2.9333334h-2.93333333z" fill="#9fe1e4" fill-rule="evenodd"/><path d="m.25 38.3833333v2.4333334h2.43333333v-2.4333334z" stroke="#d4ffff" stroke-width=".5"/></g><g transform="translate(31.333333 2)"><path d="m0 41.0666667h2.93333333v2.9333333h-2.93333333z" fill="#9fe1e4" fill-rule="evenodd"/><path d="m.25 41.3166667v2.4333333h2.43333333v-2.4333333z" stroke="#d4ffff" stroke-width=".5"/></g><g transform="translate(19.6 2)"><path d="m0 0h2.93333333v2.93333333h-2.93333333z" fill="#9fe1e4" fill-rule="evenodd"/><path d="m.25.25v2.43333333h2.43333333v-2.43333333z" stroke="#d4ffff" stroke-width=".5"/></g><g transform="translate(19.6 2)"><path d="m0 17.6h2.93333333v2.9333333h-2.93333333z" fill="#f6aea9" fill-rule="evenodd"/><path d="m.25 17.85v2.4333333h2.43333333v-2.4333333z" stroke="#d4ffff" stroke-width=".5"/></g><g transform="translate(19.6 2)"><path d="m0 2.93333333h2.93333333v2.93333334h-2.93333333z" fill="#9fe1e4" fill-rule="evenodd"/><path d="m.25 3.18333333v2.43333334h2.43333333v-2.43333334z" stroke="#d4ffff" stroke-width=".5"/></g><g transform="translate(19.6 2)"><path d="m0 20.5333333h2.93333333v2.9333334h-2.93333333z" fill="#9fe1e4" fill-rule="evenodd"/><path d="m.25 20.7833333v2.4333334h2.43333333v-2.4333334z" stroke="#d4ffff" stroke-width=".5"/></g><g transform="translate(19.6 2)"><path d="m0 5.86666667h2.93333333v2.93333333h-2.93333333z" fill="#a0d0f7" fill-rule="evenodd"/><path d="m.25 6.11666667v2.43333333h2.43333333v-2.43333333z" stroke="#d4ffff" stroke-width=".5"/></g><g transform="translate(19.6 2)"><path d="m0 23.4666667h2.93333333v2.9333333h-2.93333333z" fill="#f6aea9" fill-rule="evenodd"/><path d="m.25 23.7166667v2.4333333h2.43333333v-2.4333333z" stroke="#d4ffff" stroke-width=".5"/></g><g transform="translate(19.6 2)"><path d="m0 8.8h2.93333333v2.9333333h-2.93333333z" fill="#9fe1e4" fill-rule="evenodd"/><path d="m.25 9.05v2.4333333h2.43333333v-2.4333333z" stroke="#d4ffff" stroke-width=".5"/></g><g transform="translate(19.6 2)"><path d="m0 26.4h2.93333333v2.9333333h-2.93333333z" fill="#9fe1e4" fill-rule="evenodd"/><path d="m.25 26.65v2.4333333h2.43333333v-2.4333333z" stroke="#d4ffff" stroke-width=".5"/></g><g transform="translate(19.6 2)"><path d="m0 11.7333333h2.93333333v2.9333334h-2.93333333z" fill="#9fe1e4" fill-rule="evenodd"/><path d="m.25 11.9833333v2.4333334h2.43333333v-2.4333334z" stroke="#d4ffff" stroke-width=".5"/></g><g transform="translate(19.6 2)"><path d="m0 29.333333h2.933333v2.933333h-2.933333z" fill="#9fe1e4" fill-rule="evenodd"/><path d="m.25 29.583333h2.433333v2.433333h-2.433333z" stroke="#d4ffff" stroke-width=".5"/></g><g transform="translate(19.6 2)"><path d="m0 35.2h2.93333333v2.9333333h-2.93333333z" fill="#a0d0f7" fill-rule="evenodd"/><path d="m.25 35.45v2.4333333h2.43333333v-2.4333333z" stroke="#d4ffff" stroke-width=".5"/></g><g transform="translate(19.6 2)"><path d="m0 14.6666667h2.93333333v2.9333333h-2.93333333z" fill="#9fe1e4" fill-rule="evenodd"/><path d="m.25 14.9166667v2.4333333h2.43333333v-2.4333333z" stroke="#d4ffff" stroke-width=".5"/></g><g transform="translate(19.6 2)"><path d="m0 32.2666667h2.93333333v2.9333333h-2.93333333z" fill="#9fe1e4" fill-rule="evenodd"/><path d="m.25 32.5166667v2.4333333h2.43333333v-2.4333333z" stroke="#d4ffff" stroke-width=".5"/></g><g transform="translate(19.6 2)"><path d="m0 38.1333333h2.93333333v2.9333334h-2.93333333z" fill="#9fe1e4" fill-rule="evenodd"/><path d="m.25 38.3833333v2.4333334h2.43333333v-2.4333334z" stroke="#d4ffff" stroke-width=".5"/></g><g transform="translate(19.6 2)"><path d="m0 41.0666667h2.93333333v2.9333333h-2.93333333z" fill="#9fe1e4" fill-rule="evenodd"/><path d="m.25 41.3166667v2.4333333h2.43333333v-2.4333333z" stroke="#d4ffff" stroke-width=".5"/></g><g transform="translate(43.066667 2)"><path d="m0 0h2.93333333v2.93333333h-2.93333333z" fill="#cd3b3f" fill-rule="evenodd"/><path d="m.25.25v2.43333333h2.43333333v-2.43333333z" stroke="#d4ffff" stroke-width=".5"/></g><g transform="translate(43.066667 2)"><path d="m0 17.6h2.93333333v2.9333333h-2.93333333z" fill="#9fe1e4" fill-rule="evenodd"/><path d="m.25 17.85v2.4333333h2.43333333v-2.4333333z" stroke="#d4ffff" stroke-width=".5"/></g><g transform="translate(43.066667 2)"><path d="m0 2.93333333h2.93333333v2.93333334h-2.93333333z" fill="#9fe1e4" fill-rule="evenodd"/><path d="m.25 3.18333333v2.43333334h2.43333333v-2.43333334z" stroke="#d4ffff" stroke-width=".5"/></g><g transform="translate(43.066667 2)"><path d="m0 20.5333333h2.93333333v2.9333334h-2.93333333z" fill="#cd3b3f" fill-rule="evenodd"/><path d="m.25 20.7833333v2.4333334h2.43333333v-2.4333334z" stroke="#d4ffff" stroke-width=".5"/></g><g transform="translate(43.066667 2)"><path d="m0 5.86666667h2.93333333v2.93333333h-2.93333333z" fill="#a0d0f7" fill-rule="evenodd"/><path d="m.25 6.11666667v2.43333333h2.43333333v-2.43333333z" stroke="#d4ffff" stroke-width=".5"/></g><g transform="translate(43.066667 2)"><path d="m0 23.4666667h2.93333333v2.9333333h-2.93333333z" fill="#9fe1e4" fill-rule="evenodd"/><path d="m.25 23.7166667v2.4333333h2.43333333v-2.4333333z" stroke="#d4ffff" stroke-width=".5"/></g><g transform="translate(43.066667 2)"><path d="m0 8.8h2.93333333v2.9333333h-2.93333333z" fill="#9fe1e4" fill-rule="evenodd"/><path d="m.25 9.05v2.4333333h2.43333333v-2.4333333z" stroke="#d4ffff" stroke-width=".5"/></g><g transform="translate(43.066667 2)"><path d="m0 26.4h2.93333333v2.9333333h-2.93333333z" fill="#9fe1e4" fill-rule="evenodd"/><path d="m.25 26.65v2.4333333h2.43333333v-2.4333333z" stroke="#d4ffff" stroke-width=".5"/></g><g transform="translate(43.066667 2)"><path d="m0 11.7333333h2.93333333v2.9333334h-2.93333333z" fill="#9fe1e4" fill-rule="evenodd"/><path d="m.25 11.9833333v2.4333334h2.43333333v-2.4333334z" stroke="#d4ffff" stroke-width=".5"/></g><g transform="translate(43.066667 2)"><path d="m0 29.333333h2.933333v2.933333h-2.933333z" fill="#9fe1e4" fill-rule="evenodd"/><path d="m.25 29.583333h2.433333v2.433333h-2.433333z" stroke="#d4ffff" stroke-width=".5"/></g><g transform="translate(43.066667 2)"><path d="m0 35.2h2.93333333v2.9333333h-2.93333333z" fill="#a0d0f7" fill-rule="evenodd"/><path d="m.25 35.45v2.4333333h2.43333333v-2.4333333z" stroke="#d4ffff" stroke-width=".5"/></g><g transform="translate(43.066667 2)"><path d="m0 14.6666667h2.93333333v2.9333333h-2.93333333z" fill="#9fe1e4" fill-rule="evenodd"/><path d="m.25 14.9166667v2.4333333h2.43333333v-2.4333333z" stroke="#d4ffff" stroke-width=".5"/></g><g transform="translate(43.066667 2)"><path d="m0 32.2666667h2.93333333v2.9333333h-2.93333333z" fill="#9fe1e4" fill-rule="evenodd"/><path d="m.25 32.5166667v2.4333333h2.43333333v-2.4333333z" stroke="#d4ffff" stroke-width=".5"/></g><g transform="translate(43.066667 2)"><path d="m0 38.1333333h2.93333333v2.9333334h-2.93333333z" fill="#9fe1e4" fill-rule="evenodd"/><path d="m.25 38.3833333v2.4333334h2.43333333v-2.4333334z" stroke="#d4ffff" stroke-width=".5"/></g><g transform="translate(43.066667 2)"><path d="m0 41.0666667h2.93333333v2.9333333h-2.93333333z" fill="#cd3b3f" fill-rule="evenodd"/><path d="m.25 41.3166667v2.4333333h2.43333333v-2.4333333z" stroke="#d4ffff" stroke-width=".5"/></g><g transform="translate(4.933333 2)"><path d="m0 0h2.93333333v2.93333333h-2.93333333z" fill="#9fe1e4" fill-rule="evenodd"/><path d="m.25.25v2.43333333h2.43333333v-2.43333333z" stroke="#d4ffff" stroke-width=".5"/></g><g transform="translate(4.933333 2)"><path d="m0 17.6h2.93333333v2.9333333h-2.93333333z" fill="#9fe1e4" fill-rule="evenodd"/><path d="m.25 17.85v2.4333333h2.43333333v-2.4333333z" stroke="#d4ffff" stroke-width=".5"/></g><g transform="translate(4.933333 2)"><path d="m0 2.93333333h2.93333333v2.93333334h-2.93333333z" fill="#f6aea9" fill-rule="evenodd"/><path d="m.25 3.18333333v2.43333334h2.43333333v-2.43333334z" stroke="#d4ffff" stroke-width=".5"/></g><g transform="translate(4.933333 2)"><path d="m0 20.5333333h2.93333333v2.9333334h-2.93333333z" fill="#9fe1e4" fill-rule="evenodd"/><path d="m.25 20.7833333v2.4333334h2.43333333v-2.4333334z" stroke="#d4ffff" stroke-width=".5"/></g><g transform="translate(4.933333 2)"><path d="m0 5.86666667h2.93333333v2.93333333h-2.93333333z" fill="#9fe1e4" fill-rule="evenodd"/><path d="m.25 6.11666667v2.43333333h2.43333333v-2.43333333z" stroke="#d4ffff" stroke-width=".5"/></g><g transform="translate(4.933333 2)"><path d="m0 23.4666667h2.93333333v2.9333333h-2.93333333z" fill="#9fe1e4" fill-rule="evenodd"/><path d="m.25 23.7166667v2.4333333h2.43333333v-2.4333333z" stroke="#d4ffff" stroke-width=".5"/></g><g transform="translate(4.933333 2)"><path d="m0 8.8h2.93333333v2.9333333h-2.93333333z" fill="#9fe1e4" fill-rule="evenodd"/><path d="m.25 9.05v2.4333333h2.43333333v-2.4333333z" stroke="#d4ffff" stroke-width=".5"/></g><g transform="translate(4.933333 2)"><path d="m0 26.4h2.93333333v2.9333333h-2.93333333z" fill="#9fe1e4" fill-rule="evenodd"/><path d="m.25 26.65v2.4333333h2.43333333v-2.4333333z" stroke="#d4ffff" stroke-width=".5"/></g><g transform="translate(4.933333 2)"><path d="m0 11.7333333h2.93333333v2.9333334h-2.93333333z" fill="#a0d0f7" fill-rule="evenodd"/><path d="m.25 11.9833333v2.4333334h2.43333333v-2.4333334z" stroke="#d4ffff" stroke-width=".5"/></g><g transform="translate(4.933333 2)"><path d="m0 29.333333h2.933333v2.933333h-2.933333z" fill="#a0d0f7" fill-rule="evenodd"/><path d="m.25 29.583333h2.433333v2.433333h-2.433333z" stroke="#d4ffff" stroke-width=".5"/></g><g transform="translate(4.933333 2)"><path d="m0 35.2h2.93333333v2.9333333h-2.93333333z" fill="#9fe1e4" fill-rule="evenodd"/><path d="m.25 35.45v2.4333333h2.43333333v-2.4333333z" stroke="#d4ffff" stroke-width=".5"/></g><g transform="translate(4.933333 2)"><path d="m0 14.6666667h2.93333333v2.9333333h-2.93333333z" fill="#9fe1e4" fill-rule="evenodd"/><path d="m.25 14.9166667v2.4333333h2.43333333v-2.4333333z" stroke="#d4ffff" stroke-width=".5"/></g><g transform="translate(4.933333 2)"><path d="m0 32.2666667h2.93333333v2.9333333h-2.93333333z" fill="#9fe1e4" fill-rule="evenodd"/><path d="m.25 32.5166667v2.4333333h2.43333333v-2.4333333z" stroke="#d4ffff" stroke-width=".5"/></g><g transform="translate(4.933333 2)"><path d="m0 38.1333333h2.93333333v2.9333334h-2.93333333z" fill="#f6aea9" fill-rule="evenodd"/><path d="m.25 38.3833333v2.4333334h2.43333333v-2.4333334z" stroke="#d4ffff" stroke-width=".5"/></g><g transform="translate(4.933333 2)"><path d="m0 41.0666667h2.93333333v2.9333333h-2.93333333z" fill="#9fe1e4" fill-rule="evenodd"/><path d="m.25 41.3166667v2.4333333h2.43333333v-2.4333333z" stroke="#d4ffff" stroke-width=".5"/></g><g transform="translate(28.4 2)"><path d="m0 0h2.93333333v2.93333333h-2.93333333z" fill="#9fe1e4" fill-rule="evenodd"/><path d="m.25.25v2.43333333h2.43333333v-2.43333333z" stroke="#d4ffff" stroke-width=".5"/></g><g transform="translate(28.4 2)"><path d="m0 17.6h2.93333333v2.9333333h-2.93333333z" fill="#9fe1e4" fill-rule="evenodd"/><path d="m.25 17.85v2.4333333h2.43333333v-2.4333333z" stroke="#d4ffff" stroke-width=".5"/></g><g transform="translate(28.4 2)"><path d="m0 2.93333333h2.93333333v2.93333334h-2.93333333z" fill="#206194" fill-rule="evenodd"/><path d="m.25 3.18333333v2.43333334h2.43333333v-2.43333334z" stroke="#d4ffff" stroke-width=".5"/></g><g transform="translate(28.4 2)"><path d="m0 20.5333333h2.93333333v2.9333334h-2.93333333z" fill="#9fe1e4" fill-rule="evenodd"/><path d="m.25 20.7833333v2.4333334h2.43333333v-2.4333334z" stroke="#d4ffff" stroke-width=".5"/></g><g transform="translate(28.4 2)"><path d="m0 5.86666667h2.93333333v2.93333333h-2.93333333z" fill="#9fe1e4" fill-rule="evenodd"/><path d="m.25 6.11666667v2.43333333h2.43333333v-2.43333333z" stroke="#d4ffff" stroke-width=".5"/></g><g transform="translate(28.4 2)"><path d="m0 23.4666667h2.93333333v2.9333333h-2.93333333z" fill="#9fe1e4" fill-rule="evenodd"/><path d="m.25 23.7166667v2.4333333h2.43333333v-2.4333333z" stroke="#d4ffff" stroke-width=".5"/></g><g transform="translate(28.4 2)"><path d="m0 8.8h2.93333333v2.9333333h-2.93333333z" fill="#9fe1e4" fill-rule="evenodd"/><path d="m.25 9.05v2.4333333h2.43333333v-2.4333333z" stroke="#d4ffff" stroke-width=".5"/></g><g transform="translate(28.4 2)"><path d="m0 26.4h2.93333333v2.9333333h-2.93333333z" fill="#f6aea9" fill-rule="evenodd"/><path d="m.25 26.65v2.4333333h2.43333333v-2.4333333z" stroke="#d4ffff" stroke-width=".5"/></g><g transform="translate(28.4 2)"><path d="m0 11.7333333h2.93333333v2.9333334h-2.93333333z" fill="#9fe1e4" fill-rule="evenodd"/><path d="m.25 11.9833333v2.4333334h2.43333333v-2.4333334z" stroke="#d4ffff" stroke-width=".5"/></g><g transform="translate(28.4 2)"><path d="m0 29.333333h2.933333v2.933333h-2.933333z" fill="#9fe1e4" fill-rule="evenodd"/><path d="m.25 29.583333h2.433333v2.433333h-2.433333z" stroke="#d4ffff" stroke-width=".5"/></g><g transform="translate(28.4 2)"><path d="m0 35.2h2.93333333v2.9333333h-2.93333333z" fill="#9fe1e4" fill-rule="evenodd"/><path d="m.25 35.45v2.4333333h2.43333333v-2.4333333z" stroke="#d4ffff" stroke-width=".5"/></g><g transform="translate(28.4 2)"><path d="m0 14.6666667h2.93333333v2.9333333h-2.93333333z" fill="#f6aea9" fill-rule="evenodd"/><path d="m.25 14.9166667v2.4333333h2.43333333v-2.4333333z" stroke="#d4ffff" stroke-width=".5"/></g><g transform="translate(28.4 2)"><path d="m0 32.2666667h2.93333333v2.9333333h-2.93333333z" fill="#9fe1e4" fill-rule="evenodd"/><path d="m.25 32.5166667v2.4333333h2.43333333v-2.4333333z" stroke="#d4ffff" stroke-width=".5"/></g><g transform="translate(28.4 2)"><path d="m0 38.1333333h2.93333333v2.9333334h-2.93333333z" fill="#206194" fill-rule="evenodd"/><path d="m.25 38.3833333v2.4333334h2.43333333v-2.4333334z" stroke="#d4ffff" stroke-width=".5"/></g><g transform="translate(28.4 2)"><path d="m0 41.0666667h2.93333333v2.9333333h-2.93333333z" fill="#9fe1e4" fill-rule="evenodd"/><path d="m.25 41.3166667v2.4333333h2.43333333v-2.4333333z" stroke="#d4ffff" stroke-width=".5"/></g><g transform="translate(16.666667 2)"><path d="m0 0h2.93333333v2.93333333h-2.93333333z" fill="#9fe1e4" fill-rule="evenodd"/><path d="m.25.25v2.43333333h2.43333333v-2.43333333z" stroke="#d4ffff" stroke-width=".5"/></g><g transform="translate(16.666667 2)"><path d="m0 17.6h2.93333333v2.9333333h-2.93333333z" fill="#9fe1e4" fill-rule="evenodd"/><path d="m.25 17.85v2.4333333h2.43333333v-2.4333333z" stroke="#d4ffff" stroke-width=".5"/></g><g transform="translate(16.666667 2)"><path d="m0 2.93333333h2.93333333v2.93333334h-2.93333333z" fill="#206194" fill-rule="evenodd"/><path d="m.25 3.18333333v2.43333334h2.43333333v-2.43333334z" stroke="#d4ffff" stroke-width=".5"/></g><g transform="translate(16.666667 2)"><path d="m0 20.5333333h2.93333333v2.9333334h-2.93333333z" fill="#9fe1e4" fill-rule="evenodd"/><path d="m.25 20.7833333v2.4333334h2.43333333v-2.4333334z" stroke="#d4ffff" stroke-width=".5"/></g><g transform="translate(16.666667 2)"><path d="m0 5.86666667h2.93333333v2.93333333h-2.93333333z" fill="#9fe1e4" fill-rule="evenodd"/><path d="m.25 6.11666667v2.43333333h2.43333333v-2.43333333z" stroke="#d4ffff" stroke-width=".5"/></g><g transform="translate(16.666667 2)"><path d="m0 23.4666667h2.93333333v2.9333333h-2.93333333z" fill="#9fe1e4" fill-rule="evenodd"/><path d="m.25 23.7166667v2.4333333h2.43333333v-2.4333333z" stroke="#d4ffff" stroke-width=".5"/></g><g transform="translate(16.666667 2)"><path d="m0 8.8h2.93333333v2.9333333h-2.93333333z" fill="#9fe1e4" fill-rule="evenodd"/><path d="m.25 9.05v2.4333333h2.43333333v-2.4333333z" stroke="#d4ffff" stroke-width=".5"/></g><g transform="translate(16.666667 2)"><path d="m0 26.4h2.93333333v2.9333333h-2.93333333z" fill="#f6aea9" fill-rule="evenodd"/><path d="m.25 26.65v2.4333333h2.43333333v-2.4333333z" stroke="#d4ffff" stroke-width=".5"/></g><g transform="translate(16.666667 2)"><path d="m0 11.7333333h2.93333333v2.9333334h-2.93333333z" fill="#9fe1e4" fill-rule="evenodd"/><path d="m.25 11.9833333v2.4333334h2.43333333v-2.4333334z" stroke="#d4ffff" stroke-width=".5"/></g><g transform="translate(16.666667 2)"><path d="m0 29.333333h2.933333v2.933333h-2.933333z" fill="#9fe1e4" fill-rule="evenodd"/><path d="m.25 29.583333h2.433333v2.433333h-2.433333z" stroke="#d4ffff" stroke-width=".5"/></g><g transform="translate(16.666667 2)"><path d="m0 35.2h2.93333333v2.9333333h-2.93333333z" fill="#9fe1e4" fill-rule="evenodd"/><path d="m.25 35.45v2.4333333h2.43333333v-2.4333333z" stroke="#d4ffff" stroke-width=".5"/></g><g transform="translate(16.666667 2)"><path d="m0 14.6666667h2.93333333v2.9333333h-2.93333333z" fill="#f6aea9" fill-rule="evenodd"/><path d="m.25 14.9166667v2.4333333h2.43333333v-2.4333333z" stroke="#d4ffff" stroke-width=".5"/></g><g transform="translate(16.666667 2)"><path d="m0 32.2666667h2.93333333v2.9333333h-2.93333333z" fill="#9fe1e4" fill-rule="evenodd"/><path d="m.25 32.5166667v2.4333333h2.43333333v-2.4333333z" stroke="#d4ffff" stroke-width=".5"/></g><g transform="translate(16.666667 2)"><path d="m0 38.1333333h2.93333333v2.9333334h-2.93333333z" fill="#206194" fill-rule="evenodd"/><path d="m.25 38.3833333v2.4333334h2.43333333v-2.4333334z" stroke="#d4ffff" stroke-width=".5"/></g><g transform="translate(16.666667 2)"><path d="m0 41.0666667h2.93333333v2.9333333h-2.93333333z" fill="#9fe1e4" fill-rule="evenodd"/><path d="m.25 41.3166667v2.4333333h2.43333333v-2.4333333z" stroke="#d4ffff" stroke-width=".5"/></g><g transform="translate(40.133333 2)"><path d="m0 0h2.93333333v2.93333333h-2.93333333z" fill="#9fe1e4" fill-rule="evenodd"/><path d="m.25.25v2.43333333h2.43333333v-2.43333333z" stroke="#d4ffff" stroke-width=".5"/></g><g transform="translate(40.133333 2)"><path d="m0 17.6h2.93333333v2.9333333h-2.93333333z" fill="#9fe1e4" fill-rule="evenodd"/><path d="m.25 17.85v2.4333333h2.43333333v-2.4333333z" stroke="#d4ffff" stroke-width=".5"/></g><g transform="translate(40.133333 2)"><path d="m0 2.93333333h2.93333333v2.93333334h-2.93333333z" fill="#f6aea9" fill-rule="evenodd"/><path d="m.25 3.18333333v2.43333334h2.43333333v-2.43333334z" stroke="#d4ffff" stroke-width=".5"/></g><g transform="translate(40.133333 2)"><path d="m0 20.5333333h2.93333333v2.9333334h-2.93333333z" fill="#9fe1e4" fill-rule="evenodd"/><path d="m.25 20.7833333v2.4333334h2.43333333v-2.4333334z" stroke="#d4ffff" stroke-width=".5"/></g><g transform="translate(40.133333 2)"><path d="m0 5.86666667h2.93333333v2.93333333h-2.93333333z" fill="#9fe1e4" fill-rule="evenodd"/><path d="m.25 6.11666667v2.43333333h2.43333333v-2.43333333z" stroke="#d4ffff" stroke-width=".5"/></g><g transform="translate(40.133333 2)"><path d="m0 23.4666667h2.93333333v2.9333333h-2.93333333z" fill="#9fe1e4" fill-rule="evenodd"/><path d="m.25 23.7166667v2.4333333h2.43333333v-2.4333333z" stroke="#d4ffff" stroke-width=".5"/></g><g transform="translate(40.133333 2)"><path d="m0 8.8h2.93333333v2.9333333h-2.93333333z" fill="#9fe1e4" fill-rule="evenodd"/><path d="m.25 9.05v2.4333333h2.43333333v-2.4333333z" stroke="#d4ffff" stroke-width=".5"/></g><g transform="translate(40.133333 2)"><path d="m0 26.4h2.93333333v2.9333333h-2.93333333z" fill="#9fe1e4" fill-rule="evenodd"/><path d="m.25 26.65v2.4333333h2.43333333v-2.4333333z" stroke="#d4ffff" stroke-width=".5"/></g><g transform="translate(40.133333 2)"><path d="m0 11.7333333h2.93333333v2.9333334h-2.93333333z" fill="#a0d0f7" fill-rule="evenodd"/><path d="m.25 11.9833333v2.4333334h2.43333333v-2.4333334z" stroke="#d4ffff" stroke-width=".5"/></g><g transform="translate(40.133333 2)"><path d="m0 29.333333h2.933333v2.933333h-2.933333z" fill="#a0d0f7" fill-rule="evenodd"/><path d="m.25 29.583333h2.433333v2.433333h-2.433333z" stroke="#d4ffff" stroke-width=".5"/></g><g transform="translate(40.133333 2)"><path d="m0 35.2h2.93333333v2.9333333h-2.93333333z" fill="#9fe1e4" fill-rule="evenodd"/><path d="m.25 35.45v2.4333333h2.43333333v-2.4333333z" stroke="#d4ffff" stroke-width=".5"/></g><g transform="translate(40.133333 2)"><path d="m0 14.6666667h2.93333333v2.9333333h-2.93333333z" fill="#9fe1e4" fill-rule="evenodd"/><path d="m.25 14.9166667v2.4333333h2.43333333v-2.4333333z" stroke="#d4ffff" stroke-width=".5"/></g><g transform="translate(40.133333 2)"><path d="m0 32.2666667h2.93333333v2.9333333h-2.93333333z" fill="#9fe1e4" fill-rule="evenodd"/><path d="m.25 32.5166667v2.4333333h2.43333333v-2.4333333z" stroke="#d4ffff" stroke-width=".5"/></g><g transform="translate(40.133333 2)"><path d="m0 38.1333333h2.93333333v2.9333334h-2.93333333z" fill="#f6aea9" fill-rule="evenodd"/><path d="m.25 38.3833333v2.4333334h2.43333333v-2.4333334z" stroke="#d4ffff" stroke-width=".5"/></g><g transform="translate(40.133333 2)"><path d="m0 41.0666667h2.93333333v2.9333333h-2.93333333z" fill="#9fe1e4" fill-rule="evenodd"/><path d="m.25 41.3166667v2.4333333h2.43333333v-2.4333333z" stroke="#d4ffff" stroke-width=".5"/></g><g transform="translate(10.8 2)"><path d="m0 0h2.93333333v2.93333333h-2.93333333z" fill="#a0d0f7" fill-rule="evenodd"/><path d="m.25.25v2.43333333h2.43333333v-2.43333333z" stroke="#d4ffff" stroke-width=".5"/></g><g transform="translate(10.8 2)"><path d="m0 17.6h2.93333333v2.9333333h-2.93333333z" fill="#9fe1e4" fill-rule="evenodd"/><path d="m.25 17.85v2.4333333h2.43333333v-2.4333333z" stroke="#d4ffff" stroke-width=".5"/></g><g transform="translate(10.8 2)"><path d="m0 2.93333333h2.93333333v2.93333334h-2.93333333z" fill="#9fe1e4" fill-rule="evenodd"/><path d="m.25 3.18333333v2.43333334h2.43333333v-2.43333334z" stroke="#d4ffff" stroke-width=".5"/></g><g transform="translate(10.8 2)"><path d="m0 20.5333333h2.93333333v2.9333334h-2.93333333z" fill="#f6aea9" fill-rule="evenodd"/><path d="m.25 20.7833333v2.4333334h2.43333333v-2.4333334z" stroke="#d4ffff" stroke-width=".5"/></g><g transform="translate(10.8 2)"><path d="m0 5.86666667h2.93333333v2.93333333h-2.93333333z" fill="#9fe1e4" fill-rule="evenodd"/><path d="m.25 6.11666667v2.43333333h2.43333333v-2.43333333z" stroke="#d4ffff" stroke-width=".5"/></g><g transform="translate(10.8 2)"><path d="m0 23.4666667h2.93333333v2.9333333h-2.93333333z" fill="#9fe1e4" fill-rule="evenodd"/><path d="m.25 23.7166667v2.4333333h2.43333333v-2.4333333z" stroke="#d4ffff" stroke-width=".5"/></g><g transform="translate(10.8 2)"><path d="m0 8.8h2.93333333v2.9333333h-2.93333333z" fill="#f6aea9" fill-rule="evenodd"/><path d="m.25 9.05v2.4333333h2.43333333v-2.4333333z" stroke="#d4ffff" stroke-width=".5"/></g><g transform="translate(10.8 2)"><path d="m0 26.4h2.93333333v2.9333333h-2.93333333z" fill="#9fe1e4" fill-rule="evenodd"/><path d="m.25 26.65v2.4333333h2.43333333v-2.4333333z" stroke="#d4ffff" stroke-width=".5"/></g><g transform="translate(10.8 2)"><path d="m0 11.7333333h2.93333333v2.9333334h-2.93333333z" fill="#9fe1e4" fill-rule="evenodd"/><path d="m.25 11.9833333v2.4333334h2.43333333v-2.4333334z" stroke="#d4ffff" stroke-width=".5"/></g><g transform="translate(10.8 2)"><path d="m0 29.333333h2.933333v2.933333h-2.933333z" fill="#9fe1e4" fill-rule="evenodd"/><path d="m.25 29.583333h2.433333v2.433333h-2.433333z" stroke="#d4ffff" stroke-width=".5"/></g><g transform="translate(10.8 2)"><path d="m0 35.2h2.93333333v2.9333333h-2.93333333z" fill="#9fe1e4" fill-rule="evenodd"/><path d="m.25 35.45v2.4333333h2.43333333v-2.4333333z" stroke="#d4ffff" stroke-width=".5"/></g><g transform="translate(10.8 2)"><path d="m0 14.6666667h2.93333333v2.9333333h-2.93333333z" fill="#9fe1e4" fill-rule="evenodd"/><path d="m.25 14.9166667v2.4333333h2.43333333v-2.4333333z" stroke="#d4ffff" stroke-width=".5"/></g><g transform="translate(10.8 2)"><path d="m0 32.2666667h2.93333333v2.9333333h-2.93333333z" fill="#f6aea9" fill-rule="evenodd"/><path d="m.25 32.5166667v2.4333333h2.43333333v-2.4333333z" stroke="#d4ffff" stroke-width=".5"/></g><g transform="translate(10.8 2)"><path d="m0 38.1333333h2.93333333v2.9333334h-2.93333333z" fill="#9fe1e4" fill-rule="evenodd"/><path d="m.25 38.3833333v2.4333334h2.43333333v-2.4333334z" stroke="#d4ffff" stroke-width=".5"/></g><g transform="translate(10.8 2)"><path d="m0 41.0666667h2.93333333v2.9333333h-2.93333333z" fill="#a0d0f7" fill-rule="evenodd"/><path d="m.25 41.3166667v2.4333333h2.43333333v-2.4333333z" stroke="#d4ffff" stroke-width=".5"/></g><g transform="translate(34.266667 2)"><path d="m0 0h2.93333333v2.93333333h-2.93333333z" fill="#a0d0f7" fill-rule="evenodd"/><path d="m.25.25v2.43333333h2.43333333v-2.43333333z" stroke="#d4ffff" stroke-width=".5"/></g><g transform="translate(34.266667 2)"><path d="m0 17.6h2.93333333v2.9333333h-2.93333333z" fill="#9fe1e4" fill-rule="evenodd"/><path d="m.25 17.85v2.4333333h2.43333333v-2.4333333z" stroke="#d4ffff" stroke-width=".5"/></g><g transform="translate(34.266667 2)"><path d="m0 2.93333333h2.93333333v2.93333334h-2.93333333z" fill="#9fe1e4" fill-rule="evenodd"/><path d="m.25 3.18333333v2.43333334h2.43333333v-2.43333334z" stroke="#d4ffff" stroke-width=".5"/></g><g transform="translate(34.266667 2)"><path d="m0 20.5333333h2.93333333v2.9333334h-2.93333333z" fill="#f6aea9" fill-rule="evenodd"/><path d="m.25 20.7833333v2.4333334h2.43333333v-2.4333334z" stroke="#d4ffff" stroke-width=".5"/></g><g transform="translate(34.266667 2)"><path d="m0 5.86666667h2.93333333v2.93333333h-2.93333333z" fill="#9fe1e4" fill-rule="evenodd"/><path d="m.25 6.11666667v2.43333333h2.43333333v-2.43333333z" stroke="#d4ffff" stroke-width=".5"/></g><g transform="translate(34.266667 2)"><path d="m0 23.4666667h2.93333333v2.9333333h-2.93333333z" fill="#9fe1e4" fill-rule="evenodd"/><path d="m.25 23.7166667v2.4333333h2.43333333v-2.4333333z" stroke="#d4ffff" stroke-width=".5"/></g><g transform="translate(34.266667 2)"><path d="m0 8.8h2.93333333v2.9333333h-2.93333333z" fill="#f6aea9" fill-rule="evenodd"/><path d="m.25 9.05v2.4333333h2.43333333v-2.4333333z" stroke="#d4ffff" stroke-width=".5"/></g><g transform="translate(34.266667 2)"><path d="m0 26.4h2.93333333v2.9333333h-2.93333333z" fill="#9fe1e4" fill-rule="evenodd"/><path d="m.25 26.65v2.4333333h2.43333333v-2.4333333z" stroke="#d4ffff" stroke-width=".5"/></g><g transform="translate(34.266667 2)"><path d="m0 11.7333333h2.93333333v2.9333334h-2.93333333z" fill="#9fe1e4" fill-rule="evenodd"/><path d="m.25 11.9833333v2.4333334h2.43333333v-2.4333334z" stroke="#d4ffff" stroke-width=".5"/></g><g transform="translate(34.266667 2)"><path d="m0 29.333333h2.933333v2.933333h-2.933333z" fill="#9fe1e4" fill-rule="evenodd"/><path d="m.25 29.583333h2.433333v2.433333h-2.433333z" stroke="#d4ffff" stroke-width=".5"/></g><g transform="translate(34.266667 2)"><path d="m0 35.2h2.93333333v2.9333333h-2.93333333z" fill="#9fe1e4" fill-rule="evenodd"/><path d="m.25 35.45v2.4333333h2.43333333v-2.4333333z" stroke="#d4ffff" stroke-width=".5"/></g><g transform="translate(34.266667 2)"><path d="m0 14.6666667h2.93333333v2.9333333h-2.93333333z" fill="#9fe1e4" fill-rule="evenodd"/><path d="m.25 14.9166667v2.4333333h2.43333333v-2.4333333z" stroke="#d4ffff" stroke-width=".5"/></g><g transform="translate(34.266667 2)"><path d="m0 32.2666667h2.93333333v2.9333333h-2.93333333z" fill="#f6aea9" fill-rule="evenodd"/><path d="m.25 32.5166667v2.4333333h2.43333333v-2.4333333z" stroke="#d4ffff" stroke-width=".5"/></g><g transform="translate(34.266667 2)"><path d="m0 38.1333333h2.93333333v2.9333334h-2.93333333z" fill="#9fe1e4" fill-rule="evenodd"/><path d="m.25 38.3833333v2.4333334h2.43333333v-2.4333334z" stroke="#d4ffff" stroke-width=".5"/></g><g transform="translate(34.266667 2)"><path d="m0 41.0666667h2.93333333v2.9333333h-2.93333333z" fill="#a0d0f7" fill-rule="evenodd"/><path d="m.25 41.3166667v2.4333333h2.43333333v-2.4333333z" stroke="#d4ffff" stroke-width=".5"/></g><g transform="translate(22.533333 2)"><path d="m0 0h2.93333333v2.93333333h-2.93333333z" fill="#cd3b3f" fill-rule="evenodd"/><path d="m.25.25v2.43333333h2.43333333v-2.43333333z" stroke="#d4ffff" stroke-width=".5"/></g><g transform="translate(22.533333 2)"><path d="m0 17.6h2.93333333v2.9333333h-2.93333333z" fill="#9fe1e4" fill-rule="evenodd"/><path d="m.25 17.85v2.4333333h2.43333333v-2.4333333z" stroke="#d4ffff" stroke-width=".5"/></g><g transform="translate(22.533333 2)"><path d="m0 2.93333333h2.93333333v2.93333334h-2.93333333z" fill="#9fe1e4" fill-rule="evenodd"/><path d="m.25 3.18333333v2.43333334h2.43333333v-2.43333334z" stroke="#d4ffff" stroke-width=".5"/></g><g transform="translate(22.533333 2)"><path d="m0 20.5333333h2.93333333v2.9333334h-2.93333333z" fill="#cd3b3f" fill-rule="evenodd"/><path d="m.25 20.7833333v2.4333334h2.43333333v-2.4333334z" stroke="#d4ffff" stroke-width=".5"/></g><g transform="translate(22.533333 2)"><path d="m0 5.86666667h2.93333333v2.93333333h-2.93333333z" fill="#9fe1e4" fill-rule="evenodd"/><path d="m.25 6.11666667v2.43333333h2.43333333v-2.43333333z" stroke="#d4ffff" stroke-width=".5"/></g><g transform="translate(22.533333 2)"><path d="m0 23.4666667h2.93333333v2.9333333h-2.93333333z" fill="#9fe1e4" fill-rule="evenodd"/><path d="m.25 23.7166667v2.4333333h2.43333333v-2.4333333z" stroke="#d4ffff" stroke-width=".5"/></g><g transform="translate(22.533333 2)"><path d="m0 8.8h2.93333333v2.9333333h-2.93333333z" fill="#a0d0f7" fill-rule="evenodd"/><path d="m.25 9.05v2.4333333h2.43333333v-2.4333333z" stroke="#d4ffff" stroke-width=".5"/></g><g transform="translate(22.533333 2)"><path d="m0 26.4h2.93333333v2.9333333h-2.93333333z" fill="#9fe1e4" fill-rule="evenodd"/><path d="m.25 26.65v2.4333333h2.43333333v-2.4333333z" stroke="#d4ffff" stroke-width=".5"/></g><g transform="translate(22.533333 2)"><path d="m0 11.7333333h2.93333333v2.9333334h-2.93333333z" fill="#9fe1e4" fill-rule="evenodd"/><path d="m.25 11.9833333v2.4333334h2.43333333v-2.4333334z" stroke="#d4ffff" stroke-width=".5"/></g><g transform="translate(22.533333 2)"><path d="m0 29.333333h2.933333v2.933333h-2.933333z" fill="#9fe1e4" fill-rule="evenodd"/><path d="m.25 29.583333h2.433333v2.433333h-2.433333z" stroke="#d4ffff" stroke-width=".5"/></g><g transform="translate(22.533333 2)"><path d="m0 35.2h2.93333333v2.9333333h-2.93333333z" fill="#9fe1e4" fill-rule="evenodd"/><path d="m.25 35.45v2.4333333h2.43333333v-2.4333333z" stroke="#d4ffff" stroke-width=".5"/></g><g transform="translate(22.533333 2)"><path d="m0 14.6666667h2.93333333v2.9333333h-2.93333333z" fill="#9fe1e4" fill-rule="evenodd"/><path d="m.25 14.9166667v2.4333333h2.43333333v-2.4333333z" stroke="#d4ffff" stroke-width=".5"/></g><g transform="translate(22.533333 2)"><path d="m0 32.2666667h2.93333333v2.9333333h-2.93333333z" fill="#a0d0f7" fill-rule="evenodd"/><path d="m.25 32.5166667v2.4333333h2.43333333v-2.4333333z" stroke="#d4ffff" stroke-width=".5"/></g><g transform="translate(22.533333 2)"><path d="m0 38.1333333h2.93333333v2.9333334h-2.93333333z" fill="#9fe1e4" fill-rule="evenodd"/><path d="m.25 38.3833333v2.4333334h2.43333333v-2.4333334z" stroke="#d4ffff" stroke-width=".5"/></g><g transform="translate(22.533333 2)"><path d="m0 41.0666667h2.93333333v2.9333333h-2.93333333z" fill="#cd3b3f" fill-rule="evenodd"/><path d="m.25 41.3166667v2.4333333h2.43333333v-2.4333333z" stroke="#d4ffff" stroke-width=".5"/></g></g></svg>