<svg enable-background="new 0 0 48 48" viewBox="0 0 48 48" xmlns="http://www.w3.org/2000/svg" xmlns:xlink="http://www.w3.org/1999/xlink"><linearGradient id="a" gradientUnits="userSpaceOnUse" x1="24" x2="24" y1="2" y2="46"><stop offset="0" stop-color="#62ceff"/><stop offset="1" stop-color="#0b8bcb"/></linearGradient><path d="m46 39.4c0 3.6-3 6.6-6.6 6.6h-30.8c-3.6 0-6.6-3-6.6-6.6v-30.8c0-3.6 3-6.6 6.6-6.6h30.8c3.6 0 6.6 3 6.6 6.6z" fill="url(#a)"/><path d="m38 28.4c0 2.9-2.4 5.6-5.4 5.6h-17.2c-3 0-5.4-2.7-5.4-5.6v-6.1c0-2.9 1.5-4.3 4.5-4.3h19c3 0 4.5 1.4 4.5 4.3z" fill="#f1f2f3"/><path d="m10 26v5.1c0 1.8.9 2.9 2.7 2.9h22.6c1.8 0 2.7-1.2 2.7-2.9v-5.1z" fill="#dcdddd"/><path d="m15 18h18v3h-18z" fill="#2b2d2f"/><path d="m15 30h18v3h-18z" fill="#2b2d2f"/><path d="m16 33h16v3h-16z" fill="#bfc2c9"/><path d="m16 12h16v6h-16z" fill="#bfc2c9"/><path d="m18 32h12v9h-12z" fill="#f9f9fa"/><path d="m30 18h-12v-11h9l3 3.8z" fill="#f9f9fa"/><circle cx="35" cy="23" fill="#00913a" r="1"/><circle cx="35" cy="27" fill="#c30d23" r="1"/></svg>