<svg height="256" viewBox="0 0 256 256" width="256" xmlns="http://www.w3.org/2000/svg" xmlns:xlink="http://www.w3.org/1999/xlink"><defs><rect id="a" height="224" rx="8" width="200"/><filter id="b" height="115.2%" width="117%" x="-8.5%" y="-5.8%"><feOffset dx="0" dy="4" in="SourceAlpha" result="shadowOffsetOuter1"/><feGaussianBlur in="shadowOffsetOuter1" result="shadowBlurOuter1" stdDeviation="5"/><feComposite in="shadowBlurOuter1" in2="SourceAlpha" operator="out" result="shadowBlurOuter1"/><feColorMatrix in="shadowBlurOuter1" type="matrix" values="0 0 0 0 0   0 0 0 0 0   0 0 0 0 0  0 0 0 0.2 0"/></filter><radialGradient id="c" cx="50%" cy="17.573928%" gradientTransform="matrix(0 .892857 -1 0 .675739 -.27069)" r="96.088855%"><stop offset="0" stop-color="#04a38c"/><stop offset="1" stop-color="#075661"/></radialGradient><linearGradient id="d" x1="6.146108%" x2="0%" y1="65.618354%" y2="65.618354%"><stop offset="0" stop-color="#04a38c" stop-opacity="0"/><stop offset="1" stop-color="#075661"/></linearGradient></defs><g fill="none" fill-rule="evenodd" transform="translate(28 16)"><use fill="#000" filter="url(#b)" xlink:href="#a"/><use fill="#000" fill-opacity=".1" fill-rule="evenodd" xlink:href="#a"/><rect fill="url(#c)" height="224" rx="8" width="200"/><path d="m200 10c0-4.418278-3.581722-8-8-8h-184c-4.418278 0-8 3.581722-8 8v-2c0-4.418278 3.581722-8 8-8h184c4.418278 0 8 3.581722 8 8z" fill="#00ab9d" fill-opacity=".6"/><rect fill="url(#d)" height="224" rx="8" width="200"/><path d="m8 205h162.052458 23.027592c3.865993 0 7-3.134007 7-7 0-.065328-.000915-.130653-.002744-.195955l-.10653-3.804045v22c0 4.418278-3.581722 8-8 8h-183.970776c-4.418278 0-8-3.581722-8-8v-3c0-4.418278 3.581722-8 8-8z" fill="#034849"/><path d="m9.5 207h163.941392 20.558608c2.209139 0 4-1.790861 4-4l-.058455 9.051662c-.028402 4.398024-3.601717 7.948338-7.999833 7.948338h-180.441712c-3.58985087 0-6.5-2.910149-6.5-6.5 0-3.589851 2.91014913-6.5 6.5-6.5z" fill="#d5fcf9"/><g fill="#fff" transform="translate(63 39)"><path d="m19.3366567 87.5380181 2.0326731-25.0339748c1.7642095-3.7546678 4.9133755-6.8514967 9.4751793-9.3137841 5.8269206-3.145149 9.3227146-3.9804394 16.4047899-4.6695817 1.9384816-.1886297 3.087363-.325824 4.2025937-.5342093l2.0229486 24.9142083c-.2591038.0627988-.5221914.1213957-.7903281.1762044-1.3687605.2797824-2.5692835.4263641-4.9981401.6497777-7.7410207.7120427-11.6812393 1.6020044-18.1349903 4.8948679-4.6564675 2.375845-8.0689621 5.3530802-10.2147261 8.9164916zm-.7219331 8.8911751.0837495.0051693c.4333127-6.8995773 4.3216389-12.2133722 11.7833687-16.0205314 6.1768625-3.1515882 9.8877121-3.9897432 17.3923792-4.6800453 2.5009824-.230048 3.75637-.3833285 5.2208863-.682684.1834287-.0374939.3649361-.0766713.5447888-.117644l2.3601039 29.0665422h-38zm3.1154024-38.3686402 1.5476518-19.060553h27.4444444l.5655169 6.9647871c-1.1123143.2180642-2.2297391.3544545-4.2370617.549783-7.3293328.7132024-11.0659225 1.6060288-17.1784386 4.9053314-3.4323405 1.8526462-6.1494606 4.0687911-8.1421128 6.6406515zm-7.0962575 47.939447h44.732263c.5614761 0 1.0510625.447715 1.093522 1l1.5375933 20c.0424595.552285-.4112103 1-1.0132997 1h-47.9678942c-.6020894 0-1.0557592-.447715-1.0132997-1l1.5375933-20c.0424595-.552285.5320459-1 1.093522-1zm6.3661315-89h32c.5522847 0 1 .4477153 1 1v3c0 .5522847-.4477153 1-1 1h-32c-.5522847 0-1-.4477153-1-1v-3c0-.5522847.4477153-1 1-1zm2-2 14-8 14 8zm14-9c-1.6568542 0-3-1.34314575-3-3s1.3431458-3 3-3 3 1.34314575 3 3-1.3431458 3-3 3zm-8 19v4c0 .5522847-.4477153 1-1 1h-4c-.5522847 0-1-.4477153-1-1v-4c0-.5522847.4477153-1 1-1h4c.5522847 0 1 .4477153 1 1zm22 0v4c0 .5522847-.4477153 1-1 1h-4c-.5522847 0-1-.4477153-1-1v-4c0-.5522847.4477153-1 1-1h4c.5522847 0 1 .4477153 1 1zm-8 0v4c0 .5522847-.4477153 1-1 1h-10c-.5522847 0-1-.4477153-1-1v-4c0-.5522847.4477153-1 1-1h10c.5522847 0 1 .4477153 1 1zm-22 7h32c.5522847 0 1 .4477153 1 1v3c0 .5522847-.4477153 1-1 1h-32c-.5522847 0-1-.4477153-1-1v-3c0-.5522847.4477153-1 1-1zm15 21c-.5522847 0-1 .4477153-1 1v7c0 .5522847.4477153 1 1 1h2c.5522847 0 1-.4477153 1-1v-7c0-.5522847-.4477153-1-1-1z"/><path d="m60.408485 132.177917c.0054272.004106.0108838.007794.0163296.011042-.0018428-.001099-.0038478-.002227-.0060134-.003382zm-2.3085929-.262757c-1.8700678-.071372-4.7400901-.03553-8.6049895.107953-7.7455451.28755-20.7693149.244773-36.4809806 1.395653-1.0091059-.467093-1.5629615-.877028-1.6615665-1.229807-.1479077-.529167-.1897825-1.44706.7497054-2.032547 3.04657-1.408093 44.0972442-.247372 45.9978312-.174835.9673662.036921 2.5926313.078378 3.0697391.174835.7431735.150248 1.0199371 2.659697.7984975 3.262354-.5084426 1.383748-10.9328478.293475-31.2819691 2.052675 31.2819691 1.754596 31.1564618 1.79098 27.4518706 4.110389-6.6707223 4.176475-48.20249754 8.881377-48.20249754 8.881377 24.57414804 0 54.85785674 2.808356 58.81934514 4.841509s-21.4981281 6.837934-31.2089148 6.837934c4.4540577-.627278 14.7388435-1.679357 20.894445-4.258528.6216356-.260462 3.1464705-1.272902 1.968077-1.742994-1.5175139-.605377-4.5393916-1.38619-9.1013069-1.937721-9.1902593-1.111091-24.4530774-2.083866-45.78106355-2.917202-4.01246648.173658-5.47724464.116426-4.39433447-.171697-3.44641109-1.980344 14.45943132-5.991963 40.86824062-9.532678 2.1857232-1.44143-4.8053547-2.637289-20.9732338-3.587579-.228564-.742678 1.5669149-1.365673 5.3864367-1.868985 4.0575953-.534683 32.2301086-1.739871 33.3537775-2.085904-.4079517-.055528-.9652533-.097415-1.667109-.124202z" fill-rule="nonzero" opacity=".2"/></g><path d="m82.4175824 69.1098901-82.4175824 9.8901099v-26l82.4175824 9.8901099zm35.1648356-6.2197802 82.417582-9.8901099v26l-82.417582-9.8901099z" fill="#fff" opacity=".3"/><circle cx="100" cy="66" fill="#fefc6b" r="2"/><path d="m200 214v2c0 4.418278-3.581722 8-8 8h-184c-4.418278 0-8-3.581722-8-8v-2c0 4.418278 3.581722 8 8 8h184c4.418278 0 8-3.581722 8-8z" fill="#002f2b"/></g></svg>