<?xml version="1.0" encoding="UTF-8" standalone="no"?>
<svg
   xmlns:dc="http://purl.org/dc/elements/1.1/"
   xmlns:cc="http://creativecommons.org/ns#"
   xmlns:rdf="http://www.w3.org/1999/02/22-rdf-syntax-ns#"
   xmlns:svg="http://www.w3.org/2000/svg"
   xmlns="http://www.w3.org/2000/svg"
   xmlns:sodipodi="http://sodipodi.sourceforge.net/DTD/sodipodi-0.dtd"
   xmlns:inkscape="http://www.inkscape.org/namespaces/inkscape"
   inkscape:version="1.0 (4035a4fb49, 2020-05-01)"
   sodipodi:docname="user-trash-full.svg"
   id="svg11"
   version="1.1"
   viewBox="0 0 16 16"
   height="16px"
   width="16px">
  <metadata
     id="metadata15">
    <rdf:RDF>
      <cc:Work
         rdf:about="">
        <dc:format>image/svg+xml</dc:format>
        <dc:type
           rdf:resource="http://purl.org/dc/dcmitype/StillImage" />
      </cc:Work>
    </rdf:RDF>
  </metadata>
  <sodipodi:namedview
     inkscape:current-layer="svg11"
     inkscape:window-maximized="1"
     inkscape:window-y="0"
     inkscape:window-x="0"
     inkscape:cy="9.9966645"
     inkscape:cx="6.1577847"
     inkscape:zoom="35.375"
     showgrid="true"
     id="namedview13"
     inkscape:window-height="699"
     inkscape:window-width="1366"
     inkscape:pageshadow="2"
     inkscape:pageopacity="0"
     guidetolerance="10"
     gridtolerance="10"
     objecttolerance="10"
     borderopacity="1"
     bordercolor="#666666"
     pagecolor="#ffffff" />
  <!-- Generator: Sketch 42 (36781) - http://www.bohemiancoding.com/sketch -->
  <title
     id="title2">user-trash-symbolic</title>
  <desc
     id="desc4">Created with Sketch.</desc>
  <defs
     id="defs6" />
  <g
     fill-rule="evenodd"
     fill="none"
     stroke-width="1"
     stroke="none"
     id="Page-1">
    <g
       fill="#303030"
       fill-rule="nonzero"
       id="user-trash-symbolic">
      <path
         sodipodi:nodetypes="csssscssssssccccccsssssss"
         id="Combined-Shape"
         d="m 13,4 v 10.5 c 0,0.276142 -0.223858,0.5 -0.5,0.5 h -9 C 3.2238576,15 3,14.776142 3,14.5 V 4 H 1.5416667 c -0.2761424,0 -0.5,-0.2238576 -0.5,-0.5 0,-0.2761424 0.2238576,-0.5 0.5,-0.5 H 14.458333 c 0.276143,0 0.5,0.2238576 0.5,0.5 0,0.2761424 -0.223857,0.5 -0.5,0.5 z M 12,4 H 4 v 10 h 8 z M 5.5,2 C 5.2238576,2 5,1.7761424 5,1.5 5,1.2238576 5.2238576,1 5.5,1 h 5 C 10.776142,1 11,1.2238576 11,1.5 11,1.7761424 10.776142,2 10.5,2 Z" />
    </g>
  </g>
  <path
     id="Combined-Shape-2"
     style="fill:#303030;fill-rule:nonzero;stroke:none;stroke-width:1"
     d="m 4,4 v 10 h 8 V 4 Z m 2.5,1.0371094 c 0.2761424,0 0.5,0.2238576 0.5,0.5 v 6.8886716 c 0,0.276143 -0.2238576,0.5 -0.5,0.5 -0.2761424,0 -0.5,-0.223857 -0.5,-0.5 V 5.5371094 c 0,-0.2761424 0.2238576,-0.5 0.5,-0.5 z m 2.9999998,0 c 0.276143,0 0.5,0.2238576 0.5,0.5 v 6.8886716 c 0,0.276143 -0.223857,0.5 -0.5,0.5 C 9.2238578,12.925781 9,12.701924 9,12.425781 V 5.5371094 c 0,-0.2761424 0.2238578,-0.5 0.4999998,-0.5 z"
     sodipodi:nodetypes="cccccssssssssssssss" />
</svg>
