<svg height="96" viewBox="0 0 96 96" width="96" xmlns="http://www.w3.org/2000/svg" xmlns:xlink="http://www.w3.org/1999/xlink"><defs><rect id="a" height="84" rx="4" width="76" x="10" y="6"/><filter id="b" height="116.7%" width="118.4%" x="-9.2%" y="-6%"><feOffset dx="0" dy="2" in="SourceAlpha" result="shadowOffsetOuter1"/><feGaussianBlur in="shadowOffsetOuter1" result="shadowBlurOuter1" stdDeviation="2"/><feComposite in="shadowBlurOuter1" in2="SourceAlpha" operator="out" result="shadowBlurOuter1"/><feColorMatrix in="shadowBlurOuter1" type="matrix" values="0 0 0 0 0   0 0 0 0 0   0 0 0 0 0  0 0 0 0.2 0"/></filter><radialGradient id="c" cx="50%" cy="17.573928%" gradientTransform="matrix(0 .904762 -1 0 .675739 -.276642)" r="96.088855%"><stop offset="0" stop-color="#04a38c"/><stop offset="1" stop-color="#075661"/></radialGradient><linearGradient id="d" x1="6.146108%" x2="0%" y1="65.618354%" y2="65.618354%"><stop offset="0" stop-color="#04a38c" stop-opacity="0"/><stop offset="1" stop-color="#075661"/></linearGradient></defs><g fill="none" fill-rule="evenodd"><use fill="#000" filter="url(#b)" xlink:href="#a"/><use fill="#000" fill-opacity=".1" fill-rule="evenodd" xlink:href="#a"/><rect fill="url(#c)" height="84" rx="4" width="76" x="10" y="6"/><path d="m86 11c0-2.209139-1.790861-4-4-4h-68c-2.209139 0-4 1.790861-4 4v-1c0-2.209139 1.790861-4 4-4h68c2.209139 0 4 1.790861 4 4z" fill="#00ab9d" fill-opacity=".6"/><rect fill="url(#d)" height="84" rx="4" width="76" x="10" y="6"/><g fill="#fff"><path d="m56.9286155 69.9733628c.0019025.0014723.0038154.0027945.0057244.0039593-.000646-.0003942-.0013488-.0007986-.002108-.0012127zm-.8092949-.0942102c-.6555666-.0255904-1.6616748-.0127394-3.0165449.0387059-2.71526.1031-7.2808421.0877623-12.7886865.5004056-.3537498-.1674742-.5479081-.3144549-.5824749-.440942-.0518501-.1897307-.0665297-.5188376.262815-.7287612 1.0679984-.5048659 15.458626-.0886944 16.1248913-.0626863.3391176.0132376.9088667.0281021 1.0761205.0626863.2605252.0538706.3575467.9536231.2799194 1.1697032-.1782384.4961368-3.8325934.105224-10.9661334.7359778 10.9661334.6291032 10.9221359.6421485 9.6234631 1.4737627-2.3384727 1.4974574-16.897754 3.1843805-16.897754 3.1843805 8.6146555 0 19.2308411 1.006924 20.6195711 1.7359024s-7.5363332 2.4517125-10.9405237 2.4517125c1.561404-.2249079 5.1668143-.6021262 7.3247075-1.526877.217919-.0933878 1.1030193-.4563937.6899244-.6249434-.5319761-.2170553-1.5913184-.4970127-3.1905327-.6947615-3.2217156-.3983771-8.5722132-.7471615-16.0489018-1.0459505-1.4066008.0622644-1.92009.0417439-1.5404675-.0615613-1.2081658-.7100442 5.0688642-2.1483931 14.3266741-3.4179017.766222-.5168185-1.6845538-.9455889-7.3523274-1.2863113-.0801249-.2662841.549294-.4896563 1.8882566-.6701165 1.422421-.1917084 11.2985109-.6238234 11.6924216-.7478922-.1430106-.0199093-.3383769-.0349277-.5844178-.044532z" fill-rule="nonzero" opacity=".2"/><path d="m41.5397935 52.8926217.7398957-8.371391c.6858258-.9047065 1.6897537-1.6773272 3.0204817-2.3253991 2.1141102-1.0295833 3.3791662-1.3453185 6.2172433-1.5944934.9014553-.0791451 1.3520166-.1324432 1.8367617-.222662l.7209812 8.1573867c-.0506503.0102551-.1018693.0201726-.1537198.029768-.4938641.091394-.9252021.1415642-1.8900542.2219142-3.1781908.2646701-4.6821325.6214776-7.0940563 1.7356243-1.4249445.6582285-2.5595965 1.4495927-3.3975333 2.3692523zm-.378632 4.2839506c.0347017-.0444446.0567467-.0983345.0608368-.1572961.1591126-2.293733 1.5869487-4.0535139 4.3575692-5.3333543 2.2369073-1.0333007 3.5794257-1.3511243 6.5810185-1.6010879 1.0104776-.0841495 1.481107-.1388801 2.0302455-.2399967l.8091685 9.1551627h-14zm1.3066469-14.7837755.476636-5.3927968h10.1111112l.1829034 2.0694223c-.0244274.0049903-.049001.0098967-.0737287.0147211-.465154.0907533-.8721567.1406487-1.7843996.220741-3.0235569.2654595-4.4584162.6243589-6.7537905 1.7422188-.8217464.400195-1.5417535.8491408-2.1587318 1.3456936zm-2.5196157 17.6072032h16.1036146c.2021314 0 .3783826.1628055.393668.3636364l.5535336 7.2727272c.0152854.2008309-.1480357.3636364-.364788.3636364h-17.2684418c-.2167523 0-.3800734-.1628055-.364788-.3636364l.5535336-7.2727272c.0152854-.2008309.1915366-.3636364.393668-.3636364zm2.4018073-32h11.3c.1932997 0 .35.1567003.35.35v1.3c0 .1932997-.1567003.35-.35.35h-11.3c-.1932997 0-.35-.1567003-.35-.35v-1.3c0-.1932997.1567003-.35.35-.35zm-.35-1 6-3 6 3zm6-3.2121212c-.764702 0-1.3846154-.6240879-1.3846154-1.3939394s.6199134-1.3939394 1.3846154-1.3939394 1.3846154.6240879 1.3846154 1.3939394-.6199134 1.3939394-1.3846154 1.3939394zm-3 7.5621212v1.3c0 .1932997-.1567003.35-.35.35h-1.3c-.1932997 0-.35-.1567003-.35-.35v-1.3c0-.1932997.1567003-.35.35-.35h1.3c.1932997 0 .35.1567003.35.35zm8 0v1.3c0 .1932997-.1567003.35-.35.35h-1.3c-.1932997 0-.35-.1567003-.35-.35v-1.3c0-.1932997.1567003-.35.35-.35h1.3c.1932997 0 .35.1567003.35.35zm-3 0v1.3c0 .1932997-.1567003.35-.35.35h-3.3c-.1932997 0-.35-.1567003-.35-.35v-1.3c0-.1932997.1567003-.35.35-.35h3.3c.1932997 0 .35.1567003.35.35zm-7.65 2.65h11.3c.1932997 0 .35.1567003.35.35v1.3c0 .1932997-.1567003.35-.35.35h-11.3c-.1932997 0-.35-.1567003-.35-.35v-1.3c0-.1932997.1567003-.35.35-.35zm5 9c-.1932997 0-.35.1567003-.35.35v3.3c0 .1932997.1567003.35.35.35h1.3c.1932997 0 .35-.1567003.35-.35v-3.3c0-.1932997-.1567003-.35-.35-.35z"/><path d="m10 40v-14l31 6v2zm43-8 33-6v14l-33-6z" opacity=".3"/></g><path d="m14 81h60.5076687 7.9660651c1.9329966 0 3.5-1.5670034 3.5-3.5v-.5 8c0 2.209139-1.790861 4-4 4h-67.9737338c-2.209139 0-4-1.790861-4-4 0-2.209139 1.790861-4 4-4z" fill="#034849"/><path d="m14 82h61.9387755 7.0612245c1.1045695 0 2-.8954305 2-2v4c0 2.209139-1.790861 4-4 4h-67c-1.6568542 0-3-1.3431458-3-3 0-1.6568542 1.3431458-3 3-3z" fill="#d5fcf9"/><path d="m86 85v1c0 2.209139-1.790861 4-4 4h-68c-2.209139 0-4-1.790861-4-4v-1c0 2.209139 1.790861 4 4 4h68c2.209139 0 4-1.790861 4-4z" fill="#002f2b"/></g></svg>