<svg height="96" viewBox="0 0 96 96" width="96" xmlns="http://www.w3.org/2000/svg" xmlns:xlink="http://www.w3.org/1999/xlink"><defs><path id="a" d="m76 26h1.9051611c1.1050328 0 2.3663729.8201959 2.8141774 1.824993l6.395323 14.350014c.4491944 1.0079158-.0865176 1.824993-1.1905069 1.824993h-5.9241546v33.9934007c0 1.1082142-.8973133 2.0065993-2.0008389 2.0065993h-67.9983222c-1.10503282 0-2.0008389-.9025574-2.0008389-2.0065993v-33.9934007h-6.09015463c-1.10669324 0-1.63931385-.8201959-1.19273738-1.824993l6.37778402-14.350014c.44796257-1.0079158 1.70842132-1.824993 2.81194687-1.824993h2.09316112v-24c0-1.16.7532468-2 2-2h42.01998l19.98002 20z"/><filter id="b" height="121.2%" width="119.6%" x="-9.8%" y="-8.1%"><feOffset dx="0" dy="2" in="SourceAlpha" result="shadowOffsetOuter1"/><feGaussianBlur in="shadowOffsetOuter1" result="shadowBlurOuter1" stdDeviation="2.5"/><feComposite in="shadowBlurOuter1" in2="SourceAlpha" operator="out" result="shadowBlurOuter1"/><feColorMatrix in="shadowBlurOuter1" type="matrix" values="0 0 0 0 0   0 0 0 0 0   0 0 0 0 0  0 0 0 0.2 0"/></filter><linearGradient id="c" x1="49.999546%" x2="49.999546%" y1=".694444%" y2="26.502791%"><stop offset="0" stop-color="#fff"/><stop offset="1" stop-color="#c9dae9"/></linearGradient></defs><g fill="none" fill-rule="evenodd"><g transform="translate(4 8)"><use fill="#000" filter="url(#b)" xlink:href="#a"/><use fill="none" xlink:href="#a"/><path d="m74.001998 78h-60.001998c-1.2467532 0-2-.952-2-2v-74c0-1.16.7532468-2 2-2h42.01998l19.98002 20v56c-.0639361 2-1.998002 2-1.998002 2z" fill="#92d700"/><path d="m74.001998 78h-60.001998c-1.2467532 0-2-.952-2-2v-74c0-1.16.7532468-2 2-2h42.01998l19.98002 20v56c-.0639361 2-1.998002 2-1.998002 2z" fill="#d70751"/><g transform="translate(12)"><path d="m0 76c0 1.048.75324675 2 2 2h60.001998s1.9340659 0 1.998002-2v-1c-.0639361 2-1.998002 2-1.998002 2h-60.001998c-1.24675325 0-2-.952-2-2z" fill="#000" opacity=".1"/><path d="m0 2c0-1.16.75324675-2 2-2h42.01998v1h-42.01998c-1.24675325 0-2 .84-2 2v36.5z" fill="#fff" opacity=".196712"/></g><path d="m28.1469891 60.8430337c-.0165712.0152715-.0165712 2.43889-.0508184 3.0715197-.0338788.5114325-.0854337 1.6106551-1.3139116 1.6106551-1.262725 0-1.5698444-1.2798811-1.6722176-1.8364783-.1193126-.6173582-.1193126-1.1297655-.1193126-1.3549388 0-.722959.0511866-2.7410705 1.9793371-2.7410705.5803601 0 .904419.1510903 1.1603519.2709877zm-4.9481587 1.777017c0-1.7471238.4949264-4.0960094 3.5491816-4.0963343.6996727 0 1.1095335.1056007 1.4332242.1956051 0-1.9869188 0-2.2127419-.4606792-2.6494416 1.1603519-.0900043 1.6898936-.2557163 2.3037643-.5120824-.2216858 1.1746052-.2216858 5.0438167-.2216858 7.3322661 0 2.3495355.2047463 3.4334865.4776187 3.915026-.1535598-.0152715-.2898118-.0298932-.4264321-.0298932-.1369885-.0152715-.29018-.0152715-.4779869-.0152715-.5288052 0-.8528641.0298932-1.1772913.0451647l-.0342471-1.3396674c-.2898118.8880211-.972545 1.4001035-2.0305237 1.4001035-.3752455 0-2.9349427 0-2.9349427-4.245475zm13.8608835-.6176832-.0331423.8876961h-4.5397708c0 .7375807.0342471 2.8762395 2.6963174 2.8762395 1.0237316 0 1.4844108-.2557163 1.8434534-.4519712-.1031097.4665929-.1881752.8129633-.1712357 1.3549389-.3071195.0760325-.8709084.2258231-2.0305237.2258231-2.6108838 0-4.1634206-1.2044984-4.1634206-4.2607465 0-.7219842 0-4.1255776 3.4806874-4.1255776 2.52545 0 2.9176349 1.7318523 2.9176349 3.4935977zm-4.606792-.1510903h2.917635c.0338788-1.0693294-.0677578-2.3638321-1.3989771-2.3638321-1.2111702 0-1.5013502 1.1141691-1.5186579 2.3638321zm5.2611701 2.4395398h.0003682v-3.7034995c0-3.2372316 0-4.2318282-.6654255-4.472273.7331833-.0604361 1.4162848-.1351689 2.5250818-.5871401-.136252 1.3702103-.1528232 4.0501948-.1528232 4.8179935.2555646-.6173582.7331833-1.8218566 2.371522-1.8218566.818617 0 1.586784.3616419 2.0640344 1.0686796.494558.753177.5630523 1.9424039.5630523 2.4843794 0 .888346-.1704992 2.0629513-.6654255 2.9363507-1.040671 1.8816429-2.9688215 1.8816429-3.6342471 1.8816429-1.0414075 0-1.9112111-.135169-2.6108837-.3762636.2047463-.4815394.2047463-1.1135193.2047463-2.2280133zm4.8969721-1.6411981c0-1.1739554-.2559329-2.7547174-1.5529051-2.7547174-.1531914 0-.9552373.0146216-1.3131751 1.0833012-.1200491.3320737-.2732405 1.0085684-.2732405 2.303721 0 1.083951 0 2.0174616.0342471 2.5594372.2216857.0448397.5626841.0906542.8359247.0906542 1.9793371 0 2.2691489-1.8822928 2.2691489-3.2823962zm5.0891979 4.1554707c-.3417348-.0451647-.5810965-.0753827-1.0760229-.0753827-.5450081 0-.9213584.030543-1.3131751.0753827.1704992-.2862593.2386252-.4220781.2898118-1.4001035.0684943-1.3403172.0854337-4.9239192-.0338789-5.6767713-.0854337-.5725186-.2386252-.6625229-.4776186-.8129633 1.398977-.1205474 1.7915302-.2105517 2.439648-.4815395-.1358837.661873-.1539279.9939468-.1539279 2.0021902-.0335107 5.195232-.0508184 5.7518291.3251636 6.3691874zm.7711129-2.4089968c0-2.0181116 1.4332242-2.7547174 3.6011047-2.7550423.4610475 0 .7342881.0298931 1.0587152.0445148 0-1.1739554 0-2.0021902-1.4170212-2.0021902-.8867431 0-1.7569149.2709877-2.4230769.7830701-.1531915-.6482261-.3236907-.9335106-.5288052-1.2649345.4949263-.2258231 1.4844107-.6777943 3.1731996-.6777943 2.5596971 0 2.901432 1.1291157 2.901432 2.2738278l-.0173077 3.0715196c0 .7980168 0 1.3702104.0338789 1.942079.0519231.5871402.153928.7382305.3417348.9939468-.2898117-.0152715-.5630523-.0451647-.8528641-.0451647-.512234 0-.8193535.0298932-1.126473.0451647-.0511865-.5273539-.0684942-.9335107-.0511865-1.5960335-.3244272.6323048-.8528642 1.6564696-2.4230769 1.6564696-.1369886 0-.5634206 0-.9898527-.165712-.9559738-.4068065-1.280401-1.3549388-1.280401-2.3037209zm4.6929623-1.8523996h-.9051555c-.6477495 0-2.081342.1062506-2.081342 1.5213006 0 .7375806.2209493 1.4901078 1.2457856 1.4901078.4437398 0 1.040671-.1956051 1.398977-.8733994.2905483-.526704.307856-1.1892269.3417349-2.138009zm9.8285596 2.7709636c.0173076.5120824.0173076 1.054058.2559328 1.4907577-.3759819-.0298931-.5976677-.0753827-1.2966039-.0753827-.4098608 0-.6315466.030543-.9559738.0753827.0677578-.1956051.1027415-.2709878.1366203-.5273539.0511866-.3457206.0854338-1.5053793.0854338-1.9121859v-1.6259266c0-.7076875 0-1.7318523-.0519231-2.0928444-.0338789-.2557162-.1185761-.9481322-1.1091653-.9481322-.972545 0-1.2966039.6319798-1.4162848 1.1440622-.1358838.5267041-.1358838 1.0992226-.1358838 3.3272359.0165712 1.9274574.0165712 2.1074661.1870704 2.63482-.2898118-.0298932-.6481178-.0597863-1.1599836-.0597863-.4098609 0-.6827332.0146216-1.0233633.0597863.1193126-.2410947.1878069-.361642.2216857-1.2044984.0346154-.8282348.1027415-4.8937012-.051923-5.85678-.0846972-.58779-.2559329-.722959-.4430033-.8733994 1.3824059-.0604362 1.8254091-.2563662 2.2525777-.4513214v1.5953836c.2043781-.4672427.6308101-1.5060291 2.3376432-1.5060291 2.1332651 0 2.1498363 1.3702103 2.167144 2.2731779zm-15.1486495-9.0118054-1.4133388 1.2464138-1.4126022-1.2464138 1.4126022-1.2464138zm7.766185-28.9550553.000001-.0000028-.3399672.7202213c.5029335-1.5201159.2132143-3.1755858.2838345-4.6069752l-.1398805-.0375753c-.1231296-3.6002041-3.2362441-7.42675-6.0053197-8.7218823-2.3883667-1.1022884-6.0637166-1.2919629-7.7612846-.4608335.2335847-.2068775 1.1647588-.2937928.8840946-.4531377-2.6586197.2639153-2.0642452.9270988-4.1026855 1.4472343-.5586141.5400529 1.6314771-.4327672.4531376.2666316-1.0932344.3019407-1.6025065-.1901285-3.2226654 1.4861649.1444071.2326656 1.0284998-.6898926.2910756.236301-1.5228313-.1883164-4.8093253 3.4834122-5.5073659 4.7002292l.3648642.0624732c-.5989028 1.5015567-1.3874792 2.458985-1.4938608 3.3580175-.1552704 2.2113667-.9275517 6.2443379.1444061 7.4828845l-.1041173 1.0343854c.1466703.2937928.2584836.5921121.4409161.8687028l-.2381131.019016c1.1276385 3.5585581 1.2113863.0660928 2.7011726 3.7618132-.2163845-.0728826-.4345784-.152555-.7491937-.5771742-.0380255.3241233.4585694 1.2969434 1.0475121 2.0560962l-.2494286.2847388c.3281959.5970916.6310427.7279171.8587427.9352476-1.2258701-.6690682 1.1371465 2.205029 1.3503607 2.5712513l.1883173-.3358927c-.0276133.4830151.34585 1.1063619 1.0457009 1.96918l.5830589-.0230895c.2399234.4757713 1.1181314 1.3322489 1.6509434 1.3729935l-.354452.4621917c1.3372303.4232601.6496019.5613294 2.2928484 1.1430293l-.3318173-.5862264c.8383723.7274641 1.0973079 1.3634873 2.2801739 1.9211953 1.6405311.5717417 1.8578199.3449459 3.540903.8266029-1.4268629-.0398358-3.1040623-.0253501-4.2321528-.4295979-7.6965519-2.0841626-14.7376142-11.1129661-14.2233653-20.4129278-.1181099-1.8827168.1874122-4.2353222-.1258468-4.7038507.4395589-1.4332006.9497343-3.1796593 1.9750657-5.2583893-.0742399-.1394275.168851.4069641.6898916-.481657.3159744-.6939662.574458-1.4585516.9723681-2.1335045l.2050672-.0475307c.2050662-1.1919192 2.779485-3.0185033 3.5454296-3.9379071l.0525084.3512836c1.6717649-1.5676486 4.6508855-2.6183299 6.328083-3.3670715-.4404612.4879947.9868538-.0479819 2.0149024-.1104551-.3241233.1810744-.6464345.3227642-.9501855.5359794 1.2340181-.2946988 1.1751692.1208654 2.4363495-.0457223-.4427255.0638285-.9800677.2399215-.894505.3064682 1.4092079.1629663 1.6246873-.4354835 2.9288717-.000906l-.0823841-.3856877c1.8120966.6536774 2.1914474.5427693 4.1606275 1.5875669.6903447.0339482.760058-.4259765 1.8034974-.0009051.1837898.3223111-.0416478.3825183 1.2412629 1.1452925.1421419-.0570378-.2557682-.4191856-.5703844-.7075467 2.578043 1.377974 5.3797106 4.3158998 6.2348328 7.4597978-.8012538-1.4748485-.0823897.7523621-.3580753.6360223.3571692.9619558.6491517 1.9565046.8302261 2.9827411-.2376601-.8415407-.7532681-2.8740972-1.6577341-4.1846203-.0742407.845616-1.1670221-.5844162-.5694783 1.2779302.4544958.6600151.0918958-.6690691.6532252.5033856.0090541.557255.2213632 1.1108894.3449459 1.8365433-.1919387-.0312347-.4286928-.8026109-.5685714-.5875855.1942001.9130661.5142489 1.3892932.6355693 1.4594567-.0620184.1530072-.2240805-.1425958-.2353969.4784877.0751469 1.4295801.4006264.8265982.5554457.8945059-.1566295.7039253-.7863141 1.5314341-.4748681 2.7423665-.0891776-.3671275-.2643673-.7360661-.3960989-1.0837283-.1222245 1.0339324.22906 1.2353773-.2485235 2.4879575.3440407-1.1289967.3069204-2.1484442-.017655-1.6577332.143954 1.605221-1.2706865 2.8374307-1.1167733 3.853256l-.4110395-.565857c-1.1131527 1.61337-.0262542.8886212-.7831447 2.1113239.277947-.4802989-.1457652-.1978244.2159306-.7419518-.2403746.0135806-1.0715049 1.0217109-1.832922 1.6147281-2.990436 2.3969677-6.5603105 2.7106778-10.0170145 1.4200731-.1344479.110002.616557.6989457 1.1710956.9836844 1.3164097.4866384 2.8052891.5061019 3.9777438.4626447-2.5336788 1.0597354-7.3697113-1.0755803-8.9518474-3.9084826.3571692.0778613 1.5834933 1.9918138 2.501992 2.3019035-.5427693-.4345784-.9624089-.9877589-1.3517189-1.5567843.7333498.8424467 1.6242342 1.5305282 2.5975064 1.9859291-.0615643-.236302.2688958-.2838336-.1910326-.5943754-2.9302298-2.2457707-4.6622028-4.1538376-4.0605855-8.5720444.4463478-.337703.5658569-2.1805841 1.5907352-2.8256604.6247059-1.3811415 2.4974655-2.6527303 4.4987844-2.6853278 2.0420636-.1113602 3.7663407 1.0914241 4.6318742 2.2258524-1.5757975-1.4707731-4.1565549-1.9171209-6.3579615-.8279601-2.2507494 1.013561-3.5852653 3.4920123-3.3906113 5.9595984.083293-.1222255.157983-.0461744.1978234-.3503785-.0688072 4.7966507 5.1696629 8.3126558 8.9405301 6.5381298l.0443614.1000439c1.529624-.4178276 1.3322526-.7618683 2.332234-1.4481394-.0778622.160703-.6735957.5721527-.3182377.5798896.4861836-.1294674 2.0044893-1.5427506 2.7523248-2.2068392.3426825-.7392355-.1833368-.3997213.2951518-1.3295364l.5853213-.2910764c.3254806-.9397742.685368-1.4712271.6446233-2.5649136z" fill="#c10648"/><path d="m28.1469891 59.8430337c-.0165712.0152715-.0165712 2.43889-.0508184 3.0715197-.0338788.5114325-.0854337 1.6106551-1.3139116 1.6106551-1.262725 0-1.5698444-1.2798811-1.6722176-1.8364783-.1193126-.6173582-.1193126-1.1297655-.1193126-1.3549388 0-.722959.0511866-2.7410705 1.9793371-2.7410705.5803601 0 .904419.1510903 1.1603519.2709877zm-4.9481587 1.777017c0-1.7471238.4949264-4.0960094 3.5491816-4.0963343.6996727 0 1.1095335.1056007 1.4332242.1956051 0-1.9869188 0-2.2127419-.4606792-2.6494416 1.1603519-.0900043 1.6898936-.2557163 2.3037643-.5120824-.2216858 1.1746052-.2216858 5.0438167-.2216858 7.3322661 0 2.3495355.2047463 3.4334865.4776187 3.915026-.1535598-.0152715-.2898118-.0298932-.4264321-.0298932-.1369885-.0152715-.29018-.0152715-.4779869-.0152715-.5288052 0-.8528641.0298932-1.1772913.0451647l-.0342471-1.3396674c-.2898118.8880211-.972545 1.4001035-2.0305237 1.4001035-.3752455 0-2.9349427 0-2.9349427-4.245475zm13.8608835-.6176832-.0331423.8876961h-4.5397708c0 .7375807.0342471 2.8762395 2.6963174 2.8762395 1.0237316 0 1.4844108-.2557163 1.8434534-.4519712-.1031097.4665929-.1881752.8129633-.1712357 1.3549389-.3071195.0760325-.8709084.2258231-2.0305237.2258231-2.6108838 0-4.1634206-1.2044984-4.1634206-4.2607465 0-.7219842 0-4.1255776 3.4806874-4.1255776 2.52545 0 2.9176349 1.7318523 2.9176349 3.4935977zm-4.606792-.1510903h2.917635c.0338788-1.0693294-.0677578-2.3638321-1.3989771-2.3638321-1.2111702 0-1.5013502 1.1141691-1.5186579 2.3638321zm5.2611701 2.4395398h.0003682v-3.7034995c0-3.2372316 0-4.2318282-.6654255-4.472273.7331833-.0604361 1.4162848-.1351689 2.5250818-.5871401-.136252 1.3702103-.1528232 4.0501948-.1528232 4.8179935.2555646-.6173582.7331833-1.8218566 2.371522-1.8218566.818617 0 1.586784.3616419 2.0640344 1.0686796.494558.753177.5630523 1.9424039.5630523 2.4843794 0 .888346-.1704992 2.0629513-.6654255 2.9363507-1.040671 1.8816429-2.9688215 1.8816429-3.6342471 1.8816429-1.0414075 0-1.9112111-.135169-2.6108837-.3762636.2047463-.4815394.2047463-1.1135193.2047463-2.2280133zm4.8969721-1.6411981c0-1.1739554-.2559329-2.7547174-1.5529051-2.7547174-.1531914 0-.9552373.0146216-1.3131751 1.0833012-.1200491.3320737-.2732405 1.0085684-.2732405 2.303721 0 1.083951 0 2.0174616.0342471 2.5594372.2216857.0448397.5626841.0906542.8359247.0906542 1.9793371 0 2.2691489-1.8822928 2.2691489-3.2823962zm5.0891979 4.1554707c-.3417348-.0451647-.5810965-.0753827-1.0760229-.0753827-.5450081 0-.9213584.030543-1.3131751.0753827.1704992-.2862593.2386252-.4220781.2898118-1.4001035.0684943-1.3403172.0854337-4.9239192-.0338789-5.6767713-.0854337-.5725186-.2386252-.6625229-.4776186-.8129633 1.398977-.1205474 1.7915302-.2105517 2.439648-.4815395-.1358837.661873-.1539279.9939468-.1539279 2.0021902-.0335107 5.195232-.0508184 5.7518291.3251636 6.3691874zm.7711129-2.4089968c0-2.0181116 1.4332242-2.7547174 3.6011047-2.7550423.4610475 0 .7342881.0298931 1.0587152.0445148 0-1.1739554 0-2.0021902-1.4170212-2.0021902-.8867431 0-1.7569149.2709877-2.4230769.7830701-.1531915-.6482261-.3236907-.9335106-.5288052-1.2649345.4949263-.2258231 1.4844107-.6777943 3.1731996-.6777943 2.5596971 0 2.901432 1.1291157 2.901432 2.2738278l-.0173077 3.0715196c0 .7980168 0 1.3702104.0338789 1.942079.0519231.5871402.153928.7382305.3417348.9939468-.2898117-.0152715-.5630523-.0451647-.8528641-.0451647-.512234 0-.8193535.0298932-1.126473.0451647-.0511865-.5273539-.0684942-.9335107-.0511865-1.5960335-.3244272.6323048-.8528642 1.6564696-2.4230769 1.6564696-.1369886 0-.5634206 0-.9898527-.165712-.9559738-.4068065-1.280401-1.3549388-1.280401-2.3037209zm4.6929623-1.8523996h-.9051555c-.6477495 0-2.081342.1062506-2.081342 1.5213006 0 .7375806.2209493 1.4901078 1.2457856 1.4901078.4437398 0 1.040671-.1956051 1.398977-.8733994.2905483-.526704.307856-1.1892269.3417349-2.138009zm9.8285596 2.7709636c.0173076.5120824.0173076 1.054058.2559328 1.4907577-.3759819-.0298931-.5976677-.0753827-1.2966039-.0753827-.4098608 0-.6315466.030543-.9559738.0753827.0677578-.1956051.1027415-.2709878.1366203-.5273539.0511866-.3457206.0854338-1.5053793.0854338-1.9121859v-1.6259266c0-.7076875 0-1.7318523-.0519231-2.0928444-.0338789-.2557162-.1185761-.9481322-1.1091653-.9481322-.972545 0-1.2966039.6319798-1.4162848 1.1440622-.1358838.5267041-.1358838 1.0992226-.1358838 3.3272359.0165712 1.9274574.0165712 2.1074661.1870704 2.63482-.2898118-.0298932-.6481178-.0597863-1.1599836-.0597863-.4098609 0-.6827332.0146216-1.0233633.0597863.1193126-.2410947.1878069-.361642.2216857-1.2044984.0346154-.8282348.1027415-4.8937012-.051923-5.85678-.0846972-.58779-.2559329-.722959-.4430033-.8733994 1.3824059-.0604362 1.8254091-.2563662 2.2525777-.4513214v1.5953836c.2043781-.4672427.6308101-1.5060291 2.3376432-1.5060291 2.1332651 0 2.1498363 1.3702103 2.167144 2.2731779zm-15.1486495-9.0118054-1.4133388 1.2464138-1.4126022-1.2464138 1.4126022-1.2464138zm7.766185-28.9550553.000001-.0000028-.3399672.7202213c.5029335-1.5201159.2132143-3.1755858.2838345-4.6069752l-.1398805-.0375753c-.1231296-3.6002041-3.2362441-7.42675-6.0053197-8.7218823-2.3883667-1.1022884-6.0637166-1.2919629-7.7612846-.4608335.2335847-.2068775 1.1647588-.2937928.8840946-.4531377-2.6586197.2639153-2.0642452.9270988-4.1026855 1.4472343-.5586141.5400529 1.6314771-.4327672.4531376.2666316-1.0932344.3019407-1.6025065-.1901285-3.2226654 1.4861649.1444071.2326656 1.0284998-.6898926.2910756.236301-1.5228313-.1883164-4.8093253 3.4834122-5.5073659 4.7002292l.3648642.0624732c-.5989028 1.5015567-1.3874792 2.458985-1.4938608 3.3580175-.1552704 2.2113667-.9275517 6.2443379.1444061 7.4828845l-.1041173 1.0343854c.1466703.2937928.2584836.5921121.4409161.8687028l-.2381131.019016c1.1276385 3.5585581 1.2113863.0660928 2.7011726 3.7618132-.2163845-.0728826-.4345784-.152555-.7491937-.5771742-.0380255.3241233.4585694 1.2969434 1.0475121 2.0560962l-.2494286.2847388c.3281959.5970916.6310427.7279171.8587427.9352476-1.2258701-.6690682 1.1371465 2.205029 1.3503607 2.5712513l.1883173-.3358927c-.0276133.4830151.34585 1.1063619 1.0457009 1.96918l.5830589-.0230895c.2399234.4757713 1.1181314 1.3322489 1.6509434 1.3729935l-.354452.4621917c1.3372303.4232601.6496019.5613294 2.2928484 1.1430293l-.3318173-.5862264c.8383723.7274641 1.0973079 1.3634873 2.2801739 1.9211953 1.6405311.5717417 1.8578199.3449459 3.540903.8266029-1.4268629-.0398358-3.1040623-.0253501-4.2321528-.4295979-7.6965519-2.0841626-14.7376142-11.1129661-14.2233653-20.4129278-.1181099-1.8827168.1874122-4.2353222-.1258468-4.7038507.4395589-1.4332006.9497343-3.1796593 1.9750657-5.2583893-.0742399-.1394275.168851.4069641.6898916-.481657.3159744-.6939662.574458-1.4585516.9723681-2.1335045l.2050672-.0475307c.2050662-1.1919192 2.779485-3.0185033 3.5454296-3.9379071l.0525084.3512836c1.6717649-1.5676486 4.6508855-2.61832995 6.328083-3.36707152-.4404612.48799473.9868538-.04798188 2.0149024-.11045508-.3241233.1810744-.6464345.32276422-.9501855.53597941 1.2340181-.29469882 1.1751692.12086541 2.4363495-.04572233-.4427255.06382856-.9800677.23992151-.894505.30646824 1.4092079.16296631 1.6246873-.4354835 2.9288717-.00090606l-.0823841-.38568765c1.8120966.65367739 2.1914474.54276925 4.1606275 1.58756689.6903447.0339482.760058-.4259765 1.8034974-.0009051.1837898.3223111-.0416478.3825183 1.2412629 1.1452925.1421419-.0570378-.2557682-.4191856-.5703844-.7075467 2.578043 1.377974 5.3797106 4.3158998 6.2348328 7.4597978-.8012538-1.4748485-.0823897.7523621-.3580753.6360223.3571692.9619558.6491517 1.9565046.8302261 2.9827411-.2376601-.8415407-.7532681-2.8740972-1.6577341-4.1846203-.0742407.845616-1.1670221-.5844162-.5694783 1.2779302.4544958.6600151.0918958-.6690691.6532252.5033856.0090541.557255.2213632 1.1108894.3449459 1.8365433-.1919387-.0312347-.4286928-.8026109-.5685714-.5875855.1942001.9130661.5142489 1.3892932.6355693 1.4594567-.0620184.1530072-.2240805-.1425958-.2353969.4784877.0751469 1.4295801.4006264.8265982.5554457.8945059-.1566295.7039253-.7863141 1.5314341-.4748681 2.7423665-.0891776-.3671275-.2643673-.7360661-.3960989-1.0837283-.1222245 1.0339324.22906 1.2353773-.2485235 2.4879575.3440407-1.1289967.3069204-2.1484442-.017655-1.6577332.143954 1.605221-1.2706865 2.8374307-1.1167733 3.853256l-.4110395-.565857c-1.1131527 1.61337-.0262542.8886212-.7831447 2.1113239.277947-.4802989-.1457652-.1978244.2159306-.7419518-.2403746.0135806-1.0715049 1.0217109-1.832922 1.6147281-2.990436 2.3969677-6.5603105 2.7106778-10.0170145 1.4200731-.1344479.110002.616557.6989457 1.1710956.9836844 1.3164097.4866384 2.8052891.5061019 3.9777438.4626447-2.5336788 1.0597354-7.3697113-1.0755803-8.9518474-3.9084826.3571692.0778613 1.5834933 1.9918138 2.501992 2.3019035-.5427693-.4345784-.9624089-.9877589-1.3517189-1.5567843.7333498.8424467 1.6242342 1.5305282 2.5975064 1.9859291-.0615643-.236302.2688958-.2838336-.1910326-.5943754-2.9302298-2.2457707-4.6622028-4.1538376-4.0605855-8.5720444.4463478-.337703.5658569-2.1805841 1.5907352-2.8256604.6247059-1.3811415 2.4974655-2.6527303 4.4987844-2.6853278 2.0420636-.1113602 3.7663407 1.0914241 4.6318742 2.2258524-1.5757975-1.4707731-4.1565549-1.9171209-6.3579615-.8279601-2.2507494 1.013561-3.5852653 3.4920123-3.3906113 5.9595984.083293-.1222255.157983-.0461744.1978234-.3503785-.0688072 4.7966507 5.1696629 8.3126558 8.9405301 6.5381298l.0443614.1000439c1.529624-.4178276 1.3322526-.7618683 2.332234-1.4481394-.0778622.160703-.6735957.5721527-.3182377.5798896.4861836-.1294674 2.0044893-1.5427506 2.7523248-2.2068392.3426825-.7392355-.1833368-.3997213.2951518-1.3295364l.5853213-.2910764c.3254806-.9397742.685368-1.4712271.6446233-2.5649136z" fill="#fff"/><path d="m57.858 20.056c-1.104 0-1.858-.952-1.858-2.056v-18l20 20z" fill="#ff5491"/></g><rect fill="#c0d0df" height="52" rx="2" width="72" x="12" y="36"/><path d="m12 37.9992604c0-1.104161.8973133-1.9992604 2.0008389-1.9992604h67.9983222c1.1050328 0 2.0008389.8959923 2.0008389 1.9992604v47.0014792c0 1.104161-.8973133 1.9992604-2.0008389 1.9992604h-67.9983222c-1.1050328 0-2.0008389-.8959923-2.0008389-1.9992604z" fill="#dee8f2"/><path d="m91.1146615 50.175007c.4491944 1.0079158-.0865176 1.824993-1.1905069 1.824993h-84.01430923c-1.10669324 0-1.63931385-.8201959-1.19273738-1.824993l6.37778401-14.350014c.4479626-1.0079158 1.7084213-1.824993 2.8119469-1.824993h67.9983222c1.1050328 0 2.3663729.8201959 2.8141774 1.824993z" fill="url(#c)"/><path d="m82.3708347 35.0479964c.5536542.0003188 1.1851848.4105366 1.4098495.9146457l6.2877366 14.1086087c.2249842.5048261-.0304247.914336-.5931398.9146798l-83.14092186.0507969c-.55256625.0003376-.81724402-.4117365-.59706594-.9071372l6.3173761-14.2140962c.2228158-.5013357.8562943-.9074878 1.4059233-.9071713z" fill="#f0f8fa"/><g fill="#10acff" transform="translate(29 62)"><path d="m12.9041321 4.65451163c-.1471636 0-4.14936968.00023256-4.14936968.00023256s.00092122-.60209303.00092122-.69395349c0-.23627907.22224242-.46790698.46336969-.46883721.22362425-.00069768 3.22999997 0 3.46168487 0 .2086545 0 .4509333.23627907.4497818.46511628-.0009212.18139535-.0036848.29232558-.0036848.46511628 0 0 0 .23232558-.2227031.23232558m1.1439152 3.25255814c.2376727 0 .2390545-.21465117.2390545-.23627907-.0004606-.08069768-.0016121-.60906977-.0016121-.69046512 0-.23255814-.2337576-.23604651-.2337576-.23604651s-4.54733331-.00372093-4.84004846-.00372093c-.46406061 0-.45692122-.45348837-.45692122-.45348837-.00598787-.02953489.00023031-.47302326 0-.47302326h4.60790308c1.2793333 0 1.1496727-.93023256 1.1496727-.93023256v-.92186046s.1248242-1.63627907-1.6084364-1.63627907h-3.88198786c-1.76412121 0-1.64459394 1.6144186-1.64459394 1.6144186 0 .87441861.00046061 1.18697675.00046061 2.33720931 0 1.62976744 1.61442424 1.62232558 1.61442424 1.62232558z"/><path d="m5.5269503 6.51732558s.00368485.22674419-.23030303.22674419c-.2510303 0-1.47693333.00302325-2.23025454.00069767s-1.67729697-.16930232-1.67775758-1.61046511c-.0004606-1.44093024 1.0262303-1.64069768 1.66693333-1.64069768.64047273 0 2.47023031.00255814 2.47023031.00255814s.00115151 2.81465116.00115151 3.02116279m1.15266667-6.28488372c-.0988.00046512-.81964849.00046512-.91821818 0 0 0-.23053334 0-.23053334.24 0 .01906977-.00115151 1.85302326-.00115151 1.85302326-.96934546-.00023256-1.97369697.00046511-2.98265455 0-2.16738181-.00069768-2.54899394 1.89465116-2.54715151 2.79418604.00230303.89906977.38967273 2.78348837 2.58123636 2.78139535 2.19179394-.00209302 2.25328485.0027907 3.18094546.0027907 1.14898182 0 1.15036363-1.15604651 1.15036363-1.15604651v-6.2827907c0-.23255814-.23283636-.23255814-.23283636-.23255814"/><path d="m31.0941794 1.62790698h-.9212121c-.1271273 0-.2303031-.10418605-.2303031-.23255814v-.93023256c0-.12837209.1031758-.23255814.2303031-.23255814h.9212121c.1271273 0 .230303.10418605.230303.23255814v.93023256c0 .12837209-.1031757.23255814-.230303.23255814"/><path d="m31.0941794 7.90697674h-.9212121c-.1271273 0-.2303031-.10418604-.2303031-.23255814v-5.11627907c0-.12837209.1031758-.23255813.2303031-.23255813h.9212121c.1271273 0 .230303.10418604.230303.23255813v5.11627907c0 .1283721-.1031757.23255814-.230303.23255814"/><path d="m35.46996 2.32711628c-1.6918061-.00232558-3.6848485-.00046512-3.6848485-.00046512v5.34418605c0 .10534884.0667879.26093023.2756727.23395349.2252364-.00069768.5792122-.00209303.8044485-.0027907.3173576.04581395.3081455-.23488372.3081455-.23488372l-.0069091-4.17511628s1.6851273-.00162791 2.3016485-.00162791c.0384606 0 .9301939.01744186.9301939 1.16069768l-.0066788 3.02372093c-.0002303.12860465.1029455.23302325.2305334.23302325l.9207515-.00069767c.1271272 0 .2300727-.10418605.2300727-.23255814v-3.12906977c0-1.28906977-.6112242-2.21604651-2.3030303-2.21837209"/><path d="m23.9551079 3.71202326s-.0036849-.22674419.230303-.22674419c.2510303 0 1.4769333-.00302326 2.2302546-.00069767.7533212.00232558 1.6772969.16930232 1.6777575 1.61046511.0004606 1.44093023-1.0262303 1.64069768-1.6669333 1.64069768s-2.4702303-.00255814-2.4702303-.00255814-.0011515-2.81465117-.0011515-3.02116279m-1.1510546 6.28488372c.0988-.00046512.8187273-.00046512.917297 0 0 0 .230303 0 .230303-.24 0-.01906977.0006909-1.85302326.0006909-1.85302326.9695758.00023256 1.973697-.00046512 2.9828849 0 2.1671515.00069768 2.5487636-1.89465116 2.5469212-2.79418605-.002303-.89906976-.3896727-2.78348837-2.5812364-2.78139534-2.1917939.00209302-2.2514424-.0027907-3.1793333-.0027907-1.1489818 0-1.1485212 1.15604651-1.1485212 1.15604651v6.2827907c0 .23255814.2309939.23255814.2309939.23255814"/><path d="m20.5041321 4.65451163c-.1471636 0-4.1493697.00023256-4.1493697.00023256s.0009212-.60209303.0009212-.69395349c0-.23627907.2222425-.46790698.4633697-.46883721.2236243-.00069768 3.23 0 3.4616849 0 .2086545 0 .4509333.23627907.4497818.46511628-.0009212.18139535-.0034545.29232558-.0034545.46511628 0 0 0 .23232558-.2229334.23232558m1.1439152 3.25255814c.2376727 0 .2390545-.21465117.2390545-.23627907-.0004606-.08069768-.0016121-.60906977-.0016121-.69046512 0-.23255814-.2337576-.23604651-.2337576-.23604651s-4.5473333-.00372093-4.8400485-.00372093c-.4640606 0-.4569212-.45348837-.4569212-.45348837-.0059879-.02953489.0002303-.47302326 0-.47302326h4.6079031c1.2793333 0 1.1496727-.93023256 1.1496727-.93023256v-.92186046s.1248242-1.63627907-1.6084364-1.63627907h-3.8819879c-1.7641212 0-1.6445939 1.6144186-1.6445939 1.6144186 0 .87441861.0004606 1.18697675.0004606 2.33720931 0 1.62976744 1.6144242 1.62232558 1.6144242 1.62232558z"/></g></g></svg>