<svg height="96" viewBox="0 0 96 96" width="96" xmlns="http://www.w3.org/2000/svg" xmlns:xlink="http://www.w3.org/1999/xlink"><defs><path id="a" d="m80 34h1.9051611c1.1050328 0 2.3663729.8201959 2.8141774 1.824993l6.395323 14.350014c.4491944 1.0079158-.0865176 1.824993-1.1905069 1.824993h-5.9241546v33.9934007c0 1.1082142-.8973133 2.0065993-2.0008389 2.0065993h-67.9983222c-1.1050328 0-2.0008389-.9025574-2.0008389-2.0065993v-33.9934007h-6.09015463c-1.10669324 0-1.63931385-.8201959-1.19273738-1.824993l6.37778401-14.350014c.4479626-1.0079158 1.7084213-1.824993 2.8119469-1.824993h2.0931611v-24c0-1.16.7532468-2 2-2h42.01998l19.98002 20z"/><filter id="b" height="121.2%" width="119.6%" x="-9.8%" y="-8.1%"><feOffset dx="0" dy="2" in="SourceAlpha" result="shadowOffsetOuter1"/><feGaussianBlur in="shadowOffsetOuter1" result="shadowBlurOuter1" stdDeviation="2.5"/><feComposite in="shadowBlurOuter1" in2="SourceAlpha" operator="out" result="shadowBlurOuter1"/><feColorMatrix in="shadowBlurOuter1" type="matrix" values="0 0 0 0 0   0 0 0 0 0   0 0 0 0 0  0 0 0 0.2 0"/></filter><linearGradient id="c" x1="49.999546%" x2="49.999546%" y1=".694444%" y2="26.502791%"><stop offset="0" stop-color="#fff"/><stop offset="1" stop-color="#c9dae9"/></linearGradient></defs><g fill="none" fill-rule="evenodd"><use fill="#000" filter="url(#b)" xlink:href="#a"/><use fill="none" xlink:href="#a"/><path d="m78.001998 86h-60.001998c-1.2467532 0-2-.952-2-2v-74c0-1.16.7532468-2 2-2h42.01998l19.98002 20v56c-.0639361 2-1.998002 2-1.998002 2z" fill="#92d700"/><path d="m78.001998 86h-60.001998c-1.2467532 0-2-.952-2-2v-74c0-1.16.7532468-2 2-2h42.01998l19.98002 20v56c-.0639361 2-1.998002 2-1.998002 2z" fill="#e5b400"/><g transform="translate(16 8)"><path d="m0 76c0 1.048.75324675 2 2 2h60.001998s1.9340659 0 1.998002-2v-1c-.0639361 2-1.998002 2-1.998002 2h-60.001998c-1.24675325 0-2-.952-2-2z" fill="#000" opacity=".1"/><path d="m0 2c0-1.16.75324675-2 2-2h42.01998v1h-42.01998c-1.24675325 0-2 .84-2 2v36.5z" fill="#fff" opacity=".196712"/></g><path d="m52.9785156 47h-10.3886718v-1.2480469c.914067-.058594 1.6728485-.1757803 2.2763671-.3515625.6035187-.1757821.9052735-.3925768.9052735-.6503906 0-.1054693-.0117187-.2343742-.0351563-.3867188-.0234376-.1523445-.0585935-.2871087-.1054687-.4042968l-2.0742188-5.5898438h-8.7363281c-.3281266.8203166-.5947255 1.5351532-.7998047 2.1445313-.2050791.609378-.3896476 1.1718724-.5537109 1.6875-.1523445.5039087-.2578122.9140609-.3164063 1.2304687-.058594.3164079-.0878906.5742178-.0878906.7734375 0 .4687524.3691369.83203 1.1074219 1.0898438.7382849.2578138 1.5703078.410156 2.4960937.4570312v1.2480469h-9.3867187v-1.2480469c.304689-.0234376.6855446-.0908197 1.1425781-.2021484s.8320298-.2607413 1.125-.4482422c.4687523-.3164078.83203-.6474592 1.0898438-.9931641.2578137-.3457048.5097643-.8232391.7558593-1.4326172 1.2539125-3.1289218 2.6367112-6.6445117 4.1484375-10.546875 1.5117263-3.9023632 2.8593691-7.3769378 4.0429688-10.4238281h1.40625l8.3144531 21.515625c.1757821.4570336.3749989.8261705.5976563 1.1074219.2226573.2812514.5332011.5566393.9316406.8261719.2695326.1640633.6210916.3017572 1.0546875.4130859s.7968735.1728515 1.0898437.1845703zm-10.0546875-10.1953125-3.7792969-9.6679687-3.7089843 9.6679687zm26.9121094 9.8789063c-.550784.1992197-1.0341776.3603509-1.4501953.4833984s-.8876927.1845703-1.4150391.1845703c-.914067 0-1.6435519-.213865-2.1884765-.6416016-.5449246-.4277365-.893554-1.0517537-1.0458985-1.8720703h-.1054687c-.7617226.8437542-1.5790972 1.488279-2.4521485 1.9335938-.8730512.4453147-1.9247985.6679687-3.1552734.6679687-1.3007878 0-2.370113-.3984335-3.2080078-1.1953125s-1.2568359-1.8398373-1.2568359-3.1289062c0-.6679721.093749-1.2656224.28125-1.7929688.1875009-.5273464.4687481-1.001951.84375-1.4238281.2929702-.3515643.679685-.6650377 1.1601562-.9404297s.9316385-.4951164 1.3535156-.6591797c.5273464-.1992197 1.5966717-.5683567 3.2080078-1.1074219 1.6113362-.5390651 2.6982394-.9609359 3.2607422-1.265625v-1.7402343c0-.1523445-.0322262-.4453104-.0966797-.8789063-.0644534-.4335959-.2021473-.843748-.4130859-1.2304687-.2343762-.4335959-.5654275-.8115219-.9931641-1.1337891-.4277365-.3222672-1.0341757-.4833984-1.8193359-.4833984-.5390652 0-1.0400367.0908194-1.5029297.2724609-.4628929.1816415-.788085.3720693-.9755859.5712891 0 .2343761.0556635.5800758.1669922 1.0371094.1113286.4570335.1669922.8789043.1669922 1.265625 0 .4101583-.1845685.7851545-.553711 1.125-.3691425.3398454-.8818326.5097656-1.5380859.5097656-.5859405 0-1.0166002-.2080058-1.2919922-.6240235s-.4130859-.8818333-.4130859-1.3974609c0-.5390652.1904277-1.054685.571289-1.546875s.8759735-.9316387 1.4853516-1.3183594c.5273464-.3281266 1.1660118-.6064441 1.9160156-.8349609.7500037-.2285168 1.4824183-.3427735 2.1972656-.3427735.9843799 0 1.8427698.0673822 2.5751953.2021485.7324256.1347663 1.397458.4248024 1.9951172.8701172.5976593.4335959 1.0517563 1.0224572 1.3623047 1.7666015.3105484.7441444.4658203 1.7021426.4658203 2.8740235 0 1.6757896-.0175779 3.1611263-.0527343 4.4560547-.0351565 1.2949283-.0527344 2.7099532-.0527344 4.2451172 0 .4570335.0791007.8203111.2373047 1.0898437.1582039.2695326.4013655.4980459.7294921.6855469.1757822.1054693.4540997.1640624.834961.1757812s.7705058.0175782 1.1689453.0175782zm-6.1347656-9.28125c-.9960988.2929702-1.8691369.5800767-2.6191407.8613281-.7500037.2812514-1.4472624.6328104-2.0917968 1.0546875-.5859405.3984395-1.0488265.8701144-1.3886719 1.415039s-.5097656 1.1923791-.5097656 1.9423828c0 .9726612.2548802 1.6874978.7646484 2.1445313s1.1572226.6855469 1.9423828.6855469c.8320354 0 1.56445-.2021464 2.1972657-.6064453.6328156-.4042989 1.1660134-.8818332 1.5996093-1.4326172z" fill="#cda100"/><path d="m52.9785156 46h-10.3886718v-1.2480469c.914067-.058594 1.6728485-.1757803 2.2763671-.3515625.6035187-.1757821.9052735-.3925768.9052735-.6503906 0-.1054693-.0117187-.2343742-.0351563-.3867188-.0234376-.1523445-.0585935-.2871087-.1054687-.4042968l-2.0742188-5.5898438h-8.7363281c-.3281266.8203166-.5947255 1.5351532-.7998047 2.1445313-.2050791.609378-.3896476 1.1718724-.5537109 1.6875-.1523445.5039087-.2578122.9140609-.3164063 1.2304687-.058594.3164079-.0878906.5742178-.0878906.7734375 0 .4687524.3691369.83203 1.1074219 1.0898438.7382849.2578138 1.5703078.410156 2.4960937.4570312v1.2480469h-9.3867187v-1.2480469c.304689-.0234376.6855446-.0908197 1.1425781-.2021484s.8320298-.2607413 1.125-.4482422c.4687523-.3164078.83203-.6474592 1.0898438-.9931641.2578137-.3457048.5097643-.8232391.7558593-1.4326172 1.2539125-3.1289218 2.6367112-6.6445117 4.1484375-10.546875 1.5117263-3.9023632 2.8593691-7.3769378 4.0429688-10.4238281h1.40625l8.3144531 21.515625c.1757821.4570336.3749989.8261705.5976563 1.1074219.2226573.2812514.5332011.5566393.9316406.8261719.2695326.1640633.6210916.3017572 1.0546875.4130859s.7968735.1728515 1.0898437.1845703zm-10.0546875-10.1953125-3.7792969-9.6679687-3.7089843 9.6679687zm26.9121094 9.8789063c-.550784.1992197-1.0341776.3603509-1.4501953.4833984s-.8876927.1845703-1.4150391.1845703c-.914067 0-1.6435519-.213865-2.1884765-.6416016-.5449246-.4277365-.893554-1.0517537-1.0458985-1.8720703h-.1054687c-.7617226.8437542-1.5790972 1.488279-2.4521485 1.9335938-.8730512.4453147-1.9247985.6679687-3.1552734.6679687-1.3007878 0-2.370113-.3984335-3.2080078-1.1953125s-1.2568359-1.8398373-1.2568359-3.1289062c0-.6679721.093749-1.2656224.28125-1.7929688.1875009-.5273464.4687481-1.001951.84375-1.4238281.2929702-.3515643.679685-.6650377 1.1601562-.9404297s.9316385-.4951164 1.3535156-.6591797c.5273464-.1992197 1.5966717-.5683567 3.2080078-1.1074219 1.6113362-.5390651 2.6982394-.9609359 3.2607422-1.265625v-1.7402343c0-.1523445-.0322262-.4453104-.0966797-.8789063-.0644534-.4335959-.2021473-.843748-.4130859-1.2304687-.2343762-.4335959-.5654275-.8115219-.9931641-1.1337891-.4277365-.3222672-1.0341757-.4833984-1.8193359-.4833984-.5390652 0-1.0400367.0908194-1.5029297.2724609-.4628929.1816415-.788085.3720693-.9755859.5712891 0 .2343761.0556635.5800758.1669922 1.0371094.1113286.4570335.1669922.8789043.1669922 1.265625 0 .4101583-.1845685.7851545-.553711 1.125-.3691425.3398454-.8818326.5097656-1.5380859.5097656-.5859405 0-1.0166002-.2080058-1.2919922-.6240235s-.4130859-.8818333-.4130859-1.3974609c0-.5390652.1904277-1.054685.571289-1.546875s.8759735-.9316387 1.4853516-1.3183594c.5273464-.3281266 1.1660118-.6064441 1.9160156-.8349609.7500037-.2285168 1.4824183-.3427735 2.1972656-.3427735.9843799 0 1.8427698.0673822 2.5751953.2021485.7324256.1347663 1.397458.4248024 1.9951172.8701172.5976593.4335959 1.0517563 1.0224572 1.3623047 1.7666015.3105484.7441444.4658203 1.7021426.4658203 2.8740235 0 1.6757896-.0175779 3.1611263-.0527343 4.4560547-.0351565 1.2949283-.0527344 2.7099532-.0527344 4.2451172 0 .4570335.0791007.8203111.2373047 1.0898437.1582039.2695326.4013655.4980459.7294921.6855469.1757822.1054693.4540997.1640624.834961.1757812s.7705058.0175782 1.1689453.0175782zm-6.1347656-9.28125c-.9960988.2929702-1.8691369.5800767-2.6191407.8613281-.7500037.2812514-1.4472624.6328104-2.0917968 1.0546875-.5859405.3984395-1.0488265.8701144-1.3886719 1.415039s-.5097656 1.1923791-.5097656 1.9423828c0 .9726612.2548802 1.6874978.7646484 2.1445313s1.1572226.6855469 1.9423828.6855469c.8320354 0 1.56445-.2021464 2.1972657-.6064453.6328156-.4042989 1.1660134-.8818332 1.5996093-1.4326172z" fill="#fff"/><path d="m61.858 28.056c-1.104 0-1.858-.952-1.858-2.056v-18l20 20z" fill="#ffe587"/><rect fill="#c0d0df" height="52" rx="2" width="72" x="12" y="36"/><path d="m12 37.9992604c0-1.104161.8973133-1.9992604 2.0008389-1.9992604h67.9983222c1.1050328 0 2.0008389.8959923 2.0008389 1.9992604v47.0014792c0 1.104161-.8973133 1.9992604-2.0008389 1.9992604h-67.9983222c-1.1050328 0-2.0008389-.8959923-2.0008389-1.9992604z" fill="#dee8f2"/><path d="m91.1146615 50.175007c.4491944 1.0079158-.0865176 1.824993-1.1905069 1.824993h-84.01430923c-1.10669324 0-1.63931385-.8201959-1.19273738-1.824993l6.37778401-14.350014c.4479626-1.0079158 1.7084213-1.824993 2.8119469-1.824993h67.9983222c1.1050328 0 2.3663729.8201959 2.8141774 1.824993z" fill="url(#c)"/><path d="m82.3708347 35.0479964c.5536542.0003188 1.1851848.4105366 1.4098495.9146457l6.2877366 14.1086087c.2249842.5048261-.0304247.914336-.5931398.9146798l-83.14092186.0507969c-.55256625.0003376-.81724402-.4117365-.59706594-.9071372l6.3173761-14.2140962c.2228158-.5013357.8562943-.9074878 1.4059233-.9071713z" fill="#f0f8fa"/><g fill="#10acff" transform="translate(29 62)"><path d="m12.9041321 4.65451163c-.1471636 0-4.14936968.00023256-4.14936968.00023256s.00092122-.60209303.00092122-.69395349c0-.23627907.22224242-.46790698.46336969-.46883721.22362425-.00069768 3.22999997 0 3.46168487 0 .2086545 0 .4509333.23627907.4497818.46511628-.0009212.18139535-.0036848.29232558-.0036848.46511628 0 0 0 .23232558-.2227031.23232558m1.1439152 3.25255814c.2376727 0 .2390545-.21465117.2390545-.23627907-.0004606-.08069768-.0016121-.60906977-.0016121-.69046512 0-.23255814-.2337576-.23604651-.2337576-.23604651s-4.54733331-.00372093-4.84004846-.00372093c-.46406061 0-.45692122-.45348837-.45692122-.45348837-.00598787-.02953489.00023031-.47302326 0-.47302326h4.60790308c1.2793333 0 1.1496727-.93023256 1.1496727-.93023256v-.92186046s.1248242-1.63627907-1.6084364-1.63627907h-3.88198786c-1.76412121 0-1.64459394 1.6144186-1.64459394 1.6144186 0 .87441861.00046061 1.18697675.00046061 2.33720931 0 1.62976744 1.61442424 1.62232558 1.61442424 1.62232558z"/><path d="m5.5269503 6.51732558s.00368485.22674419-.23030303.22674419c-.2510303 0-1.47693333.00302325-2.23025454.00069767s-1.67729697-.16930232-1.67775758-1.61046511c-.0004606-1.44093024 1.0262303-1.64069768 1.66693333-1.64069768.64047273 0 2.47023031.00255814 2.47023031.00255814s.00115151 2.81465116.00115151 3.02116279m1.15266667-6.28488372c-.0988.00046512-.81964849.00046512-.91821818 0 0 0-.23053334 0-.23053334.24 0 .01906977-.00115151 1.85302326-.00115151 1.85302326-.96934546-.00023256-1.97369697.00046511-2.98265455 0-2.16738181-.00069768-2.54899394 1.89465116-2.54715151 2.79418604.00230303.89906977.38967273 2.78348837 2.58123636 2.78139535 2.19179394-.00209302 2.25328485.0027907 3.18094546.0027907 1.14898182 0 1.15036363-1.15604651 1.15036363-1.15604651v-6.2827907c0-.23255814-.23283636-.23255814-.23283636-.23255814"/><path d="m31.0941794 1.62790698h-.9212121c-.1271273 0-.2303031-.10418605-.2303031-.23255814v-.93023256c0-.12837209.1031758-.23255814.2303031-.23255814h.9212121c.1271273 0 .230303.10418605.230303.23255814v.93023256c0 .12837209-.1031757.23255814-.230303.23255814"/><path d="m31.0941794 7.90697674h-.9212121c-.1271273 0-.2303031-.10418604-.2303031-.23255814v-5.11627907c0-.12837209.1031758-.23255813.2303031-.23255813h.9212121c.1271273 0 .230303.10418604.230303.23255813v5.11627907c0 .1283721-.1031757.23255814-.230303.23255814"/><path d="m35.46996 2.32711628c-1.6918061-.00232558-3.6848485-.00046512-3.6848485-.00046512v5.34418605c0 .10534884.0667879.26093023.2756727.23395349.2252364-.00069768.5792122-.00209303.8044485-.0027907.3173576.04581395.3081455-.23488372.3081455-.23488372l-.0069091-4.17511628s1.6851273-.00162791 2.3016485-.00162791c.0384606 0 .9301939.01744186.9301939 1.16069768l-.0066788 3.02372093c-.0002303.12860465.1029455.23302325.2305334.23302325l.9207515-.00069767c.1271272 0 .2300727-.10418605.2300727-.23255814v-3.12906977c0-1.28906977-.6112242-2.21604651-2.3030303-2.21837209"/><path d="m23.9551079 3.71202326s-.0036849-.22674419.230303-.22674419c.2510303 0 1.4769333-.00302326 2.2302546-.00069767.7533212.00232558 1.6772969.16930232 1.6777575 1.61046511.0004606 1.44093023-1.0262303 1.64069768-1.6669333 1.64069768s-2.4702303-.00255814-2.4702303-.00255814-.0011515-2.81465117-.0011515-3.02116279m-1.1510546 6.28488372c.0988-.00046512.8187273-.00046512.917297 0 0 0 .230303 0 .230303-.24 0-.01906977.0006909-1.85302326.0006909-1.85302326.9695758.00023256 1.973697-.00046512 2.9828849 0 2.1671515.00069768 2.5487636-1.89465116 2.5469212-2.79418605-.002303-.89906976-.3896727-2.78348837-2.5812364-2.78139534-2.1917939.00209302-2.2514424-.0027907-3.1793333-.0027907-1.1489818 0-1.1485212 1.15604651-1.1485212 1.15604651v6.2827907c0 .23255814.2309939.23255814.2309939.23255814"/><path d="m20.5041321 4.65451163c-.1471636 0-4.1493697.00023256-4.1493697.00023256s.0009212-.60209303.0009212-.69395349c0-.23627907.2222425-.46790698.4633697-.46883721.2236243-.00069768 3.23 0 3.4616849 0 .2086545 0 .4509333.23627907.4497818.46511628-.0009212.18139535-.0034545.29232558-.0034545.46511628 0 0 0 .23232558-.2229334.23232558m1.1439152 3.25255814c.2376727 0 .2390545-.21465117.2390545-.23627907-.0004606-.08069768-.0016121-.60906977-.0016121-.69046512 0-.23255814-.2337576-.23604651-.2337576-.23604651s-4.5473333-.00372093-4.8400485-.00372093c-.4640606 0-.4569212-.45348837-.4569212-.45348837-.0059879-.02953489.0002303-.47302326 0-.47302326h4.6079031c1.2793333 0 1.1496727-.93023256 1.1496727-.93023256v-.92186046s.1248242-1.63627907-1.6084364-1.63627907h-3.8819879c-1.7641212 0-1.6445939 1.6144186-1.6445939 1.6144186 0 .87441861.0004606 1.18697675.0004606 2.33720931 0 1.62976744 1.6144242 1.62232558 1.6144242 1.62232558z"/></g></g></svg>